<svg width="1440" height="1051" viewBox="0 0 1440 1051" fill="none" xmlns="http://www.w3.org/2000/svg">
<rect x="175" y="231" width="54" height="54" fill="white" fill-opacity="0.02"/>
<rect width="54" height="54" transform="matrix(-1 0 0 1 1266 231)" fill="white" fill-opacity="0.02"/>
<rect width="54" height="54" transform="matrix(-1 0 0 1 1266 614)" fill="white" fill-opacity="0.02"/>
<rect width="54" height="54" transform="matrix(-1 0 0 1 229 614)" fill="white" fill-opacity="0.02"/>
<rect width="54" height="54" transform="matrix(-1 0 0 1 119 832)" fill="white" fill-opacity="0.02"/>
<rect width="54" height="54" transform="matrix(-1 0 0 1 1376 832)" fill="white" fill-opacity="0.02"/>
<rect x="121" y="122" width="54" height="54" fill="white" fill-opacity="0.02"/>
<rect width="54" height="54" transform="matrix(-1 0 0 1 1321 122)" fill="white" fill-opacity="0.02"/>
<path opacity="0.16" d="M-426.386 -42H-481V12.6M-426.386 -42V12.6M-426.386 -42H-371.773M-426.386 12.6H-481M-426.386 12.6V67.2M-426.386 12.6H-371.773M-481 12.6V67.2M-426.386 67.2H-481M-426.386 67.2V121.8M-426.386 67.2H-371.773M-481 67.2V121.8M-426.386 121.8H-481M-426.386 121.8V176.4M-426.386 121.8H-371.773M-481 121.8V176.4M-426.386 176.4H-481M-426.386 176.4V231M-426.386 176.4H-371.773M-481 176.4V231M-426.386 231H-481M-426.386 231V285.6M-426.386 231H-371.773M-481 231V285.6M-426.386 285.6H-481M-426.386 285.6V340.2M-426.386 285.6H-371.773M-481 285.6V340.2M-426.386 340.2H-481M-426.386 340.2V394.8M-426.386 340.2H-371.773M-481 340.2V394.8M-426.386 394.8H-481M-426.386 394.8V449.4M-426.386 394.8H-371.773M-481 394.8V449.4M-426.386 449.4H-481M-426.386 449.4V504M-426.386 449.4H-371.773M-481 449.4V504M-426.386 504H-481M-426.386 504V558.6M-426.386 504H-371.773M-481 504V558.6M-426.386 558.6H-481M-426.386 558.6V613.2M-426.386 558.6H-371.773M-481 558.6V613.2M-426.386 613.2H-481M-426.386 613.2V667.8M-426.386 613.2H-371.773M-481 613.2V667.8M-426.386 667.8H-481M-426.386 667.8V722.4M-426.386 667.8H-371.773M-481 667.8V722.4M-426.386 722.4H-481M-426.386 722.4V777M-426.386 722.4H-371.773M-481 722.4V777M-426.386 777H-481M-426.386 777V831.6M-426.386 777H-371.773M-481 777V831.6M-426.386 831.6H-481M-426.386 831.6V886.2M-426.386 831.6H-371.773M-481 831.6V886.2M-426.386 886.2H-481M-426.386 886.2V940.8M-426.386 886.2H-371.773M-481 886.2V940.8M-426.386 940.8H-481M-426.386 940.8V995.4M-426.386 940.8H-371.773M-481 940.8V995.4M-426.386 995.4H-481M-426.386 995.4V1050M-426.386 995.4H-371.773M-481 995.4V1050H-426.386M-426.386 1050H-371.773M-371.773 -42V12.6M-371.773 -42H-317.159M-371.773 12.6V67.2M-371.773 12.6H-317.159M-371.773 67.2V121.8M-371.773 67.2H-317.159M-371.773 121.8V176.4M-371.773 121.8H-317.159M-371.773 176.4V231M-371.773 176.4H-317.159M-371.773 231V285.6M-371.773 231H-317.159M-371.773 285.6V340.2M-371.773 285.6H-317.159M-371.773 340.2V394.8M-371.773 340.2H-317.159M-371.773 394.8V449.4M-371.773 394.8H-317.159M-371.773 449.4V504M-371.773 449.4H-317.159M-371.773 504V558.6M-371.773 504H-317.159M-371.773 558.6V613.2M-371.773 558.6H-317.159M-371.773 613.2V667.8M-371.773 613.2H-317.159M-371.773 667.8V722.4M-371.773 667.8H-317.159M-371.773 722.4V777M-371.773 722.4H-317.159M-371.773 777V831.6M-371.773 777H-317.159M-371.773 831.6V886.2M-371.773 831.6H-317.159M-371.773 886.2V940.8M-371.773 886.2H-317.159M-371.773 940.8V995.4M-371.773 940.8H-317.159M-371.773 995.4V1050M-371.773 995.4H-317.159M-371.773 1050H-317.159M-317.159 -42V12.6M-317.159 -42H-262.545M-317.159 12.6V67.2M-317.159 12.6H-262.545M-317.159 67.2V121.8M-317.159 67.2H-262.545M-317.159 121.8V176.4M-317.159 121.8H-262.545M-317.159 176.4V231M-317.159 176.4H-262.545M-317.159 231V285.6M-317.159 231H-262.545M-317.159 285.6V340.2M-317.159 285.6H-262.545M-317.159 340.2V394.8M-317.159 340.2H-262.545M-317.159 394.8V449.4M-317.159 394.8H-262.545M-317.159 449.4V504M-317.159 449.4H-262.545M-317.159 504V558.6M-317.159 504H-262.545M-317.159 558.6V613.2M-317.159 558.6H-262.545M-317.159 613.2V667.8M-317.159 613.2H-262.545M-317.159 667.8V722.4M-317.159 667.8H-262.545M-317.159 722.4V777M-317.159 722.4H-262.545M-317.159 777V831.6M-317.159 777H-262.545M-317.159 831.6V886.2M-317.159 831.6H-262.545M-317.159 886.2V940.8M-317.159 886.2H-262.545M-317.159 940.8V995.4M-317.159 940.8H-262.545M-317.159 995.4V1050M-317.159 995.4H-262.545M-317.159 1050H-262.545M-262.545 -42V12.6M-262.545 -42H-207.932M-262.545 12.6V67.2M-262.545 12.6H-207.932M-262.545 67.2V121.8M-262.545 67.2H-207.932M-262.545 121.8V176.4M-262.545 121.8H-207.932M-262.545 176.4V231M-262.545 176.4H-207.932M-262.545 231V285.6M-262.545 231H-207.932M-262.545 285.6V340.2M-262.545 285.6H-207.932M-262.545 340.2V394.8M-262.545 340.2H-207.932M-262.545 394.8V449.4M-262.545 394.8H-207.932M-262.545 449.4V504M-262.545 449.4H-207.932M-262.545 504V558.6M-262.545 504H-207.932M-262.545 558.6V613.2M-262.545 558.6H-207.932M-262.545 613.2V667.8M-262.545 613.2H-207.932M-262.545 667.8V722.4M-262.545 667.8H-207.932M-262.545 722.4V777M-262.545 722.4H-207.932M-262.545 777V831.6M-262.545 777H-207.932M-262.545 831.6V886.2M-262.545 831.6H-207.932M-262.545 886.2V940.8M-262.545 886.2H-207.932M-262.545 940.8V995.4M-262.545 940.8H-207.932M-262.545 995.4V1050M-262.545 995.4H-207.932M-262.545 1050H-207.932M-207.932 -42V12.6M-207.932 -42H-153.318M-207.932 12.6V67.2M-207.932 12.6H-153.318M-207.932 67.2V121.8M-207.932 67.2H-153.318M-207.932 121.8V176.4M-207.932 121.8H-153.318M-207.932 176.4V231M-207.932 176.4H-153.318M-207.932 231V285.6M-207.932 231H-153.318M-207.932 285.6V340.2M-207.932 285.6H-153.318M-207.932 340.2V394.8M-207.932 340.2H-153.318M-207.932 394.8V449.4M-207.932 394.8H-153.318M-207.932 449.4V504M-207.932 449.4H-153.318M-207.932 504V558.6M-207.932 504H-153.318M-207.932 558.6V613.2M-207.932 558.6H-153.318M-207.932 613.2V667.8M-207.932 613.2H-153.318M-207.932 667.8V722.4M-207.932 667.8H-153.318M-207.932 722.4V777M-207.932 722.4H-153.318M-207.932 777V831.6M-207.932 777H-153.318M-207.932 831.6V886.2M-207.932 831.6H-153.318M-207.932 886.2V940.8M-207.932 886.2H-153.318M-207.932 940.8V995.4M-207.932 940.8H-153.318M-207.932 995.4V1050M-207.932 995.4H-153.318M-207.932 1050H-153.318M-153.318 -42V12.6M-153.318 -42H-98.7045M-153.318 12.6V67.2M-153.318 12.6H-98.7045M-153.318 67.2V121.8M-153.318 67.2H-98.7045M-153.318 121.8V176.4M-153.318 121.8H-98.7045M-153.318 176.4V231M-153.318 176.4H-98.7045M-153.318 231V285.6M-153.318 231H-98.7045M-153.318 285.6V340.2M-153.318 285.6H-98.7045M-153.318 340.2V394.8M-153.318 340.2H-98.7045M-153.318 394.8V449.4M-153.318 394.8H-98.7045M-153.318 449.4V504M-153.318 449.4H-98.7045M-153.318 504V558.6M-153.318 504H-98.7045M-153.318 558.6V613.2M-153.318 558.6H-98.7045M-153.318 613.2V667.8M-153.318 613.2H-98.7045M-153.318 667.8V722.4M-153.318 667.8H-98.7045M-153.318 722.4V777M-153.318 722.4H-98.7045M-153.318 777V831.6M-153.318 777H-98.7045M-153.318 831.6V886.2M-153.318 831.6H-98.7045M-153.318 886.2V940.8M-153.318 886.2H-98.7045M-153.318 940.8V995.4M-153.318 940.8H-98.7045M-153.318 995.4V1050M-153.318 995.4H-98.7045M-153.318 1050H-98.7045M-98.7045 -42V12.6M-98.7045 -42H-44.0909M-98.7045 12.6V67.2M-98.7045 12.6H-44.0909M-98.7045 67.2V121.8M-98.7045 67.2H-44.0909M-98.7045 121.8V176.4M-98.7045 121.8H-44.0909M-98.7045 176.4V231M-98.7045 176.4H-44.0909M-98.7045 231V285.6M-98.7045 231H-44.0909M-98.7045 285.6V340.2M-98.7045 285.6H-44.0909M-98.7045 340.2H-44.0909M-98.7045 340.2V394.8M-98.7045 394.8V449.4M-98.7045 394.8H-44.0909M-98.7045 449.4V504M-98.7045 449.4H-44.0909M-98.7045 504V558.6M-98.7045 504H-44.0909M-98.7045 558.6V613.2M-98.7045 558.6H-44.0909M-98.7045 613.2V667.8M-98.7045 613.2H-44.0909M-98.7045 667.8V722.4M-98.7045 667.8H-44.0909M-98.7045 722.4V777M-98.7045 722.4H-44.0909M-98.7045 777V831.6M-98.7045 777H-44.0909M-98.7045 831.6V886.2M-98.7045 831.6H-44.0909M-98.7045 886.2V940.8M-98.7045 886.2H-44.0909M-98.7045 940.8V995.4M-98.7045 940.8H-44.0909M-98.7045 995.4V1050M-98.7045 995.4H-44.0909M-98.7045 1050H-44.0909M-44.0909 -42V12.6M-44.0909 -42H10.5227M-44.0909 12.6V67.2M-44.0909 12.6H10.5227M-44.0909 67.2V121.8M-44.0909 67.2H10.5227M-44.0909 121.8V176.4M-44.0909 121.8H10.5227M-44.0909 176.4V231M-44.0909 176.4H10.5227M-44.0909 231V285.6M-44.0909 231H10.5227M-44.0909 285.6V340.2M-44.0909 285.6H10.5227M-44.0909 340.2V394.8M-44.0909 340.2H10.5227M-44.0909 394.8V449.4M-44.0909 394.8H10.5227M-44.0909 449.4V504M-44.0909 449.4H10.5227M-44.0909 504V558.6M-44.0909 504H10.5227M-44.0909 558.6V613.2M-44.0909 558.6H10.5227M-44.0909 613.2V667.8M-44.0909 613.2H10.5227M-44.0909 667.8V722.4M-44.0909 667.8H10.5227M-44.0909 722.4V777M-44.0909 722.4H10.5227M-44.0909 777V831.6M-44.0909 777H10.5227M-44.0909 831.6V886.2M-44.0909 831.6H10.5227M-44.0909 886.2V940.8M-44.0909 886.2H10.5227M-44.0909 940.8V995.4M-44.0909 940.8H10.5227M-44.0909 995.4V1050M-44.0909 995.4H10.5227M-44.0909 1050H10.5227M10.5227 -42V12.6M10.5227 -42H65.1364M10.5227 12.6V67.2M10.5227 12.6H65.1364M10.5227 67.2V121.8M10.5227 67.2H65.1364M10.5227 121.8V176.4M10.5227 121.8H65.1364M10.5227 176.4V231M10.5227 176.4H65.1364M10.5227 231V285.6M10.5227 231H65.1364M10.5227 285.6V340.2M10.5227 285.6H65.1364M10.5227 340.2V394.8M10.5227 340.2H65.1364M10.5227 394.8V449.4M10.5227 394.8H65.1364M10.5227 449.4V504M10.5227 449.4H65.1364M10.5227 504V558.6M10.5227 504H65.1364M10.5227 558.6V613.2M10.5227 558.6H65.1364M10.5227 613.2V667.8M10.5227 613.2H65.1364M10.5227 667.8V722.4M10.5227 667.8H65.1364M10.5227 722.4V777M10.5227 722.4H65.1364M10.5227 777V831.6M10.5227 777H65.1364M10.5227 831.6V886.2M10.5227 831.6H65.1364M10.5227 886.2V940.8M10.5227 886.2H65.1364M10.5227 940.8V995.4M10.5227 940.8H65.1364M10.5227 995.4V1050M10.5227 995.4H65.1364M10.5227 1050H65.1364M65.1364 -42V12.6M65.1364 -42H119.75M65.1364 12.6V67.2M65.1364 12.6H119.75M65.1364 67.2V121.8M65.1364 67.2H119.75M65.1364 121.8V176.4M65.1364 121.8H119.75M65.1364 176.4V231M65.1364 176.4H119.75M65.1364 231V285.6M65.1364 231H119.75M65.1364 285.6V340.2M65.1364 285.6H119.75M65.1364 340.2V394.8M65.1364 340.2H119.75M65.1364 394.8V449.4M65.1364 394.8H119.75M65.1364 449.4V504M65.1364 449.4H119.75M65.1364 504V558.6M65.1364 504H119.75M65.1364 558.6V613.2M65.1364 558.6H119.75M65.1364 613.2V667.8M65.1364 613.2H119.75M65.1364 667.8V722.4M65.1364 667.8H119.75M65.1364 722.4V777M65.1364 722.4H119.75M65.1364 777V831.6M65.1364 777H119.75M65.1364 831.6V886.2M65.1364 831.6H119.75M65.1364 886.2V940.8M65.1364 886.2H119.75M65.1364 940.8V995.4M65.1364 940.8H119.75M65.1364 995.4V1050M65.1364 995.4H119.75M65.1364 1050H119.75M119.75 -42V12.6M119.75 -42H174.364M119.75 12.6V67.2M119.75 12.6H174.364M119.75 67.2V121.8M119.75 67.2H174.364M119.75 121.8V176.4M119.75 121.8H174.364M119.75 176.4V231M119.75 176.4H174.364M119.75 231V285.6M119.75 231H174.364M119.75 285.6V340.2M119.75 285.6H174.364M119.75 340.2V394.8M119.75 340.2H174.364M119.75 394.8V449.4M119.75 394.8H174.364M119.75 449.4V504M119.75 449.4H174.364M119.75 504V558.6M119.75 504H174.364M119.75 558.6V613.2M119.75 558.6H174.364M119.75 613.2V667.8M119.75 613.2H174.364M119.75 667.8V722.4M119.75 667.8H174.364M119.75 722.4V777M119.75 722.4H174.364M119.75 777V831.6M119.75 777H174.364M119.75 831.6V886.2M119.75 831.6H174.364M119.75 886.2V940.8M119.75 886.2H174.364M119.75 940.8V995.4M119.75 940.8H174.364M119.75 995.4V1050M119.75 995.4H174.364M119.75 1050H174.364M174.364 -42V12.6M174.364 -42H228.977M174.364 12.6V67.2M174.364 12.6H228.977M174.364 67.2V121.8M174.364 67.2H228.977M174.364 121.8V176.4M174.364 121.8H228.977M174.364 176.4V231M174.364 176.4H228.977M174.364 231V285.6M174.364 231H228.977M174.364 285.6V340.2M174.364 285.6H228.977M174.364 340.2V394.8M174.364 340.2H228.977M174.364 394.8V449.4M174.364 394.8H228.977M174.364 449.4V504M174.364 449.4H228.977M174.364 504V558.6M174.364 504H228.977M174.364 558.6V613.2M174.364 558.6H228.977M174.364 613.2V667.8M174.364 613.2H228.977M174.364 667.8V722.4M174.364 667.8H228.977M174.364 722.4V777M174.364 722.4H228.977M174.364 777V831.6M174.364 777H228.977M174.364 831.6V886.2M174.364 831.6H228.977M174.364 886.2V940.8M174.364 886.2H228.977M174.364 940.8V995.4M174.364 940.8H228.977M174.364 995.4V1050M174.364 995.4H228.977M174.364 1050H228.977M228.977 -42V12.6M228.977 -42H283.591M228.977 12.6V67.2M228.977 12.6H283.591M228.977 67.2V121.8M228.977 67.2H283.591M228.977 121.8V176.4M228.977 121.8H283.591M228.977 176.4V231M228.977 176.4H1212.02M228.977 231V285.6M228.977 231H1212.02M228.977 285.6V340.2M228.977 285.6H283.591M228.977 340.2V394.8M228.977 340.2H283.591M228.977 394.8V449.4M228.977 394.8H283.591M228.977 449.4V504M228.977 449.4H283.591M228.977 504V558.6M228.977 504H283.591M228.977 558.6V613.2M228.977 558.6H283.591M228.977 613.2V667.8M228.977 613.2H283.591M228.977 667.8V722.4M228.977 667.8H283.591M228.977 722.4V777M228.977 722.4H283.591M228.977 777V831.6M228.977 777H283.591M228.977 831.6V886.2M228.977 831.6H283.591M228.977 886.2V940.8M228.977 886.2H283.591M228.977 940.8V995.4M228.977 940.8H283.591M228.977 995.4V1050M228.977 995.4H283.591M228.977 1050H283.591M283.591 -42V12.6M283.591 -42H338.205M283.591 12.6V67.2M283.591 12.6H338.205M283.591 67.2V121.8M283.591 67.2H338.205M283.591 121.8H338.205M283.591 121.8V285.6M283.591 285.6V340.2M283.591 285.6H1157.41M283.591 340.2V394.8M283.591 340.2H1157.41M283.591 394.8V449.4M283.591 394.8H338.205M283.591 449.4V504M283.591 449.4H338.205M283.591 504V558.6M283.591 504H338.205M283.591 558.6V613.2M283.591 558.6H338.205M283.591 613.2V667.8M283.591 613.2H338.205M283.591 667.8V722.4M283.591 667.8H338.205M283.591 722.4V777M283.591 722.4H338.205M283.591 777V831.6M283.591 777H338.205M283.591 831.6V886.2M283.591 831.6H338.205M283.591 886.2V940.8M283.591 886.2H338.205M283.591 940.8V995.4M283.591 940.8H338.205M283.591 995.4V1050M283.591 995.4H338.205M283.591 1050H338.205M338.205 -42V12.6M338.205 -42H392.818M338.205 12.6V67.2M338.205 12.6H392.818M338.205 67.2V121.8M338.205 67.2H392.818M338.205 121.8H392.818M338.205 121.8V394.8M338.205 394.8V449.4M338.205 394.8H392.818M338.205 449.4V504M338.205 449.4H392.818M338.205 504V558.6M338.205 504H392.818M338.205 558.6V613.2M338.205 558.6H392.818M338.205 613.2V667.8M338.205 613.2H392.818M338.205 667.8V722.4M338.205 667.8H392.818M338.205 722.4V777M338.205 722.4H392.818M338.205 777V831.6M338.205 777H392.818M338.205 831.6V886.2M338.205 831.6H392.818M338.205 886.2V940.8M338.205 886.2H392.818M338.205 940.8V995.4M338.205 940.8H392.818M338.205 995.4V1050M338.205 995.4H392.818M338.205 1050H392.818M392.818 -42V12.6M392.818 -42H447.432M392.818 12.6V67.2M392.818 12.6H447.432M392.818 67.2V121.8M392.818 67.2H447.432M392.818 121.8H447.432M392.818 121.8V394.8M392.818 394.8V449.4M392.818 394.8H447.432M392.818 449.4V504M392.818 449.4H447.432M392.818 504V558.6M392.818 504H447.432M392.818 558.6V613.2M392.818 558.6H447.432M392.818 613.2V667.8M392.818 613.2H447.432M392.818 667.8V722.4M392.818 667.8H447.432M392.818 722.4V777M392.818 722.4H447.432M392.818 777V831.6M392.818 777H447.432M392.818 831.6V886.2M392.818 831.6H447.432M392.818 886.2V940.8M392.818 886.2H447.432M392.818 940.8V995.4M392.818 940.8H447.432M392.818 995.4V1050M392.818 995.4H447.432M392.818 1050H447.432M447.432 -42V12.6M447.432 -42H502.045M447.432 12.6V67.2M447.432 12.6H502.045M447.432 67.2V121.8M447.432 67.2H502.045M447.432 121.8H502.045M447.432 121.8V394.8M447.432 394.8V449.4M447.432 394.8H502.045M447.432 449.4V504M447.432 449.4H502.045M447.432 504V558.6M447.432 504H502.045M447.432 558.6V613.2M447.432 558.6H502.045M447.432 613.2V667.8M447.432 613.2H502.045M447.432 667.8V722.4M447.432 667.8H502.045M447.432 722.4V777M447.432 722.4H502.045M447.432 777V831.6M447.432 777H502.045M447.432 831.6V886.2M447.432 831.6H502.045M447.432 886.2V940.8M447.432 886.2H502.045M447.432 940.8V995.4M447.432 940.8H502.045M447.432 995.4V1050M447.432 995.4H502.045M447.432 1050H502.045M502.045 -42V12.6M502.045 -42H556.659M502.045 12.6V67.2M502.045 12.6H556.659M502.045 67.2V121.8M502.045 67.2H556.659M502.045 121.8H556.659M502.045 121.8V394.8M502.045 394.8V449.4M502.045 394.8H556.659M502.045 449.4V504M502.045 449.4H556.659M502.045 504V558.6M502.045 504H556.659M502.045 558.6V613.2M502.045 558.6H556.659M502.045 613.2V667.8M502.045 613.2H556.659M502.045 667.8V722.4M502.045 667.8H556.659M502.045 722.4V777M502.045 722.4H556.659M502.045 777V831.6M502.045 777H556.659M502.045 831.6V886.2M502.045 831.6H556.659M502.045 886.2V940.8M502.045 886.2H556.659M502.045 940.8V995.4M502.045 940.8H556.659M502.045 995.4V1050M502.045 995.4H556.659M502.045 1050H556.659M556.659 -42V12.6M556.659 -42H611.273M556.659 12.6V67.2M556.659 12.6H611.273M556.659 67.2V121.8M556.659 67.2H611.273M556.659 121.8H611.273M556.659 121.8V394.8M556.659 394.8V449.4M556.659 394.8H611.273M556.659 449.4V504M556.659 449.4H611.273M556.659 504V558.6M556.659 504H611.273M556.659 558.6V613.2M556.659 558.6H611.273M556.659 613.2V667.8M556.659 613.2H611.273M556.659 667.8V722.4M556.659 667.8H611.273M556.659 722.4V777M556.659 722.4H611.273M556.659 777V831.6M556.659 777H611.273M556.659 831.6V886.2M556.659 831.6H611.273M556.659 886.2V940.8M556.659 886.2H611.273M556.659 940.8V995.4M556.659 940.8H611.273M556.659 995.4V1050M556.659 995.4H611.273M556.659 1050H611.273M611.273 -42V12.6M611.273 -42H665.886M611.273 12.6V67.2M611.273 12.6H665.886M611.273 67.2V121.8M611.273 67.2H665.886M611.273 121.8H665.886M611.273 121.8V394.8M611.273 394.8V449.4M611.273 394.8H665.886M611.273 449.4V504M611.273 449.4H665.886M611.273 504V558.6M611.273 504H665.886M611.273 558.6V613.2M611.273 558.6H665.886M611.273 613.2V667.8M611.273 613.2H665.886M611.273 667.8V722.4M611.273 667.8H665.886M611.273 722.4V777M611.273 722.4H665.886M611.273 777V831.6M611.273 777H665.886M611.273 831.6V886.2M611.273 831.6H665.886M611.273 886.2V940.8M611.273 886.2H665.886M611.273 940.8V995.4M611.273 940.8H665.886M611.273 995.4V1050M611.273 995.4H665.886M611.273 1050H665.886M665.886 -42V12.6M665.886 -42H720.5M665.886 12.6H720.5M665.886 12.6V67.2M665.886 67.2V121.8M665.886 67.2H720.5M665.886 121.8H720.5M665.886 121.8V394.8M665.886 394.8V449.4M665.886 394.8H720.5M665.886 449.4V504M665.886 449.4H720.5M665.886 504V558.6M665.886 504H720.5M665.886 558.6V613.2M665.886 558.6H720.5M665.886 613.2V667.8M665.886 613.2H720.5M665.886 667.8V722.4M665.886 667.8H720.5M665.886 722.4V777M665.886 722.4H720.5M665.886 777V831.6M665.886 777H720.5M665.886 831.6V886.2M665.886 831.6H720.5M665.886 886.2V940.8M665.886 886.2H720.5M665.886 940.8V995.4M665.886 940.8H720.5M665.886 995.4V1050M665.886 995.4H720.5M665.886 1050H720.5M720.5 -42V12.6M720.5 -42H775.114M720.5 12.6H775.114M720.5 12.6V67.2M720.5 67.2V121.8M720.5 67.2H775.114M720.5 121.8H775.114M720.5 121.8V394.8M720.5 394.8V449.4M720.5 394.8H775.114M720.5 449.4V504M720.5 449.4H775.114M720.5 504V558.6M720.5 504H775.114M720.5 558.6V613.2M720.5 558.6H775.114M720.5 613.2V667.8M720.5 613.2H775.114M720.5 667.8V722.4M720.5 667.8H775.114M720.5 722.4V777M720.5 722.4H775.114M720.5 777V831.6M720.5 777H775.114M720.5 831.6V886.2M720.5 831.6H775.114M720.5 886.2V940.8M720.5 886.2H775.114M720.5 940.8V995.4M720.5 940.8H775.114M720.5 995.4V1050M720.5 995.4H775.114M720.5 1050H775.114M775.114 -42V12.6M775.114 -42H829.727M775.114 12.6H829.727M775.114 12.6V67.2M775.114 67.2V121.8M775.114 67.2H829.727M775.114 121.8H829.727M775.114 121.8V394.8M775.114 394.8V449.4M775.114 394.8H829.727M775.114 449.4V504M775.114 449.4H829.727M775.114 504V558.6M775.114 504H829.727M775.114 558.6V613.2M775.114 558.6H829.727M775.114 613.2V667.8M775.114 613.2H829.727M775.114 667.8V722.4M775.114 667.8H829.727M775.114 722.4V777M775.114 722.4H829.727M775.114 777V831.6M775.114 777H829.727M775.114 831.6V886.2M775.114 831.6H829.727M775.114 886.2V940.8M775.114 886.2H829.727M775.114 940.8V995.4M775.114 940.8H829.727M775.114 995.4V1050M775.114 995.4H829.727M775.114 1050H829.727M829.727 -42V12.6M829.727 -42H884.341M829.727 12.6H884.341M829.727 12.6V67.2M829.727 67.2V121.8M829.727 67.2H884.341M829.727 121.8H884.341M829.727 121.8V394.8M829.727 394.8V449.4M829.727 394.8H884.341M829.727 449.4V504M829.727 449.4H884.341M829.727 504V558.6M829.727 504H884.341M829.727 558.6V613.2M829.727 558.6H884.341M829.727 613.2V667.8M829.727 613.2H884.341M829.727 667.8V722.4M829.727 667.8H884.341M829.727 722.4V777M829.727 722.4H884.341M829.727 777V831.6M829.727 777H884.341M829.727 831.6V886.2M829.727 831.6H884.341M829.727 886.2V940.8M829.727 886.2H884.341M829.727 940.8V995.4M829.727 940.8H884.341M829.727 995.4V1050M829.727 995.4H884.341M829.727 1050H884.341M884.341 -42V12.6M884.341 -42H938.955M884.341 12.6V67.2M884.341 12.6H938.955M884.341 67.2V121.8M884.341 67.2H938.955M884.341 121.8H938.955M884.341 121.8V394.8M884.341 394.8V449.4M884.341 394.8H938.955M884.341 449.4V504M884.341 449.4H938.955M884.341 504V558.6M884.341 504H938.955M884.341 558.6V613.2M884.341 558.6H938.955M884.341 613.2V667.8M884.341 613.2H938.955M884.341 667.8V722.4M884.341 667.8H938.955M884.341 722.4V777M884.341 722.4H938.955M884.341 777V831.6M884.341 777H938.955M884.341 831.6V886.2M884.341 831.6H938.955M884.341 886.2V940.8M884.341 886.2H938.955M884.341 940.8V995.4M884.341 940.8H938.955M884.341 995.4V1050M884.341 995.4H938.955M884.341 1050H938.955M938.955 -42V12.6M938.955 -42H993.568M938.955 12.6V67.2M938.955 12.6H993.568M938.955 67.2V121.8M938.955 67.2H993.568M938.955 121.8H993.568M938.955 121.8V394.8M938.955 394.8V449.4M938.955 394.8H993.568M938.955 449.4V504M938.955 449.4H993.568M938.955 504V558.6M938.955 504H993.568M938.955 558.6V613.2M938.955 558.6H993.568M938.955 613.2V667.8M938.955 613.2H993.568M938.955 667.8V722.4M938.955 667.8H993.568M938.955 722.4V777M938.955 722.4H993.568M938.955 777V831.6M938.955 777H993.568M938.955 831.6V886.2M938.955 831.6H993.568M938.955 886.2V940.8M938.955 886.2H993.568M938.955 940.8V995.4M938.955 940.8H993.568M938.955 995.4V1050M938.955 995.4H993.568M938.955 1050H993.568M993.568 -42V12.6M993.568 -42H1048.18M993.568 12.6V67.2M993.568 12.6H1048.18M993.568 67.2V121.8M993.568 67.2H1048.18M993.568 121.8H1048.18M993.568 121.8V394.8M993.568 394.8V449.4M993.568 394.8H1048.18M993.568 449.4V504M993.568 449.4H1048.18M993.568 504V558.6M993.568 504H1048.18M993.568 558.6V613.2M993.568 558.6H1048.18M993.568 613.2V667.8M993.568 613.2H1048.18M993.568 667.8V722.4M993.568 667.8H1048.18M993.568 722.4V777M993.568 722.4H1048.18M993.568 777V831.6M993.568 777H1048.18M993.568 831.6V886.2M993.568 831.6H1048.18M993.568 886.2V940.8M993.568 886.2H1048.18M993.568 940.8V995.4M993.568 940.8H1048.18M993.568 995.4V1050M993.568 995.4H1048.18M993.568 1050H1048.18M1048.18 -42V12.6M1048.18 -42H1102.8M1048.18 12.6V67.2M1048.18 12.6H1102.8M1048.18 67.2V121.8M1048.18 67.2H1102.8M1048.18 121.8H1102.8M1048.18 121.8V394.8M1048.18 394.8V449.4M1048.18 394.8H1102.8M1048.18 449.4V504M1048.18 449.4H1102.8M1048.18 504V558.6M1048.18 504H1102.8M1048.18 558.6V613.2M1048.18 558.6H1102.8M1048.18 613.2V667.8M1048.18 613.2H1102.8M1048.18 667.8V722.4M1048.18 667.8H1102.8M1048.18 722.4V777M1048.18 722.4H1102.8M1048.18 777V831.6M1048.18 777H1102.8M1048.18 831.6V886.2M1048.18 831.6H1102.8M1048.18 886.2V940.8M1048.18 886.2H1102.8M1048.18 940.8V995.4M1048.18 940.8H1102.8M1048.18 995.4V1050M1048.18 995.4H1102.8M1048.18 1050H1102.8M1102.8 -42V12.6M1102.8 -42H1157.41M1102.8 12.6V67.2M1102.8 12.6H1157.41M1102.8 67.2V121.8M1102.8 67.2H1157.41M1102.8 121.8H1157.41M1102.8 121.8V394.8M1102.8 394.8V449.4M1102.8 394.8H1157.41M1102.8 449.4V504M1102.8 449.4H1157.41M1102.8 504V558.6M1102.8 504H1157.41M1102.8 558.6V613.2M1102.8 558.6H1157.41M1102.8 613.2V667.8M1102.8 613.2H1157.41M1102.8 667.8V722.4M1102.8 667.8H1157.41M1102.8 722.4V777M1102.8 722.4H1157.41M1102.8 777V831.6M1102.8 777H1157.41M1102.8 831.6V886.2M1102.8 831.6H1157.41M1102.8 886.2V940.8M1102.8 886.2H1157.41M1102.8 940.8V995.4M1102.8 940.8H1157.41M1102.8 995.4V1050M1102.8 995.4H1157.41M1102.8 1050H1157.41M1157.41 -42V12.6M1157.41 -42H1212.02M1157.41 12.6V67.2M1157.41 12.6H1212.02M1157.41 67.2V121.8M1157.41 67.2H1212.02M1157.41 121.8H1212.02M1157.41 121.8V285.6M1157.41 285.6V340.2M1157.41 285.6H1212.02M1157.41 340.2V394.8M1157.41 340.2H1212.02M1157.41 394.8V449.4M1157.41 394.8H1212.02M1157.41 449.4V504M1157.41 449.4H1212.02M1157.41 504V558.6M1157.41 504H1212.02M1157.41 558.6V613.2M1157.41 558.6H1212.02M1157.41 613.2V667.8M1157.41 613.2H1212.02M1157.41 667.8V722.4M1157.41 667.8H1212.02M1157.41 722.4V777M1157.41 722.4H1212.02M1157.41 777V831.6M1157.41 777H1212.02M1157.41 831.6V886.2M1157.41 831.6H1212.02M1157.41 886.2V940.8M1157.41 886.2H1212.02M1157.41 940.8V995.4M1157.41 940.8H1212.02M1157.41 995.4V1050M1157.41 995.4H1212.02M1157.41 1050H1212.02M1212.02 -42V12.6M1212.02 -42H1266.64M1212.02 12.6V67.2M1212.02 12.6H1266.64M1212.02 67.2V121.8M1212.02 67.2H1266.64M1212.02 121.8V176.4M1212.02 121.8H1266.64M1212.02 176.4V231M1212.02 176.4H1266.64M1212.02 231V285.6M1212.02 231H1266.64M1212.02 285.6V340.2M1212.02 285.6H1266.64M1212.02 340.2V394.8M1212.02 340.2H1266.64M1212.02 394.8V449.4M1212.02 394.8H1266.64M1212.02 449.4V504M1212.02 449.4H1266.64M1212.02 504V558.6M1212.02 504H1266.64M1212.02 558.6V613.2M1212.02 558.6H1266.64M1212.02 613.2V667.8M1212.02 613.2H1266.64M1212.02 667.8V722.4M1212.02 667.8H1266.64M1212.02 722.4V777M1212.02 722.4H1266.64M1212.02 777V831.6M1212.02 777H1266.64M1212.02 831.6V886.2M1212.02 831.6H1266.64M1212.02 886.2V940.8M1212.02 886.2H1266.64M1212.02 940.8V995.4M1212.02 940.8H1266.64M1212.02 995.4V1050M1212.02 995.4H1266.64M1212.02 1050H1266.64M1266.64 -42V12.6M1266.64 -42H1321.25M1266.64 12.6V67.2M1266.64 12.6H1321.25M1266.64 67.2V121.8M1266.64 67.2H1321.25M1266.64 121.8V176.4M1266.64 121.8H1321.25M1266.64 176.4V231M1266.64 176.4H1321.25M1266.64 231V285.6M1266.64 231H1321.25M1266.64 285.6V340.2M1266.64 285.6H1321.25M1266.64 340.2V394.8M1266.64 340.2H1321.25M1266.64 394.8V449.4M1266.64 394.8H1321.25M1266.64 449.4V504M1266.64 449.4H1321.25M1266.64 504V558.6M1266.64 504H1321.25M1266.64 558.6V613.2M1266.64 558.6H1321.25M1266.64 613.2V667.8M1266.64 613.2H1321.25M1266.64 667.8V722.4M1266.64 667.8H1321.25M1266.64 722.4V777M1266.64 722.4H1321.25M1266.64 777V831.6M1266.64 777H1321.25M1266.64 831.6V886.2M1266.64 831.6H1321.25M1266.64 886.2V940.8M1266.64 886.2H1321.25M1266.64 940.8V995.4M1266.64 940.8H1321.25M1266.64 995.4V1050M1266.64 995.4H1321.25M1266.64 1050H1321.25M1321.25 -42V12.6M1321.25 -42H1375.86M1321.25 12.6V67.2M1321.25 12.6H1375.86M1321.25 67.2V121.8M1321.25 67.2H1375.86M1321.25 121.8V176.4M1321.25 121.8H1375.86M1321.25 176.4V231M1321.25 176.4H1375.86M1321.25 231V285.6M1321.25 231H1375.86M1321.25 285.6V340.2M1321.25 285.6H1375.86M1321.25 340.2V394.8M1321.25 340.2H1375.86M1321.25 394.8V449.4M1321.25 394.8H1375.86M1321.25 449.4V504M1321.25 449.4H1375.86M1321.25 504V558.6M1321.25 504H1375.86M1321.25 558.6V613.2M1321.25 558.6H1375.86M1321.25 613.2V667.8M1321.25 613.2H1375.86M1321.25 667.8V722.4M1321.25 667.8H1375.86M1321.25 722.4V777M1321.25 722.4H1375.86M1321.25 777V831.6M1321.25 777H1375.86M1321.25 831.6V886.2M1321.25 831.6H1375.86M1321.25 886.2V940.8M1321.25 886.2H1375.86M1321.25 940.8V995.4M1321.25 940.8H1375.86M1321.25 995.4V1050M1321.25 995.4H1375.86M1321.25 1050H1375.86M1375.86 -42V12.6M1375.86 -42H1430.48M1375.86 12.6V67.2M1375.86 12.6H1430.48M1375.86 67.2V121.8M1375.86 67.2H1430.48M1375.86 121.8V176.4M1375.86 121.8H1430.48M1375.86 176.4V231M1375.86 176.4H1430.48M1375.86 231V285.6M1375.86 231H1430.48M1375.86 285.6V340.2M1375.86 285.6H1430.48M1375.86 340.2V394.8M1375.86 340.2H1430.48M1375.86 394.8V449.4M1375.86 394.8H1430.48M1375.86 449.4V504M1375.86 449.4H1430.48M1375.86 504V558.6M1375.86 504H1430.48M1375.86 558.6V613.2M1375.86 558.6H1430.48M1375.86 613.2V667.8M1375.86 613.2H1430.48M1375.86 667.8V722.4M1375.86 667.8H1430.48M1375.86 722.4V777M1375.86 722.4H1430.48M1375.86 777V831.6M1375.86 777H1430.48M1375.86 831.6V886.2M1375.86 831.6H1430.48M1375.86 886.2V940.8M1375.86 886.2H1430.48M1375.86 940.8V995.4M1375.86 940.8H1430.48M1375.86 995.4V1050M1375.86 995.4H1430.48M1375.86 1050H1430.48M1430.48 -42V12.6M1430.48 -42H1485.09M1430.48 12.6V67.2M1430.48 12.6H1485.09M1430.48 67.2V121.8M1430.48 67.2H1485.09M1430.48 121.8V176.4M1430.48 121.8H1485.09M1430.48 176.4V231M1430.48 176.4H1485.09M1430.48 231V285.6M1430.48 231H1485.09M1430.48 285.6V340.2M1430.48 285.6H1485.09M1430.48 340.2V394.8M1430.48 340.2H1485.09M1430.48 394.8V449.4M1430.48 394.8H1485.09M1430.48 449.4V504M1430.48 449.4H1485.09M1430.48 504V558.6M1430.48 504H1485.09M1430.48 558.6V613.2M1430.48 558.6H1485.09M1430.48 613.2V667.8M1430.48 613.2H1485.09M1430.48 667.8V722.4M1430.48 667.8H1485.09M1430.48 722.4V777M1430.48 722.4H1485.09M1430.48 777V831.6M1430.48 777H1485.09M1430.48 831.6V886.2M1430.48 831.6H1485.09M1430.48 886.2V940.8M1430.48 886.2H1485.09M1430.48 940.8V995.4M1430.48 940.8H1485.09M1430.48 995.4V1050M1430.48 995.4H1485.09M1430.48 1050H1485.09M1485.09 -42V12.6M1485.09 -42H1539.7M1485.09 12.6V67.2M1485.09 12.6H1539.7M1485.09 67.2V121.8M1485.09 67.2H1539.7M1485.09 121.8V176.4M1485.09 121.8H1539.7M1485.09 176.4V231M1485.09 176.4H1539.7M1485.09 231V285.6M1485.09 231H1539.7M1485.09 285.6V340.2M1485.09 285.6H1539.7M1485.09 340.2V394.8M1485.09 340.2H1539.7M1485.09 394.8V449.4M1485.09 394.8H1539.7M1485.09 449.4V504M1485.09 449.4H1539.7M1485.09 504V558.6M1485.09 504H1539.7M1485.09 558.6V613.2M1485.09 558.6H1539.7M1485.09 613.2V667.8M1485.09 613.2H1539.7M1485.09 667.8V722.4M1485.09 667.8H1539.7M1485.09 722.4V777M1485.09 722.4H1539.7M1485.09 777V831.6M1485.09 777H1539.7M1485.09 831.6V886.2M1485.09 831.6H1539.7M1485.09 886.2V940.8M1485.09 886.2H1539.7M1485.09 940.8V995.4M1485.09 940.8H1539.7M1485.09 995.4V1050M1485.09 995.4H1539.7M1485.09 1050H1539.7M1539.7 -42V12.6M1539.7 -42H1594.32M1539.7 12.6V67.2M1539.7 12.6H1594.32M1539.7 67.2V121.8M1539.7 67.2H1594.32M1539.7 121.8V176.4M1539.7 121.8H1594.32M1539.7 176.4V231M1539.7 176.4H1594.32M1539.7 231V285.6M1539.7 231H1594.32M1539.7 285.6V340.2M1539.7 285.6H1594.32M1539.7 340.2H1594.32M1539.7 340.2V394.8M1539.7 394.8V449.4M1539.7 394.8H1594.32M1539.7 449.4V504M1539.7 449.4H1594.32M1539.7 504V558.6M1539.7 504H1594.32M1539.7 558.6V613.2M1539.7 558.6H1594.32M1539.7 613.2V667.8M1539.7 613.2H1594.32M1539.7 667.8V722.4M1539.7 667.8H1594.32M1539.7 722.4V777M1539.7 722.4H1594.32M1539.7 777V831.6M1539.7 777H1594.32M1539.7 831.6V886.2M1539.7 831.6H1594.32M1539.7 886.2V940.8M1539.7 886.2H1594.32M1539.7 940.8V995.4M1539.7 940.8H1594.32M1539.7 995.4V1050M1539.7 995.4H1594.32M1539.7 1050H1594.32M1594.32 -42V12.6M1594.32 -42H1648.93M1594.32 12.6V67.2M1594.32 12.6H1648.93M1594.32 67.2V121.8M1594.32 67.2H1648.93M1594.32 121.8V176.4M1594.32 121.8H1648.93M1594.32 176.4V231M1594.32 176.4H1648.93M1594.32 231V285.6M1594.32 231H1648.93M1594.32 285.6V340.2M1594.32 285.6H1648.93M1594.32 340.2V394.8M1594.32 340.2H1648.93M1594.32 394.8V449.4M1594.32 394.8H1648.93M1594.32 449.4V504M1594.32 449.4H1648.93M1594.32 504V558.6M1594.32 504H1648.93M1594.32 558.6V613.2M1594.32 558.6H1648.93M1594.32 613.2V667.8M1594.32 613.2H1648.93M1594.32 667.8V722.4M1594.32 667.8H1648.93M1594.32 722.4V777M1594.32 722.4H1648.93M1594.32 777V831.6M1594.32 777H1648.93M1594.32 831.6V886.2M1594.32 831.6H1648.93M1594.32 886.2V940.8M1594.32 886.2H1648.93M1594.32 940.8V995.4M1594.32 940.8H1648.93M1594.32 995.4V1050M1594.32 995.4H1648.93M1594.32 1050H1648.93M1648.93 -42V12.6M1648.93 -42H1703.55M1648.93 12.6V67.2M1648.93 12.6H1703.55M1648.93 67.2V121.8M1648.93 67.2H1703.55M1648.93 121.8V176.4M1648.93 121.8H1703.55M1648.93 176.4V231M1648.93 176.4H1703.55M1648.93 231V285.6M1648.93 231H1703.55M1648.93 285.6V340.2M1648.93 285.6H1703.55M1648.93 340.2V394.8M1648.93 340.2H1703.55M1648.93 394.8V449.4M1648.93 394.8H1703.55M1648.93 449.4V504M1648.93 449.4H1703.55M1648.93 504V558.6M1648.93 504H1703.55M1648.93 558.6V613.2M1648.93 558.6H1703.55M1648.93 613.2V667.8M1648.93 613.2H1703.55M1648.93 667.8V722.4M1648.93 667.8H1703.55M1648.93 722.4V777M1648.93 722.4H1703.55M1648.93 777V831.6M1648.93 777H1703.55M1648.93 831.6V886.2M1648.93 831.6H1703.55M1648.93 886.2V940.8M1648.93 886.2H1703.55M1648.93 940.8V995.4M1648.93 940.8H1703.55M1648.93 995.4V1050M1648.93 995.4H1703.55M1648.93 1050H1703.55M1703.55 -42V12.6M1703.55 -42H1758.16M1703.55 12.6V67.2M1703.55 12.6H1758.16M1703.55 67.2V121.8M1703.55 67.2H1758.16M1703.55 121.8V176.4M1703.55 121.8H1758.16M1703.55 176.4V231M1703.55 176.4H1758.16M1703.55 231V285.6M1703.55 231H1758.16M1703.55 285.6V340.2M1703.55 285.6H1758.16M1703.55 340.2V394.8M1703.55 340.2H1758.16M1703.55 394.8V449.4M1703.55 394.8H1758.16M1703.55 449.4V504M1703.55 449.4H1758.16M1703.55 504V558.6M1703.55 504H1758.16M1703.55 558.6V613.2M1703.55 558.6H1758.16M1703.55 613.2V667.8M1703.55 613.2H1758.16M1703.55 667.8V722.4M1703.55 667.8H1758.16M1703.55 722.4V777M1703.55 722.4H1758.16M1703.55 777V831.6M1703.55 777H1758.16M1703.55 831.6V886.2M1703.55 831.6H1758.16M1703.55 886.2V940.8M1703.55 886.2H1758.16M1703.55 940.8V995.4M1703.55 940.8H1758.16M1703.55 995.4V1050M1703.55 995.4H1758.16M1703.55 1050H1758.16M1758.16 -42V12.6M1758.16 -42H1812.77M1758.16 12.6V67.2M1758.16 12.6H1812.77M1758.16 67.2V121.8M1758.16 67.2H1812.77M1758.16 121.8V176.4M1758.16 121.8H1812.77M1758.16 176.4V231M1758.16 176.4H1812.77M1758.16 231V285.6M1758.16 231H1812.77M1758.16 285.6V340.2M1758.16 285.6H1812.77M1758.16 340.2V394.8M1758.16 340.2H1812.77M1758.16 394.8V449.4M1758.16 394.8H1812.77M1758.16 449.4V504M1758.16 449.4H1812.77M1758.16 504V558.6M1758.16 504H1812.77M1758.16 558.6V613.2M1758.16 558.6H1812.77M1758.16 613.2V667.8M1758.16 613.2H1812.77M1758.16 667.8V722.4M1758.16 667.8H1812.77M1758.16 722.4V777M1758.16 722.4H1812.77M1758.16 777V831.6M1758.16 777H1812.77M1758.16 831.6V886.2M1758.16 831.6H1812.77M1758.16 886.2V940.8M1758.16 886.2H1812.77M1758.16 940.8V995.4M1758.16 940.8H1812.77M1758.16 995.4V1050M1758.16 995.4H1812.77M1758.16 1050H1812.77M1812.77 -42V12.6M1812.77 -42H1867.39M1812.77 12.6V67.2M1812.77 12.6H1867.39M1812.77 67.2V121.8M1812.77 67.2H1867.39M1812.77 121.8V176.4M1812.77 121.8H1867.39M1812.77 176.4V231M1812.77 176.4H1867.39M1812.77 231V285.6M1812.77 231H1867.39M1812.77 285.6V340.2M1812.77 285.6H1867.39M1812.77 340.2V394.8M1812.77 340.2H1867.39M1812.77 394.8V449.4M1812.77 394.8H1867.39M1812.77 449.4V504M1812.77 449.4H1867.39M1812.77 504V558.6M1812.77 504H1867.39M1812.77 558.6V613.2M1812.77 558.6H1867.39M1812.77 613.2V667.8M1812.77 613.2H1867.39M1812.77 667.8V722.4M1812.77 667.8H1867.39M1812.77 722.4V777M1812.77 722.4H1867.39M1812.77 777V831.6M1812.77 777H1867.39M1812.77 831.6V886.2M1812.77 831.6H1867.39M1812.77 886.2V940.8M1812.77 886.2H1867.39M1812.77 940.8V995.4M1812.77 940.8H1867.39M1812.77 995.4V1050M1812.77 995.4H1867.39M1812.77 1050H1867.39M1867.39 -42V12.6M1867.39 -42H1922V12.6M1867.39 12.6V67.2M1867.39 12.6H1922M1867.39 67.2V121.8M1867.39 67.2H1922M1867.39 121.8V176.4M1867.39 121.8H1922M1867.39 176.4V231M1867.39 176.4H1922M1867.39 231V285.6M1867.39 231H1922M1867.39 285.6V340.2M1867.39 285.6H1922M1867.39 340.2V394.8M1867.39 340.2H1922M1867.39 394.8V449.4M1867.39 394.8H1922M1867.39 449.4V504M1867.39 449.4H1922M1867.39 504V558.6M1867.39 504H1922M1867.39 558.6V613.2M1867.39 558.6H1922M1867.39 613.2V667.8M1867.39 613.2H1922M1867.39 667.8V722.4M1867.39 667.8H1922M1867.39 722.4V777M1867.39 722.4H1922M1867.39 777V831.6M1867.39 777H1922M1867.39 831.6V886.2M1867.39 831.6H1922M1867.39 886.2V940.8M1867.39 886.2H1922M1867.39 940.8V995.4M1867.39 940.8H1922M1867.39 995.4V1050M1867.39 995.4H1922M1867.39 1050H1922V995.4M1922 12.6V67.2M1922 67.2V121.8M1922 121.8V176.4M1922 176.4V231M1922 231V285.6M1922 285.6V340.2M1922 340.2V394.8M1922 394.8V449.4M1922 449.4V504M1922 504V558.6M1922 558.6V613.2M1922 613.2V667.8M1922 667.8V722.4M1922 722.4V777M1922 777V831.6M1922 831.6V886.2M1922 886.2V940.8M1922 940.8V995.4" stroke="url(#paint0_radial_1010_8039)"/>
<defs>
<radialGradient id="paint0_radial_1010_8039" cx="0" cy="0" r="1" gradientUnits="userSpaceOnUse" gradientTransform="translate(720.5 525.158) rotate(90) scale(440.842 1154.94)">
<stop stop-color="white" stop-opacity="0.65"/>
<stop offset="1" stop-color="white" stop-opacity="0"/>
</radialGradient>
</defs>
</svg>
