<svg width="92" height="32" viewBox="0 0 92 32" fill="none" xmlns="http://www.w3.org/2000/svg">
<path d="M10.7277 6.19197C13.5312 6.19197 15.75 7.10268 17.3839 8.92411C19.0268 10.7455 19.8482 13.2143 19.8482 16.3304C19.8482 19.4464 19.0312 21.9196 17.3973 23.75C15.7634 25.5714 13.5402 26.4821 10.7277 26.4821C7.89732 26.4821 5.66071 25.5714 4.01786 23.75C2.38393 21.9286 1.56696 19.4554 1.56696 16.3304C1.56696 13.2143 2.38839 10.7455 4.03125 8.92411C5.68304 7.10268 7.91518 6.19197 10.7277 6.19197ZM10.7277 9.25893C9.00446 9.25893 7.63393 9.89732 6.61607 11.1741C5.60714 12.4509 5.10268 14.1696 5.10268 16.3304C5.10268 18.5 5.60268 20.2232 6.60268 21.5C7.61161 22.7768 8.98661 23.4152 10.7277 23.4152C12.442 23.4152 13.7991 22.7768 14.7991 21.5C15.808 20.2143 16.3125 18.4911 16.3125 16.3304C16.3125 14.1696 15.808 12.4509 14.7991 11.1741C13.7991 9.89732 12.442 9.25893 10.7277 9.25893ZM22.3214 26V11.3482H25.5223V13.692H25.75C26.1071 12.8527 26.6518 12.2054 27.3839 11.75C28.125 11.2857 29.0312 11.0536 30.1027 11.0536C31.7277 11.0536 32.9732 11.5268 33.8393 12.4732C34.7143 13.4196 35.1518 14.7679 35.1518 16.5179V26H31.8304V17.308C31.8304 15.067 30.8437 13.9464 28.8705 13.9464C27.8795 13.9464 27.0937 14.2634 26.5134 14.8973C25.933 15.5313 25.6429 16.3884 25.6429 17.4688V26H22.3214ZM39.0982 31.317C38.4107 31.317 37.9732 31.2991 37.7857 31.2634V28.5446C37.9554 28.5804 38.2589 28.5982 38.6964 28.5982C39.4018 28.5982 39.9598 28.4509 40.3705 28.1562C40.7902 27.8616 41.1071 27.3795 41.3214 26.7098L41.4955 26.067L36.2589 11.3482H39.9018L43.3304 22.7857H43.558L46.9732 11.3482H50.4821L45.192 26.4687C44.5759 28.2812 43.817 29.5402 42.9152 30.2455C42.0223 30.9598 40.75 31.317 39.0982 31.317ZM57.9107 20.9509H57.683L54.683 26H51.1071L55.8482 18.7277L51.067 11.3482H54.9107L57.8304 16.3839H58.058L60.9509 11.3482H64.6071L59.8795 18.5938L64.6607 26H60.9107L57.9107 20.9509Z" fill="white"/>
<path d="M80.8572 24.8572H73.5103C72.6762 24.8572 72.0001 24.1811 72.0001 23.347V16.0001C72.0001 11.1084 75.9656 7.14293 80.8572 7.14293C85.7489 7.14293 89.7144 11.1084 89.7144 16.0001C89.7144 20.8917 85.7489 24.8572 80.8572 24.8572Z" stroke="#DB5C4D" stroke-width="2.85714"/>
<rect x="78.5715" y="13.7144" width="4.57143" height="4.57143" rx="2.28571" fill="#DB5C4D"/>
</svg>
