<svg width="544" height="88" viewBox="0 0 544 88" fill="none" xmlns="http://www.w3.org/2000/svg">
<g clip-path="url(#clip0_600_6264)">
<path opacity="0.22" d="M-249.659 334H-272V311.7M-249.659 334V311.7M-249.659 334H-227.318M-249.659 311.7H-272M-249.659 311.7V289.4M-249.659 311.7H-227.318M-272 311.7V289.4M-249.659 289.4H-272M-249.659 289.4V267.1M-249.659 289.4H-227.318M-272 289.4V267.1M-249.659 267.1H-272M-249.659 267.1V244.8M-249.659 267.1H-227.318M-272 267.1V244.8M-249.659 244.8H-272M-249.659 244.8V222.5M-249.659 244.8H-227.318M-272 244.8V222.5M-249.659 222.5H-272M-249.659 222.5V200.2M-249.659 222.5H-227.318M-272 222.5V200.2M-249.659 200.2H-272M-249.659 200.2V177.9M-249.659 200.2H-227.318M-272 200.2V177.9M-249.659 177.9H-272M-249.659 177.9V155.6M-249.659 177.9H-227.318M-272 177.9V155.6M-249.659 155.6H-272M-249.659 155.6V133.3M-249.659 155.6H-227.318M-272 155.6V133.3M-249.659 133.3H-272M-249.659 133.3V111M-249.659 133.3H-227.318M-272 133.3V111M-249.659 111H-272M-249.659 111V88.7M-249.659 111H-227.318M-272 111V88.7M-249.659 88.7H-272M-249.659 88.7V66.4M-249.659 88.7H-227.318M-272 88.7V66.4M-249.659 66.4H-272M-249.659 66.4V44.1M-249.659 66.4H-227.318M-272 66.4V44.1M-249.659 44.1H-272M-249.659 44.1V21.8M-249.659 44.1H-227.318M-272 44.1V21.8M-249.659 21.8H-272M-249.659 21.8V-0.500011M-249.659 21.8H-227.318M-272 21.8V-0.500011M-249.659 -0.500011H-272M-249.659 -0.500011V-22.8M-249.659 -0.500011H-227.318M-272 -0.500011V-22.8M-249.659 -22.8H-272M-249.659 -22.8V-45.1M-249.659 -22.8H-227.318M-272 -22.8V-45.1M-249.659 -45.1H-272M-249.659 -45.1V-67.4M-249.659 -45.1H-227.318M-272 -45.1V-67.4M-249.659 -67.4H-272M-249.659 -67.4V-89.7M-249.659 -67.4H-227.318M-272 -67.4V-89.7M-249.659 -89.7H-272M-249.659 -89.7V-112M-249.659 -89.7H-227.318M-272 -89.7V-112H-249.659M-249.659 -112H-227.318M-227.318 334V311.7M-227.318 334H-204.977M-227.318 311.7V289.4M-227.318 311.7H-204.977M-227.318 289.4V267.1M-227.318 289.4H-204.977M-227.318 267.1V244.8M-227.318 267.1H-204.977M-227.318 244.8V222.5M-227.318 244.8H-204.977M-227.318 222.5V200.2M-227.318 222.5H-204.977M-227.318 200.2V177.9M-227.318 200.2H-204.977M-227.318 177.9V155.6M-227.318 177.9H-204.977M-227.318 155.6V133.3M-227.318 155.6H-204.977M-227.318 133.3V111M-227.318 133.3H-204.977M-227.318 111V88.7M-227.318 111H-204.977M-227.318 88.7V66.4M-227.318 88.7H-204.977M-227.318 66.4V44.1M-227.318 66.4H-204.977M-227.318 44.1V21.8M-227.318 44.1H-204.977M-227.318 21.8V-0.500011M-227.318 21.8H-204.977M-227.318 -0.500011V-22.8M-227.318 -0.500011H-204.977M-227.318 -22.8V-45.1M-227.318 -22.8H-204.977M-227.318 -45.1V-67.4M-227.318 -45.1H-204.977M-227.318 -67.4V-89.7M-227.318 -67.4H-204.977M-227.318 -89.7V-112M-227.318 -89.7H-204.977M-227.318 -112H-204.977M-204.977 334V311.7M-204.977 334H-182.636M-204.977 311.7V289.4M-204.977 311.7H-182.636M-204.977 289.4V267.1M-204.977 289.4H-182.636M-204.977 267.1V244.8M-204.977 267.1H-182.636M-204.977 244.8V222.5M-204.977 244.8H-182.636M-204.977 222.5V200.2M-204.977 222.5H-182.636M-204.977 200.2V177.9M-204.977 200.2H-182.636M-204.977 177.9V155.6M-204.977 177.9H-182.636M-204.977 155.6V133.3M-204.977 155.6H-182.636M-204.977 133.3V111M-204.977 133.3H-182.636M-204.977 111V88.7M-204.977 111H-182.636M-204.977 88.7V66.4M-204.977 88.7H-182.636M-204.977 66.4V44.1M-204.977 66.4H-182.636M-204.977 44.1V21.8M-204.977 44.1H-182.636M-204.977 21.8V-0.500011M-204.977 21.8H-182.636M-204.977 -0.500011V-22.8M-204.977 -0.500011H-182.636M-204.977 -22.8V-45.1M-204.977 -22.8H-182.636M-204.977 -45.1V-67.4M-204.977 -45.1H-182.636M-204.977 -67.4V-89.7M-204.977 -67.4H-182.636M-204.977 -89.7V-112M-204.977 -89.7H-182.636M-204.977 -112H-182.636M-182.636 334V311.7M-182.636 334H-160.295M-182.636 311.7V289.4M-182.636 311.7H-160.295M-182.636 289.4V267.1M-182.636 289.4H-160.295M-182.636 267.1V244.8M-182.636 267.1H-160.295M-182.636 244.8V222.5M-182.636 244.8H-160.295M-182.636 222.5V200.2M-182.636 222.5H-160.295M-182.636 200.2V177.9M-182.636 200.2H-160.295M-182.636 177.9V155.6M-182.636 177.9H-160.295M-182.636 155.6V133.3M-182.636 155.6H-160.295M-182.636 133.3V111M-182.636 133.3H-160.295M-182.636 111V88.7M-182.636 111H-160.295M-182.636 88.7V66.4M-182.636 88.7H-160.295M-182.636 66.4V44.1M-182.636 66.4H-160.295M-182.636 44.1V21.8M-182.636 44.1H-160.295M-182.636 21.8V-0.500011M-182.636 21.8H-160.295M-182.636 -0.500011V-22.8M-182.636 -0.500011H-160.295M-182.636 -22.8V-45.1M-182.636 -22.8H-160.295M-182.636 -45.1V-67.4M-182.636 -45.1H-160.295M-182.636 -67.4V-89.7M-182.636 -67.4H-160.295M-182.636 -89.7V-112M-182.636 -89.7H-160.295M-182.636 -112H-160.295M-160.295 334V311.7M-160.295 334H-137.955M-160.295 311.7V289.4M-160.295 311.7H-137.955M-160.295 289.4V267.1M-160.295 289.4H-137.955M-160.295 267.1V244.8M-160.295 267.1H-137.955M-160.295 244.8V222.5M-160.295 244.8H-137.955M-160.295 222.5V200.2M-160.295 222.5H-137.955M-160.295 200.2V177.9M-160.295 200.2H-137.955M-160.295 177.9V155.6M-160.295 177.9H-137.955M-160.295 155.6V133.3M-160.295 155.6H-137.955M-160.295 133.3V111M-160.295 133.3H-137.955M-160.295 111V88.7M-160.295 111H-137.955M-160.295 88.7V66.4M-160.295 88.7H-137.955M-160.295 66.4V44.1M-160.295 66.4H-137.955M-160.295 44.1V21.8M-160.295 44.1H-137.955M-160.295 21.8V-0.500011M-160.295 21.8H-137.955M-160.295 -0.500011V-22.8M-160.295 -0.500011H-137.955M-160.295 -22.8V-45.1M-160.295 -22.8H-137.955M-160.295 -45.1V-67.4M-160.295 -45.1H-137.955M-160.295 -67.4V-89.7M-160.295 -67.4H-137.955M-160.295 -89.7V-112M-160.295 -89.7H-137.955M-160.295 -112H-137.955M-137.955 334V311.7M-137.955 334H-115.614M-137.955 311.7V289.4M-137.955 311.7H-115.614M-137.955 289.4V267.1M-137.955 289.4H-115.614M-137.955 267.1V244.8M-137.955 267.1H-115.614M-137.955 244.8V222.5M-137.955 244.8H-115.614M-137.955 222.5V200.2M-137.955 222.5H-115.614M-137.955 200.2V177.9M-137.955 200.2H-115.614M-137.955 177.9V155.6M-137.955 177.9H-115.614M-137.955 155.6V133.3M-137.955 155.6H-115.614M-137.955 133.3V111M-137.955 133.3H-115.614M-137.955 111V88.7M-137.955 111H-115.614M-137.955 88.7V66.4M-137.955 88.7H-115.614M-137.955 66.4V44.1M-137.955 66.4H-115.614M-137.955 44.1V21.8M-137.955 44.1H-115.614M-137.955 21.8V-0.500011M-137.955 21.8H-115.614M-137.955 -0.500011V-22.8M-137.955 -0.500011H-115.614M-137.955 -22.8V-45.1M-137.955 -22.8H-115.614M-137.955 -45.1V-67.4M-137.955 -45.1H-115.614M-137.955 -67.4V-89.7M-137.955 -67.4H-115.614M-137.955 -89.7V-112M-137.955 -89.7H-115.614M-137.955 -112H-115.614M-115.614 334V311.7M-115.614 334H-93.2727M-115.614 311.7V289.4M-115.614 311.7H-93.2727M-115.614 289.4V267.1M-115.614 289.4H-93.2727M-115.614 267.1V244.8M-115.614 267.1H-93.2727M-115.614 244.8V222.5M-115.614 244.8H-93.2727M-115.614 222.5V200.2M-115.614 222.5H-93.2727M-115.614 200.2V177.9M-115.614 200.2H-93.2727M-115.614 177.9H-93.2727M-115.614 177.9V155.6M-115.614 155.6V133.3M-115.614 155.6H-93.2727M-115.614 133.3V111M-115.614 133.3H-93.2727M-115.614 111V88.7M-115.614 111H-93.2727M-115.614 88.7V66.4M-115.614 88.7H-93.2727M-115.614 66.4V44.1M-115.614 66.4H-93.2727M-115.614 44.1V21.8M-115.614 44.1H-93.2727M-115.614 21.8V-0.500011M-115.614 21.8H-93.2727M-115.614 -0.500011V-22.8M-115.614 -0.500011H-93.2727M-115.614 -22.8V-45.1M-115.614 -22.8H-93.2727M-115.614 -45.1V-67.4M-115.614 -45.1H-93.2727M-115.614 -67.4V-89.7M-115.614 -67.4H-93.2727M-115.614 -89.7V-112M-115.614 -89.7H-93.2727M-115.614 -112H-93.2727M-93.2727 334V311.7M-93.2727 334H-70.9318M-93.2727 311.7V289.4M-93.2727 311.7H-70.9318M-93.2727 289.4V267.1M-93.2727 289.4H-70.9318M-93.2727 267.1V244.8M-93.2727 267.1H-70.9318M-93.2727 244.8V222.5M-93.2727 244.8H-70.9318M-93.2727 222.5V200.2M-93.2727 222.5H-70.9318M-93.2727 200.2V177.9M-93.2727 200.2H-70.9318M-93.2727 177.9V155.6M-93.2727 177.9H-70.9318M-93.2727 155.6V133.3M-93.2727 155.6H-70.9318M-93.2727 133.3V111M-93.2727 133.3H-70.9318M-93.2727 111V88.7M-93.2727 111H-70.9318M-93.2727 88.7V66.4M-93.2727 88.7H-70.9318M-93.2727 66.4V44.1M-93.2727 66.4H-70.9318M-93.2727 44.1V21.8M-93.2727 44.1H-70.9318M-93.2727 21.8V-0.500011M-93.2727 21.8H-70.9318M-93.2727 -0.500011V-22.8M-93.2727 -0.500011H-70.9318M-93.2727 -22.8V-45.1M-93.2727 -22.8H-70.9318M-93.2727 -45.1V-67.4M-93.2727 -45.1H-70.9318M-93.2727 -67.4V-89.7M-93.2727 -67.4H-70.9318M-93.2727 -89.7V-112M-93.2727 -89.7H-70.9318M-93.2727 -112H-70.9318M-70.9318 334V311.7M-70.9318 334H-48.5909M-70.9318 311.7V289.4M-70.9318 311.7H-48.5909M-70.9318 289.4V267.1M-70.9318 289.4H-48.5909M-70.9318 267.1V244.8M-70.9318 267.1H-48.5909M-70.9318 244.8V222.5M-70.9318 244.8H-48.5909M-70.9318 222.5V200.2M-70.9318 222.5H-48.5909M-70.9318 200.2V177.9M-70.9318 200.2H-48.5909M-70.9318 177.9V155.6M-70.9318 177.9H-48.5909M-70.9318 155.6V133.3M-70.9318 155.6H-48.5909M-70.9318 133.3V111M-70.9318 133.3H-48.5909M-70.9318 111V88.7M-70.9318 111H-48.5909M-70.9318 88.7V66.4M-70.9318 88.7H-48.5909M-70.9318 66.4V44.1M-70.9318 66.4H-48.5909M-70.9318 44.1V21.8M-70.9318 44.1H-48.5909M-70.9318 21.8V-0.500011M-70.9318 21.8H-48.5909M-70.9318 -0.500011V-22.8M-70.9318 -0.500011H-48.5909M-70.9318 -22.8V-45.1M-70.9318 -22.8H-48.5909M-70.9318 -45.1V-67.4M-70.9318 -45.1H-48.5909M-70.9318 -67.4V-89.7M-70.9318 -67.4H-48.5909M-70.9318 -89.7V-112M-70.9318 -89.7H-48.5909M-70.9318 -112H-48.5909M-48.5909 334V311.7M-48.5909 334H-26.25M-48.5909 311.7V289.4M-48.5909 311.7H-26.25M-48.5909 289.4V267.1M-48.5909 289.4H-26.25M-48.5909 267.1V244.8M-48.5909 267.1H-26.25M-48.5909 244.8V222.5M-48.5909 244.8H-26.25M-48.5909 222.5V200.2M-48.5909 222.5H-26.25M-48.5909 200.2V177.9M-48.5909 200.2H-26.25M-48.5909 177.9V155.6M-48.5909 177.9H-26.25M-48.5909 155.6V133.3M-48.5909 155.6H-26.25M-48.5909 133.3V111M-48.5909 133.3H-26.25M-48.5909 111V88.7M-48.5909 111H-26.25M-48.5909 88.7V66.4M-48.5909 88.7H-26.25M-48.5909 66.4V44.1M-48.5909 66.4H-26.25M-48.5909 44.1V21.8M-48.5909 44.1H-26.25M-48.5909 21.8V-0.500011M-48.5909 21.8H-26.25M-48.5909 -0.500011V-22.8M-48.5909 -0.500011H-26.25M-48.5909 -22.8V-45.1M-48.5909 -22.8H-26.25M-48.5909 -45.1V-67.4M-48.5909 -45.1H-26.25M-48.5909 -67.4V-89.7M-48.5909 -67.4H-26.25M-48.5909 -89.7V-112M-48.5909 -89.7H-26.25M-48.5909 -112H-26.25M-26.25 334V311.7M-26.25 334H-3.90909M-26.25 311.7V289.4M-26.25 311.7H-3.90909M-26.25 289.4V267.1M-26.25 289.4H-3.90909M-26.25 267.1V244.8M-26.25 267.1H-3.90909M-26.25 244.8V222.5M-26.25 244.8H-3.90909M-26.25 222.5V200.2M-26.25 222.5H-3.90909M-26.25 200.2V177.9M-26.25 200.2H-3.90909M-26.25 177.9V155.6M-26.25 177.9H-3.90909M-26.25 155.6V133.3M-26.25 155.6H-3.90909M-26.25 133.3V111M-26.25 133.3H-3.90909M-26.25 111V88.7M-26.25 111H-3.90909M-26.25 88.7V66.4M-26.25 88.7H-3.90909M-26.25 66.4V44.1M-26.25 66.4H-3.90909M-26.25 44.1V21.8M-26.25 44.1H-3.90909M-26.25 21.8V-0.500011M-26.25 21.8H-3.90909M-26.25 -0.500011V-22.8M-26.25 -0.500011H-3.90909M-26.25 -22.8V-45.1M-26.25 -22.8H-3.90909M-26.25 -45.1V-67.4M-26.25 -45.1H-3.90909M-26.25 -67.4V-89.7M-26.25 -67.4H-3.90909M-26.25 -89.7V-112M-26.25 -89.7H-3.90909M-26.25 -112H-3.90909M-3.90909 334V311.7M-3.90909 334H18.4318M-3.90909 311.7V289.4M-3.90909 311.7H18.4318M-3.90909 289.4V267.1M-3.90909 289.4H18.4318M-3.90909 267.1V244.8M-3.90909 267.1H18.4318M-3.90909 244.8V222.5M-3.90909 244.8H18.4318M-3.90909 222.5V200.2M-3.90909 222.5H18.4318M-3.90909 200.2V177.9M-3.90909 200.2H18.4318M-3.90909 177.9V155.6M-3.90909 177.9H18.4318M-3.90909 155.6V133.3M-3.90909 155.6H18.4318M-3.90909 133.3V111M-3.90909 133.3H18.4318M-3.90909 111V88.7M-3.90909 111H18.4318M-3.90909 88.7V66.4M-3.90909 88.7H18.4318M-3.90909 66.4V44.1M-3.90909 66.4H18.4318M-3.90909 44.1V21.8M-3.90909 44.1H18.4318M-3.90909 21.8V-0.500011M-3.90909 21.8H18.4318M-3.90909 -0.500011V-22.8M-3.90909 -0.500011H18.4318M-3.90909 -22.8V-45.1M-3.90909 -22.8H18.4318M-3.90909 -45.1V-67.4M-3.90909 -45.1H18.4318M-3.90909 -67.4V-89.7M-3.90909 -67.4H18.4318M-3.90909 -89.7V-112M-3.90909 -89.7H18.4318M-3.90909 -112H18.4318M18.4318 334V311.7M18.4318 334H40.7727M18.4318 311.7V289.4M18.4318 311.7H40.7727M18.4318 289.4V267.1M18.4318 289.4H40.7727M18.4318 267.1V244.8M18.4318 267.1H40.7727M18.4318 244.8V222.5M18.4318 244.8H420.568M18.4318 222.5V200.2M18.4318 222.5H420.568M18.4318 200.2V177.9M18.4318 200.2H40.7727M18.4318 177.9V155.6M18.4318 177.9H40.7727M18.4318 155.6V133.3M18.4318 155.6H40.7727M18.4318 133.3V111M18.4318 133.3H40.7727M18.4318 111V88.7M18.4318 111H40.7727M18.4318 88.7V66.4M18.4318 88.7H40.7727M18.4318 66.4V44.1M18.4318 66.4H40.7727M18.4318 44.1V21.8M18.4318 44.1H40.7727M18.4318 21.8V-0.500011M18.4318 21.8H40.7727M18.4318 -0.500011V-22.8M18.4318 -0.500011H40.7727M18.4318 -22.8V-45.1M18.4318 -22.8H40.7727M18.4318 -45.1V-67.4M18.4318 -45.1H40.7727M18.4318 -67.4V-89.7M18.4318 -67.4H40.7727M18.4318 -89.7V-112M18.4318 -89.7H40.7727M18.4318 -112H40.7727M40.7727 334V311.7M40.7727 334H63.1137M40.7727 311.7V289.4M40.7727 311.7H63.1137M40.7727 289.4V267.1M40.7727 289.4H63.1137M40.7727 267.1H63.1137M40.7727 267.1V200.2M40.7727 200.2V177.9M40.7727 200.2H398.227M40.7727 177.9V155.6M40.7727 177.9H398.227M40.7727 155.6V133.3M40.7727 155.6H63.1137M40.7727 133.3V111M40.7727 133.3H63.1137M40.7727 111V88.7M40.7727 111H63.1137M40.7727 88.7V66.4M40.7727 88.7H63.1137M40.7727 66.4V44.1M40.7727 66.4H63.1137M40.7727 44.1V21.8M40.7727 44.1H63.1137M40.7727 21.8V-0.500011M40.7727 21.8H63.1137M40.7727 -0.500011V-22.8M40.7727 -0.500011H63.1137M40.7727 -22.8V-45.1M40.7727 -22.8H63.1137M40.7727 -45.1V-67.4M40.7727 -45.1H63.1137M40.7727 -67.4V-89.7M40.7727 -67.4H63.1137M40.7727 -89.7V-112M40.7727 -89.7H63.1137M40.7727 -112H63.1137M63.1137 334V311.7M63.1137 334H85.4546M63.1137 311.7V289.4M63.1137 311.7H85.4546M63.1137 289.4V267.1M63.1137 289.4H85.4546M63.1137 267.1H85.4546M63.1137 267.1V155.6M63.1137 155.6V133.3M63.1137 155.6H85.4546M63.1137 133.3V111M63.1137 133.3H85.4546M63.1137 111V88.7M63.1137 111H85.4546M63.1137 88.7V66.4M63.1137 88.7H85.4546M63.1137 66.4V44.1M63.1137 66.4H85.4546M63.1137 44.1V21.8M63.1137 44.1H85.4546M63.1137 21.8V-0.500011M63.1137 21.8H85.4546M63.1137 -0.500011V-22.8M63.1137 -0.500011H85.4546M63.1137 -22.8V-45.1M63.1137 -22.8H85.4546M63.1137 -45.1V-67.4M63.1137 -45.1H85.4546M63.1137 -67.4V-89.7M63.1137 -67.4H85.4546M63.1137 -89.7V-112M63.1137 -89.7H85.4546M63.1137 -112H85.4546M85.4546 334V311.7M85.4546 334H107.795M85.4546 311.7V289.4M85.4546 311.7H107.795M85.4546 289.4V267.1M85.4546 289.4H107.795M85.4546 267.1H107.795M85.4546 267.1V155.6M85.4546 155.6V133.3M85.4546 155.6H107.795M85.4546 133.3V111M85.4546 133.3H107.795M85.4546 111V88.7M85.4546 111H107.795M85.4546 88.7V66.4M85.4546 88.7H107.795M85.4546 66.4V44.1M85.4546 66.4H107.795M85.4546 44.1V21.8M85.4546 44.1H107.795M85.4546 21.8V-0.500011M85.4546 21.8H107.795M85.4546 -0.500011V-22.8M85.4546 -0.500011H107.795M85.4546 -22.8V-45.1M85.4546 -22.8H107.795M85.4546 -45.1V-67.4M85.4546 -45.1H107.795M85.4546 -67.4V-89.7M85.4546 -67.4H107.795M85.4546 -89.7V-112M85.4546 -89.7H107.795M85.4546 -112H107.795M107.795 334V311.7M107.795 334H130.136M107.795 311.7V289.4M107.795 311.7H130.136M107.795 289.4V267.1M107.795 289.4H130.136M107.795 267.1H130.136M107.795 267.1V155.6M107.795 155.6V133.3M107.795 155.6H130.136M107.795 133.3V111M107.795 133.3H130.136M107.795 111V88.7M107.795 111H130.136M107.795 88.7V66.4M107.795 88.7H130.136M107.795 66.4V44.1M107.795 66.4H130.136M107.795 44.1V21.8M107.795 44.1H130.136M107.795 21.8V-0.500011M107.795 21.8H130.136M107.795 -0.500011V-22.8M107.795 -0.500011H130.136M107.795 -22.8V-45.1M107.795 -22.8H130.136M107.795 -45.1V-67.4M107.795 -45.1H130.136M107.795 -67.4V-89.7M107.795 -67.4H130.136M107.795 -89.7V-112M107.795 -89.7H130.136M107.795 -112H130.136M130.136 334V311.7M130.136 334H152.477M130.136 311.7V289.4M130.136 311.7H152.477M130.136 289.4V267.1M130.136 289.4H152.477M130.136 267.1H152.477M130.136 267.1V155.6M130.136 155.6V133.3M130.136 155.6H152.477M130.136 133.3V111M130.136 133.3H152.477M130.136 111V88.7M130.136 111H152.477M130.136 88.7V66.4M130.136 88.7H152.477M130.136 66.4V44.1M130.136 66.4H152.477M130.136 44.1V21.8M130.136 44.1H152.477M130.136 21.8V-0.500011M130.136 21.8H152.477M130.136 -0.500011V-22.8M130.136 -0.500011H152.477M130.136 -22.8V-45.1M130.136 -22.8H152.477M130.136 -45.1V-67.4M130.136 -45.1H152.477M130.136 -67.4V-89.7M130.136 -67.4H152.477M130.136 -89.7V-112M130.136 -89.7H152.477M130.136 -112H152.477M152.477 334V311.7M152.477 334H174.818M152.477 311.7V289.4M152.477 311.7H174.818M152.477 289.4V267.1M152.477 289.4H174.818M152.477 267.1H174.818M152.477 267.1V155.6M152.477 155.6V133.3M152.477 155.6H174.818M152.477 133.3V111M152.477 133.3H174.818M152.477 111V88.7M152.477 111H174.818M152.477 88.7V66.4M152.477 88.7H174.818M152.477 66.4V44.1M152.477 66.4H174.818M152.477 44.1V21.8M152.477 44.1H174.818M152.477 21.8V-0.500011M152.477 21.8H174.818M152.477 -0.500011V-22.8M152.477 -0.500011H174.818M152.477 -22.8V-45.1M152.477 -22.8H174.818M152.477 -45.1V-67.4M152.477 -45.1H174.818M152.477 -67.4V-89.7M152.477 -67.4H174.818M152.477 -89.7V-112M152.477 -89.7H174.818M152.477 -112H174.818M174.818 334V311.7M174.818 334H197.159M174.818 311.7V289.4M174.818 311.7H197.159M174.818 289.4V267.1M174.818 289.4H197.159M174.818 267.1H197.159M174.818 267.1V155.6M174.818 155.6V133.3M174.818 155.6H197.159M174.818 133.3V111M174.818 133.3H197.159M174.818 111V88.7M174.818 111H197.159M174.818 88.7V66.4M174.818 88.7H197.159M174.818 66.4V44.1M174.818 66.4H197.159M174.818 44.1V21.8M174.818 44.1H197.159M174.818 21.8V-0.500011M174.818 21.8H197.159M174.818 -0.500011V-22.8M174.818 -0.500011H197.159M174.818 -22.8V-45.1M174.818 -22.8H197.159M174.818 -45.1V-67.4M174.818 -45.1H197.159M174.818 -67.4V-89.7M174.818 -67.4H197.159M174.818 -89.7V-112M174.818 -89.7H197.159M174.818 -112H197.159M197.159 334V311.7M197.159 334H219.5M197.159 311.7H219.5M197.159 311.7V289.4M197.159 289.4V267.1M197.159 289.4H219.5M197.159 267.1H219.5M197.159 267.1V155.6M197.159 155.6V133.3M197.159 155.6H219.5M197.159 133.3V111M197.159 133.3H219.5M197.159 111V88.7M197.159 111H219.5M197.159 88.7V66.4M197.159 88.7H219.5M197.159 66.4V44.1M197.159 66.4H219.5M197.159 44.1V21.8M197.159 44.1H219.5M197.159 21.8V-0.500011M197.159 21.8H219.5M197.159 -0.500011V-22.8M197.159 -0.500011H219.5M197.159 -22.8V-45.1M197.159 -22.8H219.5M197.159 -45.1V-67.4M197.159 -45.1H219.5M197.159 -67.4V-89.7M197.159 -67.4H219.5M197.159 -89.7V-112M197.159 -89.7H219.5M197.159 -112H219.5M219.5 334V311.7M219.5 334H241.841M219.5 311.7H241.841M219.5 311.7V289.4M219.5 289.4V267.1M219.5 289.4H241.841M219.5 267.1H241.841M219.5 267.1V155.6M219.5 155.6V133.3M219.5 155.6H241.841M219.5 133.3V111M219.5 133.3H241.841M219.5 111V88.7M219.5 111H241.841M219.5 88.7V66.4M219.5 88.7H241.841M219.5 66.4V44.1M219.5 66.4H241.841M219.5 44.1V21.8M219.5 44.1H241.841M219.5 21.8V-0.500011M219.5 21.8H241.841M219.5 -0.500011V-22.8M219.5 -0.500011H241.841M219.5 -22.8V-45.1M219.5 -22.8H241.841M219.5 -45.1V-67.4M219.5 -45.1H241.841M219.5 -67.4V-89.7M219.5 -67.4H241.841M219.5 -89.7V-112M219.5 -89.7H241.841M219.5 -112H241.841M241.841 334V311.7M241.841 334H264.182M241.841 311.7H264.182M241.841 311.7V289.4M241.841 289.4V267.1M241.841 289.4H264.182M241.841 267.1H264.182M241.841 267.1V155.6M241.841 155.6V133.3M241.841 155.6H264.182M241.841 133.3V111M241.841 133.3H264.182M241.841 111V88.7M241.841 111H264.182M241.841 88.7V66.4M241.841 88.7H264.182M241.841 66.4V44.1M241.841 66.4H264.182M241.841 44.1V21.8M241.841 44.1H264.182M241.841 21.8V-0.500011M241.841 21.8H264.182M241.841 -0.500011V-22.8M241.841 -0.500011H264.182M241.841 -22.8V-45.1M241.841 -22.8H264.182M241.841 -45.1V-67.4M241.841 -45.1H264.182M241.841 -67.4V-89.7M241.841 -67.4H264.182M241.841 -89.7V-112M241.841 -89.7H264.182M241.841 -112H264.182M264.182 334V311.7M264.182 334H286.523M264.182 311.7H286.523M264.182 311.7V289.4M264.182 289.4V267.1M264.182 289.4H286.523M264.182 267.1H286.523M264.182 267.1V155.6M264.182 155.6V133.3M264.182 155.6H286.523M264.182 133.3V111M264.182 133.3H286.523M264.182 111V88.7M264.182 111H286.523M264.182 88.7V66.4M264.182 88.7H286.523M264.182 66.4V44.1M264.182 66.4H286.523M264.182 44.1V21.8M264.182 44.1H286.523M264.182 21.8V-0.500011M264.182 21.8H286.523M264.182 -0.500011V-22.8M264.182 -0.500011H286.523M264.182 -22.8V-45.1M264.182 -22.8H286.523M264.182 -45.1V-67.4M264.182 -45.1H286.523M264.182 -67.4V-89.7M264.182 -67.4H286.523M264.182 -89.7V-112M264.182 -89.7H286.523M264.182 -112H286.523M286.523 334V311.7M286.523 334H308.864M286.523 311.7V289.4M286.523 311.7H308.864M286.523 289.4V267.1M286.523 289.4H308.864M286.523 267.1H308.864M286.523 267.1V155.6M286.523 155.6V133.3M286.523 155.6H308.864M286.523 133.3V111M286.523 133.3H308.864M286.523 111V88.7M286.523 111H308.864M286.523 88.7V66.4M286.523 88.7H308.864M286.523 66.4V44.1M286.523 66.4H308.864M286.523 44.1V21.8M286.523 44.1H308.864M286.523 21.8V-0.500011M286.523 21.8H308.864M286.523 -0.500011V-22.8M286.523 -0.500011H308.864M286.523 -22.8V-45.1M286.523 -22.8H308.864M286.523 -45.1V-67.4M286.523 -45.1H308.864M286.523 -67.4V-89.7M286.523 -67.4H308.864M286.523 -89.7V-112M286.523 -89.7H308.864M286.523 -112H308.864M308.864 334V311.7M308.864 334H331.205M308.864 311.7V289.4M308.864 311.7H331.205M308.864 289.4V267.1M308.864 289.4H331.205M308.864 267.1H331.205M308.864 267.1V155.6M308.864 155.6V133.3M308.864 155.6H331.205M308.864 133.3V111M308.864 133.3H331.205M308.864 111V88.7M308.864 111H331.205M308.864 88.7V66.4M308.864 88.7H331.205M308.864 66.4V44.1M308.864 66.4H331.205M308.864 44.1V21.8M308.864 44.1H331.205M308.864 21.8V-0.500011M308.864 21.8H331.205M308.864 -0.500011V-22.8M308.864 -0.500011H331.205M308.864 -22.8V-45.1M308.864 -22.8H331.205M308.864 -45.1V-67.4M308.864 -45.1H331.205M308.864 -67.4V-89.7M308.864 -67.4H331.205M308.864 -89.7V-112M308.864 -89.7H331.205M308.864 -112H331.205M331.205 334V311.7M331.205 334H353.545M331.205 311.7V289.4M331.205 311.7H353.545M331.205 289.4V267.1M331.205 289.4H353.545M331.205 267.1H353.545M331.205 267.1V155.6M331.205 155.6V133.3M331.205 155.6H353.545M331.205 133.3V111M331.205 133.3H353.545M331.205 111V88.7M331.205 111H353.545M331.205 88.7V66.4M331.205 88.7H353.545M331.205 66.4V44.1M331.205 66.4H353.545M331.205 44.1V21.8M331.205 44.1H353.545M331.205 21.8V-0.500011M331.205 21.8H353.545M331.205 -0.500011V-22.8M331.205 -0.500011H353.545M331.205 -22.8V-45.1M331.205 -22.8H353.545M331.205 -45.1V-67.4M331.205 -45.1H353.545M331.205 -67.4V-89.7M331.205 -67.4H353.545M331.205 -89.7V-112M331.205 -89.7H353.545M331.205 -112H353.545M353.545 334V311.7M353.545 334H375.886M353.545 311.7V289.4M353.545 311.7H375.886M353.545 289.4V267.1M353.545 289.4H375.886M353.545 267.1H375.886M353.545 267.1V155.6M353.545 155.6V133.3M353.545 155.6H375.886M353.545 133.3V111M353.545 133.3H375.886M353.545 111V88.7M353.545 111H375.886M353.545 88.7V66.4M353.545 88.7H375.886M353.545 66.4V44.1M353.545 66.4H375.886M353.545 44.1V21.8M353.545 44.1H375.886M353.545 21.8V-0.500011M353.545 21.8H375.886M353.545 -0.500011V-22.8M353.545 -0.500011H375.886M353.545 -22.8V-45.1M353.545 -22.8H375.886M353.545 -45.1V-67.4M353.545 -45.1H375.886M353.545 -67.4V-89.7M353.545 -67.4H375.886M353.545 -89.7V-112M353.545 -89.7H375.886M353.545 -112H375.886M375.886 334V311.7M375.886 334H398.227M375.886 311.7V289.4M375.886 311.7H398.227M375.886 289.4V267.1M375.886 289.4H398.227M375.886 267.1H398.227M375.886 267.1V155.6M375.886 155.6V133.3M375.886 155.6H398.227M375.886 133.3V111M375.886 133.3H398.227M375.886 111V88.7M375.886 111H398.227M375.886 88.7V66.4M375.886 88.7H398.227M375.886 66.4V44.1M375.886 66.4H398.227M375.886 44.1V21.8M375.886 44.1H398.227M375.886 21.8V-0.500011M375.886 21.8H398.227M375.886 -0.500011V-22.8M375.886 -0.500011H398.227M375.886 -22.8V-45.1M375.886 -22.8H398.227M375.886 -45.1V-67.4M375.886 -45.1H398.227M375.886 -67.4V-89.7M375.886 -67.4H398.227M375.886 -89.7V-112M375.886 -89.7H398.227M375.886 -112H398.227M398.227 334V311.7M398.227 334H420.568M398.227 311.7V289.4M398.227 311.7H420.568M398.227 289.4V267.1M398.227 289.4H420.568M398.227 267.1H420.568M398.227 267.1V200.2M398.227 200.2V177.9M398.227 200.2H420.568M398.227 177.9V155.6M398.227 177.9H420.568M398.227 155.6V133.3M398.227 155.6H420.568M398.227 133.3V111M398.227 133.3H420.568M398.227 111V88.7M398.227 111H420.568M398.227 88.7V66.4M398.227 88.7H420.568M398.227 66.4V44.1M398.227 66.4H420.568M398.227 44.1V21.8M398.227 44.1H420.568M398.227 21.8V-0.500011M398.227 21.8H420.568M398.227 -0.500011V-22.8M398.227 -0.500011H420.568M398.227 -22.8V-45.1M398.227 -22.8H420.568M398.227 -45.1V-67.4M398.227 -45.1H420.568M398.227 -67.4V-89.7M398.227 -67.4H420.568M398.227 -89.7V-112M398.227 -89.7H420.568M398.227 -112H420.568M420.568 334V311.7M420.568 334H442.909M420.568 311.7V289.4M420.568 311.7H442.909M420.568 289.4V267.1M420.568 289.4H442.909M420.568 267.1V244.8M420.568 267.1H442.909M420.568 244.8V222.5M420.568 244.8H442.909M420.568 222.5V200.2M420.568 222.5H442.909M420.568 200.2V177.9M420.568 200.2H442.909M420.568 177.9V155.6M420.568 177.9H442.909M420.568 155.6V133.3M420.568 155.6H442.909M420.568 133.3V111M420.568 133.3H442.909M420.568 111V88.7M420.568 111H442.909M420.568 88.7V66.4M420.568 88.7H442.909M420.568 66.4V44.1M420.568 66.4H442.909M420.568 44.1V21.8M420.568 44.1H442.909M420.568 21.8V-0.500011M420.568 21.8H442.909M420.568 -0.500011V-22.8M420.568 -0.500011H442.909M420.568 -22.8V-45.1M420.568 -22.8H442.909M420.568 -45.1V-67.4M420.568 -45.1H442.909M420.568 -67.4V-89.7M420.568 -67.4H442.909M420.568 -89.7V-112M420.568 -89.7H442.909M420.568 -112H442.909M442.909 334V311.7M442.909 334H465.25M442.909 311.7V289.4M442.909 311.7H465.25M442.909 289.4V267.1M442.909 289.4H465.25M442.909 267.1V244.8M442.909 267.1H465.25M442.909 244.8V222.5M442.909 244.8H465.25M442.909 222.5V200.2M442.909 222.5H465.25M442.909 200.2V177.9M442.909 200.2H465.25M442.909 177.9V155.6M442.909 177.9H465.25M442.909 155.6V133.3M442.909 155.6H465.25M442.909 133.3V111M442.909 133.3H465.25M442.909 111V88.7M442.909 111H465.25M442.909 88.7V66.4M442.909 88.7H465.25M442.909 66.4V44.1M442.909 66.4H465.25M442.909 44.1V21.8M442.909 44.1H465.25M442.909 21.8V-0.500011M442.909 21.8H465.25M442.909 -0.500011V-22.8M442.909 -0.500011H465.25M442.909 -22.8V-45.1M442.909 -22.8H465.25M442.909 -45.1V-67.4M442.909 -45.1H465.25M442.909 -67.4V-89.7M442.909 -67.4H465.25M442.909 -89.7V-112M442.909 -89.7H465.25M442.909 -112H465.25M465.25 334V311.7M465.25 334H487.591M465.25 311.7V289.4M465.25 311.7H487.591M465.25 289.4V267.1M465.25 289.4H487.591M465.25 267.1V244.8M465.25 267.1H487.591M465.25 244.8V222.5M465.25 244.8H487.591M465.25 222.5V200.2M465.25 222.5H487.591M465.25 200.2V177.9M465.25 200.2H487.591M465.25 177.9V155.6M465.25 177.9H487.591M465.25 155.6V133.3M465.25 155.6H487.591M465.25 133.3V111M465.25 133.3H487.591M465.25 111V88.7M465.25 111H487.591M465.25 88.7V66.4M465.25 88.7H487.591M465.25 66.4V44.1M465.25 66.4H487.591M465.25 44.1V21.8M465.25 44.1H487.591M465.25 21.8V-0.500011M465.25 21.8H487.591M465.25 -0.500011V-22.8M465.25 -0.500011H487.591M465.25 -22.8V-45.1M465.25 -22.8H487.591M465.25 -45.1V-67.4M465.25 -45.1H487.591M465.25 -67.4V-89.7M465.25 -67.4H487.591M465.25 -89.7V-112M465.25 -89.7H487.591M465.25 -112H487.591M487.591 334V311.7M487.591 334H509.932M487.591 311.7V289.4M487.591 311.7H509.932M487.591 289.4V267.1M487.591 289.4H509.932M487.591 267.1V244.8M487.591 267.1H509.932M487.591 244.8V222.5M487.591 244.8H509.932M487.591 222.5V200.2M487.591 222.5H509.932M487.591 200.2V177.9M487.591 200.2H509.932M487.591 177.9V155.6M487.591 177.9H509.932M487.591 155.6V133.3M487.591 155.6H509.932M487.591 133.3V111M487.591 133.3H509.932M487.591 111V88.7M487.591 111H509.932M487.591 88.7V66.4M487.591 88.7H509.932M487.591 66.4V44.1M487.591 66.4H509.932M487.591 44.1V21.8M487.591 44.1H509.932M487.591 21.8V-0.500011M487.591 21.8H509.932M487.591 -0.500011V-22.8M487.591 -0.500011H509.932M487.591 -22.8V-45.1M487.591 -22.8H509.932M487.591 -45.1V-67.4M487.591 -45.1H509.932M487.591 -67.4V-89.7M487.591 -67.4H509.932M487.591 -89.7V-112M487.591 -89.7H509.932M487.591 -112H509.932M509.932 334V311.7M509.932 334H532.273M509.932 311.7V289.4M509.932 311.7H532.273M509.932 289.4V267.1M509.932 289.4H532.273M509.932 267.1V244.8M509.932 267.1H532.273M509.932 244.8V222.5M509.932 244.8H532.273M509.932 222.5V200.2M509.932 222.5H532.273M509.932 200.2V177.9M509.932 200.2H532.273M509.932 177.9V155.6M509.932 177.9H532.273M509.932 155.6V133.3M509.932 155.6H532.273M509.932 133.3V111M509.932 133.3H532.273M509.932 111V88.7M509.932 111H532.273M509.932 88.7V66.4M509.932 88.7H532.273M509.932 66.4V44.1M509.932 66.4H532.273M509.932 44.1V21.8M509.932 44.1H532.273M509.932 21.8V-0.500011M509.932 21.8H532.273M509.932 -0.500011V-22.8M509.932 -0.500011H532.273M509.932 -22.8V-45.1M509.932 -22.8H532.273M509.932 -45.1V-67.4M509.932 -45.1H532.273M509.932 -67.4V-89.7M509.932 -67.4H532.273M509.932 -89.7V-112M509.932 -89.7H532.273M509.932 -112H532.273M532.273 334V311.7M532.273 334H554.614M532.273 311.7V289.4M532.273 311.7H554.614M532.273 289.4V267.1M532.273 289.4H554.614M532.273 267.1V244.8M532.273 267.1H554.614M532.273 244.8V222.5M532.273 244.8H554.614M532.273 222.5V200.2M532.273 222.5H554.614M532.273 200.2V177.9M532.273 200.2H554.614M532.273 177.9V155.6M532.273 177.9H554.614M532.273 155.6V133.3M532.273 155.6H554.614M532.273 133.3V111M532.273 133.3H554.614M532.273 111V88.7M532.273 111H554.614M532.273 88.7V66.4M532.273 88.7H554.614M532.273 66.4V44.1M532.273 66.4H554.614M532.273 44.1V21.8M532.273 44.1H554.614M532.273 21.8V-0.500011M532.273 21.8H554.614M532.273 -0.500011V-22.8M532.273 -0.500011H554.614M532.273 -22.8V-45.1M532.273 -22.8H554.614M532.273 -45.1V-67.4M532.273 -45.1H554.614M532.273 -67.4V-89.7M532.273 -67.4H554.614M532.273 -89.7V-112M532.273 -89.7H554.614M532.273 -112H554.614M554.614 334V311.7M554.614 334H576.955M554.614 311.7V289.4M554.614 311.7H576.955M554.614 289.4V267.1M554.614 289.4H576.955M554.614 267.1V244.8M554.614 267.1H576.955M554.614 244.8V222.5M554.614 244.8H576.955M554.614 222.5V200.2M554.614 222.5H576.955M554.614 200.2V177.9M554.614 200.2H576.955M554.614 177.9H576.955M554.614 177.9V155.6M554.614 155.6V133.3M554.614 155.6H576.955M554.614 133.3V111M554.614 133.3H576.955M554.614 111V88.7M554.614 111H576.955M554.614 88.7V66.4M554.614 88.7H576.955M554.614 66.4V44.1M554.614 66.4H576.955M554.614 44.1V21.8M554.614 44.1H576.955M554.614 21.8V-0.500011M554.614 21.8H576.955M554.614 -0.500011V-22.8M554.614 -0.500011H576.955M554.614 -22.8V-45.1M554.614 -22.8H576.955M554.614 -45.1V-67.4M554.614 -45.1H576.955M554.614 -67.4V-89.7M554.614 -67.4H576.955M554.614 -89.7V-112M554.614 -89.7H576.955M554.614 -112H576.955M576.955 334V311.7M576.955 334H599.295M576.955 311.7V289.4M576.955 311.7H599.295M576.955 289.4V267.1M576.955 289.4H599.295M576.955 267.1V244.8M576.955 267.1H599.295M576.955 244.8V222.5M576.955 244.8H599.295M576.955 222.5V200.2M576.955 222.5H599.295M576.955 200.2V177.9M576.955 200.2H599.295M576.955 177.9V155.6M576.955 177.9H599.295M576.955 155.6V133.3M576.955 155.6H599.295M576.955 133.3V111M576.955 133.3H599.295M576.955 111V88.7M576.955 111H599.295M576.955 88.7V66.4M576.955 88.7H599.295M576.955 66.4V44.1M576.955 66.4H599.295M576.955 44.1V21.8M576.955 44.1H599.295M576.955 21.8V-0.500011M576.955 21.8H599.295M576.955 -0.500011V-22.8M576.955 -0.500011H599.295M576.955 -22.8V-45.1M576.955 -22.8H599.295M576.955 -45.1V-67.4M576.955 -45.1H599.295M576.955 -67.4V-89.7M576.955 -67.4H599.295M576.955 -89.7V-112M576.955 -89.7H599.295M576.955 -112H599.295M599.295 334V311.7M599.295 334H621.636M599.295 311.7V289.4M599.295 311.7H621.636M599.295 289.4V267.1M599.295 289.4H621.636M599.295 267.1V244.8M599.295 267.1H621.636M599.295 244.8V222.5M599.295 244.8H621.636M599.295 222.5V200.2M599.295 222.5H621.636M599.295 200.2V177.9M599.295 200.2H621.636M599.295 177.9V155.6M599.295 177.9H621.636M599.295 155.6V133.3M599.295 155.6H621.636M599.295 133.3V111M599.295 133.3H621.636M599.295 111V88.7M599.295 111H621.636M599.295 88.7V66.4M599.295 88.7H621.636M599.295 66.4V44.1M599.295 66.4H621.636M599.295 44.1V21.8M599.295 44.1H621.636M599.295 21.8V-0.500011M599.295 21.8H621.636M599.295 -0.500011V-22.8M599.295 -0.500011H621.636M599.295 -22.8V-45.1M599.295 -22.8H621.636M599.295 -45.1V-67.4M599.295 -45.1H621.636M599.295 -67.4V-89.7M599.295 -67.4H621.636M599.295 -89.7V-112M599.295 -89.7H621.636M599.295 -112H621.636M621.636 334V311.7M621.636 334H643.977M621.636 311.7V289.4M621.636 311.7H643.977M621.636 289.4V267.1M621.636 289.4H643.977M621.636 267.1V244.8M621.636 267.1H643.977M621.636 244.8V222.5M621.636 244.8H643.977M621.636 222.5V200.2M621.636 222.5H643.977M621.636 200.2V177.9M621.636 200.2H643.977M621.636 177.9V155.6M621.636 177.9H643.977M621.636 155.6V133.3M621.636 155.6H643.977M621.636 133.3V111M621.636 133.3H643.977M621.636 111V88.7M621.636 111H643.977M621.636 88.7V66.4M621.636 88.7H643.977M621.636 66.4V44.1M621.636 66.4H643.977M621.636 44.1V21.8M621.636 44.1H643.977M621.636 21.8V-0.500011M621.636 21.8H643.977M621.636 -0.500011V-22.8M621.636 -0.500011H643.977M621.636 -22.8V-45.1M621.636 -22.8H643.977M621.636 -45.1V-67.4M621.636 -45.1H643.977M621.636 -67.4V-89.7M621.636 -67.4H643.977M621.636 -89.7V-112M621.636 -89.7H643.977M621.636 -112H643.977M643.977 334V311.7M643.977 334H666.318M643.977 311.7V289.4M643.977 311.7H666.318M643.977 289.4V267.1M643.977 289.4H666.318M643.977 267.1V244.8M643.977 267.1H666.318M643.977 244.8V222.5M643.977 244.8H666.318M643.977 222.5V200.2M643.977 222.5H666.318M643.977 200.2V177.9M643.977 200.2H666.318M643.977 177.9V155.6M643.977 177.9H666.318M643.977 155.6V133.3M643.977 155.6H666.318M643.977 133.3V111M643.977 133.3H666.318M643.977 111V88.7M643.977 111H666.318M643.977 88.7V66.4M643.977 88.7H666.318M643.977 66.4V44.1M643.977 66.4H666.318M643.977 44.1V21.8M643.977 44.1H666.318M643.977 21.8V-0.500011M643.977 21.8H666.318M643.977 -0.500011V-22.8M643.977 -0.500011H666.318M643.977 -22.8V-45.1M643.977 -22.8H666.318M643.977 -45.1V-67.4M643.977 -45.1H666.318M643.977 -67.4V-89.7M643.977 -67.4H666.318M643.977 -89.7V-112M643.977 -89.7H666.318M643.977 -112H666.318M666.318 334V311.7M666.318 334H688.659M666.318 311.7V289.4M666.318 311.7H688.659M666.318 289.4V267.1M666.318 289.4H688.659M666.318 267.1V244.8M666.318 267.1H688.659M666.318 244.8V222.5M666.318 244.8H688.659M666.318 222.5V200.2M666.318 222.5H688.659M666.318 200.2V177.9M666.318 200.2H688.659M666.318 177.9V155.6M666.318 177.9H688.659M666.318 155.6V133.3M666.318 155.6H688.659M666.318 133.3V111M666.318 133.3H688.659M666.318 111V88.7M666.318 111H688.659M666.318 88.7V66.4M666.318 88.7H688.659M666.318 66.4V44.1M666.318 66.4H688.659M666.318 44.1V21.8M666.318 44.1H688.659M666.318 21.8V-0.500011M666.318 21.8H688.659M666.318 -0.500011V-22.8M666.318 -0.500011H688.659M666.318 -22.8V-45.1M666.318 -22.8H688.659M666.318 -45.1V-67.4M666.318 -45.1H688.659M666.318 -67.4V-89.7M666.318 -67.4H688.659M666.318 -89.7V-112M666.318 -89.7H688.659M666.318 -112H688.659M688.659 334V311.7M688.659 334H711V311.7M688.659 311.7V289.4M688.659 311.7H711M688.659 289.4V267.1M688.659 289.4H711M688.659 267.1V244.8M688.659 267.1H711M688.659 244.8V222.5M688.659 244.8H711M688.659 222.5V200.2M688.659 222.5H711M688.659 200.2V177.9M688.659 200.2H711M688.659 177.9V155.6M688.659 177.9H711M688.659 155.6V133.3M688.659 155.6H711M688.659 133.3V111M688.659 133.3H711M688.659 111V88.7M688.659 111H711M688.659 88.7V66.4M688.659 88.7H711M688.659 66.4V44.1M688.659 66.4H711M688.659 44.1V21.8M688.659 44.1H711M688.659 21.8V-0.500011M688.659 21.8H711M688.659 -0.500011V-22.8M688.659 -0.500011H711M688.659 -22.8V-45.1M688.659 -22.8H711M688.659 -45.1V-67.4M688.659 -45.1H711M688.659 -67.4V-89.7M688.659 -67.4H711M688.659 -89.7V-112M688.659 -89.7H711M688.659 -112H711V-89.7M711 311.7V289.4M711 289.4V267.1M711 267.1V244.8M711 244.8V222.5M711 222.5V200.2M711 200.2V177.9M711 177.9V155.6M711 155.6V133.3M711 133.3V111M711 111V88.7M711 88.7V66.4M711 66.4V44.1M711 44.1V21.8M711 21.8V-0.500011M711 -0.500011V-22.8M711 -22.8V-45.1M711 -45.1V-67.4M711 -67.4V-89.7" stroke="url(#paint0_linear_600_6264)"/>
</g>
<defs>
<linearGradient id="paint0_linear_600_6264" x1="219.5" y1="42.1679" x2="219.5" y2="-22.2365" gradientUnits="userSpaceOnUse">
<stop stop-color="#363A3F" stop-opacity="0"/>
<stop offset="1" stop-color="#414345"/>
</linearGradient>
<clipPath id="clip0_600_6264">
<rect width="544" height="88" rx="44" fill="white"/>
</clipPath>
</defs>
</svg>
