<svg width="1761" height="828" viewBox="0 0 1761 828" fill="none" xmlns="http://www.w3.org/2000/svg">
<path opacity="0.12" d="M40.5 1H0.5V41M40.5 1V41M40.5 1H80.5M40.5 41H0.5M40.5 41V81M40.5 41H80.5M0.5 41V81M40.5 81H0.5M40.5 81V121M40.5 81H80.5M0.5 81V121M40.5 121H0.5M40.5 121V161M40.5 121H80.5M0.5 121V161M40.5 161H0.5M40.5 161V201M40.5 161H80.5M0.5 161V201M40.5 201H0.5M40.5 201V241M40.5 201H80.5M0.5 201V241M40.5 241H0.5M40.5 241V281M40.5 241H80.5M0.5 241V281M40.5 281H0.5M40.5 281V321M40.5 281H80.5M0.5 281V321M40.5 321H0.5M40.5 321V361M40.5 321H80.5M0.5 321V361M40.5 361H0.5M40.5 361V401M40.5 361H80.5M0.5 361V401M40.5 401H0.5M40.5 401V441M40.5 401H80.5M0.5 401V441M40.5 441H0.5M40.5 441V481M40.5 441H80.5M0.5 441V481M40.5 481H0.5M40.5 481V521M40.5 481H80.5M0.5 481V521M40.5 521H0.5M40.5 521V561M40.5 521H80.5M0.5 521V561M40.5 561H0.5M40.5 561V601M40.5 561H80.5M0.5 561V601M40.5 601H0.5M40.5 601V641M40.5 601H80.5M0.5 601V641M40.5 641H0.5M40.5 641V681M40.5 641H80.5M0.5 641V681M40.5 681H0.5M40.5 681V721M40.5 681H80.5M0.5 681V721M40.5 721H0.5M40.5 721V761M40.5 721H80.5M0.5 721V761M40.5 761H0.5M40.5 761V801M40.5 761H80.5M0.5 761V801H40.5M40.5 801H80.5M80.5 1V41M80.5 1H120.5M80.5 41V81M80.5 41H120.5M80.5 81V121M80.5 81H120.5M80.5 121V161M80.5 121H120.5M80.5 161V201M80.5 161H120.5M80.5 201V241M80.5 201H120.5M80.5 241V281M80.5 241H120.5M80.5 281V321M80.5 281H120.5M80.5 321V361M80.5 321H120.5M80.5 361V401M80.5 361H120.5M80.5 401V441M80.5 401H120.5M80.5 441V481M80.5 441H120.5M80.5 481V521M80.5 481H120.5M80.5 521V561M80.5 521H120.5M80.5 561V601M80.5 561H120.5M80.5 601V641M80.5 601H120.5M80.5 641V681M80.5 641H120.5M80.5 681V721M80.5 681H120.5M80.5 721V761M80.5 721H120.5M80.5 761V801M80.5 761H120.5M80.5 801H120.5M120.5 1V41M120.5 1H160.5M120.5 41V81M120.5 41H160.5M120.5 81V121M120.5 81H160.5M120.5 121V161M120.5 121H160.5M120.5 161V201M120.5 161H160.5M120.5 201V241M120.5 201H160.5M120.5 241V281M120.5 241H160.5M120.5 281V321M120.5 281H160.5M120.5 321V361M120.5 321H160.5M120.5 361V401M120.5 361H160.5M120.5 401V441M120.5 401H160.5M120.5 441V481M120.5 441H160.5M120.5 481V521M120.5 481H160.5M120.5 521V561M120.5 521H160.5M120.5 561V601M120.5 561H160.5M120.5 601V641M120.5 601H160.5M120.5 641V681M120.5 641H160.5M120.5 681V721M120.5 681H160.5M120.5 721V761M120.5 721H160.5M120.5 761V801M120.5 761H160.5M120.5 801H160.5M160.5 1V41M160.5 1H200.5M160.5 41V81M160.5 41H200.5M160.5 81V121M160.5 81H200.5M160.5 121V161M160.5 121H200.5M160.5 161V201M160.5 161H200.5M160.5 201V241M160.5 201H200.5M160.5 241V281M160.5 241H200.5M160.5 281V321M160.5 281H200.5M160.5 321V361M160.5 321H200.5M160.5 361V401M160.5 361H200.5M160.5 401V441M160.5 401H200.5M160.5 441V481M160.5 441H200.5M160.5 481V521M160.5 481H200.5M160.5 521V561M160.5 521H200.5M160.5 561V601M160.5 561H200.5M160.5 601V641M160.5 601H200.5M160.5 641V681M160.5 641H200.5M160.5 681V721M160.5 681H200.5M160.5 721V761M160.5 721H200.5M160.5 761V801M160.5 761H200.5M160.5 801H200.5M200.5 1V41M200.5 1H240.5M200.5 41V81M200.5 41H240.5M200.5 81V121M200.5 81H240.5M200.5 121V161M200.5 121H240.5M200.5 161V201M200.5 161H240.5M200.5 201V241M200.5 201H240.5M200.5 241V281M200.5 241H240.5M200.5 281V321M200.5 281H240.5M200.5 321V361M200.5 321H240.5M200.5 361V401M200.5 361H240.5M200.5 401V441M200.5 401H240.5M200.5 441V481M200.5 441H240.5M200.5 481V521M200.5 481H240.5M200.5 521V561M200.5 521H240.5M200.5 561V601M200.5 561H240.5M200.5 601V641M200.5 601H240.5M200.5 641V681M200.5 641H240.5M200.5 681V721M200.5 681H240.5M200.5 721V761M200.5 721H240.5M200.5 761V801M200.5 761H240.5M200.5 801H240.5M240.5 1V41M240.5 1H280.5M240.5 41V81M240.5 41H280.5M240.5 81V121M240.5 81H280.5M240.5 121V161M240.5 121H280.5M240.5 161V201M240.5 161H280.5M240.5 201V241M240.5 201H280.5M240.5 241V281M240.5 241H280.5M240.5 281V321M240.5 281H280.5M240.5 321V361M240.5 321H280.5M240.5 361V401M240.5 361H280.5M240.5 401V441M240.5 401H280.5M240.5 441V481M240.5 441H280.5M240.5 481V521M240.5 481H280.5M240.5 521V561M240.5 521H280.5M240.5 561V601M240.5 561H280.5M240.5 601V641M240.5 601H280.5M240.5 641V681M240.5 641H280.5M240.5 681V721M240.5 681H280.5M240.5 721V761M240.5 721H280.5M240.5 761V801M240.5 761H280.5M240.5 801H280.5M280.5 1V41M280.5 1H320.5M280.5 41V81M280.5 41H320.5M280.5 81V121M280.5 81H320.5M280.5 121V161M280.5 121H320.5M280.5 161V201M280.5 161H320.5M280.5 201V241M280.5 201H320.5M280.5 241V281M280.5 241H320.5M280.5 281H320.5M280.5 281V321M280.5 321V361M280.5 321H320.5M280.5 361V401M280.5 361H320.5M280.5 401V441M280.5 401H320.5M280.5 441V481M280.5 441H320.5M280.5 481V521M280.5 481H320.5M280.5 521V561M280.5 521H320.5M280.5 561V601M280.5 561H320.5M280.5 601V641M280.5 601H320.5M280.5 641V681M280.5 641H320.5M280.5 681V721M280.5 681H320.5M280.5 721V761M280.5 721H320.5M280.5 761V801M280.5 761H320.5M280.5 801H320.5M320.5 1V41M320.5 1H360.5M320.5 41V81M320.5 41H360.5M320.5 81V121M320.5 81H360.5M320.5 121V161M320.5 121H360.5M320.5 161V201M320.5 161H360.5M320.5 201V241M320.5 201H360.5M320.5 241V281M320.5 241H360.5M320.5 281V321M320.5 281H360.5M320.5 321V361M320.5 321H360.5M320.5 361V401M320.5 361H360.5M320.5 401V441M320.5 401H360.5M320.5 441V481M320.5 441H360.5M320.5 481V521M320.5 481H360.5M320.5 521V561M320.5 521C320.5 521 344.879 521 360.5 521M320.5 561V601M320.5 561H360.5M320.5 601V641M320.5 601H360.5M320.5 641V681M320.5 641H360.5M320.5 681V721M320.5 681H360.5M320.5 721V761M320.5 721H360.5M320.5 761V801M320.5 761H360.5M320.5 801H360.5M360.5 1V41M360.5 1H400.5M360.5 41V81M360.5 41H400.5M360.5 81V121M360.5 81H400.5M360.5 121V161M360.5 121H400.5M360.5 161V201M360.5 161H400.5M360.5 201V241M360.5 201H400.5M360.5 241V281M360.5 241H400.5M360.5 281V321M360.5 281H400.5M360.5 321V361M360.5 321H400.5M360.5 361V401M360.5 361H400.5M360.5 401V441M360.5 401H400.5M360.5 441V481M360.5 441H400.5M360.5 481C360.5 481 360.5 505.379 360.5 521M360.5 481H400.5M360.5 521C360.5 536.621 360.5 561 360.5 561M360.5 521C376.121 521 400.5 521 400.5 521M360.5 561V601M360.5 561H400.5M360.5 601V641M360.5 601H400.5M360.5 641V681M360.5 641H400.5M360.5 681V721M360.5 681H400.5M360.5 721V761M360.5 721H400.5M360.5 761V801M360.5 761H400.5M360.5 801H400.5M400.5 1V41M400.5 1H440.5M400.5 41V81M400.5 41H440.5M400.5 81V121M400.5 81H440.5M400.5 121V161M400.5 121H440.5M400.5 161V201M400.5 161H440.5M400.5 201V241M400.5 201H440.5M400.5 241V281M400.5 241H440.5M400.5 281V321M400.5 281H440.5M400.5 321V361M400.5 321H440.5M400.5 361V401M400.5 361H440.5M400.5 401V441M400.5 401H440.5M400.5 441V481M400.5 441H440.5M400.5 481V521M400.5 481H440.5M400.5 521V561M400.5 521H440.5M400.5 561V601M400.5 561H440.5M400.5 601V641M400.5 601H440.5M400.5 641V681M400.5 641H440.5M400.5 681V721M400.5 681H440.5M400.5 721V761M400.5 721H440.5M400.5 761V801M400.5 761H440.5M400.5 801H440.5M440.5 1V41M440.5 1H480.5M440.5 41V81M440.5 41H480.5M440.5 81V121M440.5 81H480.5M440.5 121V161M440.5 121H480.5M440.5 161V201M440.5 161H1320.5M440.5 201V241M440.5 201H1320.5M440.5 241V281M440.5 241H480.5M440.5 281V321M440.5 281H480.5M440.5 321V361M440.5 321H480.5M440.5 361V401M440.5 361H480.5M440.5 401V441M440.5 401H480.5M440.5 441V481M440.5 441H480.5M440.5 481V521M440.5 481H480.5M440.5 521V561M440.5 521H480.5M440.5 561V601M440.5 561H480.5M440.5 601V641M440.5 601H480.5M440.5 641V681M440.5 641H480.5M440.5 681V721M440.5 681H480.5M440.5 721V761M440.5 721H480.5M440.5 761V801M440.5 761H480.5M440.5 801H480.5M480.5 1V41M480.5 1H520.5M480.5 41V81M480.5 41H520.5M480.5 81V121M480.5 81H520.5M480.5 121H520.5M480.5 121V241M480.5 241V281M480.5 241H520.5M480.5 281V321M480.5 281H520.5M480.5 321V361M480.5 321H520.5M480.5 361V401M480.5 361H520.5M480.5 401V441M480.5 401H520.5M480.5 441V481M480.5 441H520.5M480.5 481V521M480.5 481H520.5M480.5 521V561M480.5 521H520.5M480.5 561V601M480.5 561H520.5M480.5 601V641M480.5 601H520.5M480.5 641V681M480.5 641H520.5M480.5 681V721M480.5 681H520.5M480.5 721V761M480.5 721H520.5M480.5 761V801M480.5 761H520.5M480.5 801H520.5M520.5 1V41M520.5 1H560.5M520.5 41V81M520.5 41H560.5M520.5 81V121M520.5 81H560.5M520.5 121H560.5M520.5 121V241M520.5 241V281M520.5 241H560.5M520.5 281V321M520.5 281H560.5M520.5 321V361M520.5 321H560.5M520.5 361V401M520.5 361H560.5M520.5 401V441M520.5 401H560.5M520.5 441V481M520.5 441H560.5M520.5 481V521M520.5 481H560.5M520.5 521V561M520.5 521H560.5M520.5 561V601M520.5 561H560.5M520.5 601V641M520.5 601H560.5M520.5 641V681M520.5 641H560.5M520.5 681V721M520.5 681H560.5M520.5 721V761M520.5 721H560.5M520.5 761V801M520.5 761H560.5M520.5 801H560.5M560.5 1V41M560.5 1H600.5M560.5 41V81M560.5 41H600.5M560.5 81V121M560.5 81H600.5M560.5 121H600.5M560.5 121V241M560.5 241V281M560.5 241H1200.5M560.5 281V321M560.5 281H1200.5M560.5 321V361M560.5 321H600.5M560.5 361V401M560.5 361H600.5M560.5 401V441M560.5 401H600.5M560.5 441V481M560.5 441H600.5M560.5 481V521M560.5 481H600.5M560.5 521V561M560.5 521H600.5M560.5 561V601M560.5 561H600.5M560.5 601V641M560.5 601H600.5M560.5 641V681M560.5 641H600.5M560.5 681V721M560.5 681H600.5M560.5 721V761M560.5 721H600.5M560.5 761V801M560.5 761H600.5M560.5 801H600.5M600.5 1V41M600.5 1H640.5M600.5 41V81M600.5 41H640.5M600.5 81V121M600.5 81H640.5M600.5 121H640.5M600.5 121V321M600.5 321V361M600.5 321H640.5M600.5 361V401M600.5 361H640.5M600.5 401V441M600.5 401H640.5M600.5 441V481M600.5 441H640.5M600.5 481V521M600.5 481H640.5M600.5 521V561M600.5 521H640.5M600.5 561V601M600.5 561H640.5M600.5 601V641M600.5 601H640.5M600.5 641V681M600.5 641H640.5M600.5 681V721M600.5 681H640.5M600.5 721V761M600.5 721H640.5M600.5 761V801M600.5 761H640.5M600.5 801H640.5M640.5 1V41M640.5 1H680.5M640.5 41V81M640.5 41H680.5M640.5 81V121M640.5 81H680.5M640.5 121H680.5M640.5 121V321M640.5 321V361M640.5 321H680.5M640.5 361V401M640.5 361H680.5M640.5 401V441M640.5 401H680.5M640.5 441V481M640.5 441H680.5M640.5 481V521M640.5 481H680.5M640.5 521V561M640.5 521H680.5M640.5 561V601M640.5 561H680.5M640.5 601V641M640.5 601H680.5M640.5 641V681M640.5 641H680.5M640.5 681V721M640.5 681H680.5M640.5 721V761M640.5 721H680.5M640.5 761V801M640.5 761H680.5M640.5 801H680.5M680.5 1V41M680.5 1H720.5M680.5 41V81M680.5 41H720.5M680.5 81V121M680.5 81H720.5M680.5 121H720.5M680.5 121V321M680.5 321V361M680.5 321H720.5M680.5 361V401M680.5 361H720.5M680.5 401V441M680.5 401H720.5M680.5 441V481M680.5 441H720.5M680.5 481V521M680.5 481H720.5M680.5 521V561M680.5 521H720.5M680.5 561V601M680.5 561H720.5M680.5 601V641M680.5 601H720.5M680.5 641V681M680.5 641H720.5M680.5 681V721M680.5 681H720.5M680.5 721V761M680.5 721H720.5M680.5 761V801M680.5 761H720.5M680.5 801H720.5M720.5 1V41M720.5 1H760.5M720.5 41V81M720.5 41H760.5M720.5 81V121M720.5 81H760.5M720.5 121H760.5M720.5 121V321M720.5 321V361M720.5 321H760.5M720.5 361V401M720.5 361H760.5M720.5 401V441M720.5 401H760.5M720.5 441V481M720.5 441H760.5M720.5 481V521M720.5 481H760.5M720.5 521V561M720.5 521H760.5M720.5 561V601M720.5 561H760.5M720.5 601V641M720.5 601H760.5M720.5 641V681M720.5 641H760.5M720.5 681V721M720.5 681H760.5M720.5 721V761M720.5 721H760.5M720.5 761V801M720.5 761H760.5M720.5 801H760.5M760.5 1V41M760.5 1H800.5M760.5 41V81M760.5 41H800.5M760.5 81V121M760.5 81H800.5M760.5 121H800.5M760.5 121V321M760.5 321V361M760.5 321H800.5M760.5 361V401M760.5 361H800.5M760.5 401V441M760.5 401H800.5M760.5 441V481M760.5 441H800.5M760.5 481V521M760.5 481H800.5M760.5 521V561M760.5 521H800.5M760.5 561V601M760.5 561H800.5M760.5 601V641M760.5 601H800.5M760.5 641V681M760.5 641H800.5M760.5 681V721M760.5 681H800.5M760.5 721V761M760.5 721H800.5M760.5 761V801M760.5 761H800.5M760.5 801H800.5M800.5 1V41M800.5 1H840.5M800.5 41V81M800.5 41H840.5M800.5 81V121M800.5 81H840.5M800.5 121H840.5M800.5 121V321M800.5 321V361M800.5 321H840.5M800.5 361V401M800.5 361H840.5M800.5 401V441M800.5 401H840.5M800.5 441V481M800.5 441H840.5M800.5 481V521M800.5 481H840.5M800.5 521V561M800.5 521H840.5M800.5 561V601M800.5 561H840.5M800.5 601V641M800.5 601H840.5M800.5 641V681M800.5 641H840.5M800.5 681V721M800.5 681H840.5M800.5 721V761M800.5 721H840.5M800.5 761V801M800.5 761H840.5M800.5 801H840.5M840.5 1V41M840.5 1H880.5M840.5 41H880.5M840.5 41V81M840.5 81V121M840.5 81H880.5M840.5 121H880.5M840.5 121V321M840.5 321V361M840.5 321H880.5M840.5 361V401M840.5 361H880.5M840.5 401V441M840.5 401H880.5M840.5 441V481M840.5 441H880.5M840.5 481V521M840.5 481H880.5M840.5 521V561M840.5 521H880.5M840.5 561V601M840.5 561H880.5M840.5 601V641M840.5 601H880.5M840.5 641V681M840.5 641H880.5M840.5 681V721M840.5 681H880.5M840.5 721V761M840.5 721H880.5M840.5 761V801M840.5 761H880.5M840.5 801H880.5M880.5 1V41M880.5 1H920.5M880.5 41H920.5M880.5 41V81M880.5 81V121M880.5 81H920.5M880.5 121H920.5M880.5 121V321M880.5 321V361M880.5 321H920.5M880.5 361V401M880.5 361H920.5M880.5 401V441M880.5 401H920.5M880.5 441V481M880.5 441H920.5M880.5 481V521M880.5 481H920.5M880.5 521V561M880.5 521H920.5M880.5 561V601M880.5 561H920.5M880.5 601V641M880.5 601H920.5M880.5 641V681M880.5 641H920.5M880.5 681V721M880.5 681H920.5M880.5 721V761M880.5 721H920.5M880.5 761V801M880.5 761H920.5M880.5 801H920.5M920.5 1V41M920.5 1H960.5M920.5 41H960.5M920.5 41V81M920.5 81V121M920.5 81H960.5M920.5 121H960.5M920.5 121V321M920.5 321V361M920.5 321H960.5M920.5 361V401M920.5 361H960.5M920.5 401V441M920.5 401H960.5M920.5 441V481M920.5 441H960.5M920.5 481V521M920.5 481H960.5M920.5 521V561M920.5 521H960.5M920.5 561V601M920.5 561H960.5M920.5 601V641M920.5 601H960.5M920.5 641V681M920.5 641H960.5M920.5 681V721M920.5 681H960.5M920.5 721V761M920.5 721H960.5M920.5 761V801M920.5 761H960.5M920.5 801H960.5M960.5 1V41M960.5 1H1000.5M960.5 41H1000.5M960.5 41V81M960.5 81V121M960.5 81H1000.5M960.5 121H1000.5M960.5 121V321M960.5 321V361M960.5 321H1000.5M960.5 361V401M960.5 361H1000.5M960.5 401V441M960.5 401H1000.5M960.5 441V481M960.5 441H1000.5M960.5 481V521M960.5 481H1000.5M960.5 521V561M960.5 521H1000.5M960.5 561V601M960.5 561H1000.5M960.5 601V641M960.5 601H1000.5M960.5 641V681M960.5 641H1000.5M960.5 681V721M960.5 681H1000.5M960.5 721V761M960.5 721H1000.5M960.5 761V801M960.5 761H1000.5M960.5 801H1000.5M1000.5 1V41M1000.5 1H1040.5M1000.5 41V81M1000.5 41H1040.5M1000.5 81V121M1000.5 81H1040.5M1000.5 121H1040.5M1000.5 121V321M1000.5 321V361M1000.5 321H1040.5M1000.5 361V401M1000.5 361H1040.5M1000.5 401V441M1000.5 401H1040.5M1000.5 441V481M1000.5 441H1040.5M1000.5 481V521M1000.5 481H1040.5M1000.5 521V561M1000.5 521H1040.5M1000.5 561V601M1000.5 561H1040.5M1000.5 601V641M1000.5 601H1040.5M1000.5 641V681M1000.5 641H1040.5M1000.5 681V721M1000.5 681H1040.5M1000.5 721V761M1000.5 721H1040.5M1000.5 761V801M1000.5 761H1040.5M1000.5 801H1040.5M1040.5 1V41M1040.5 1H1080.5M1040.5 41V81M1040.5 41H1080.5M1040.5 81V121M1040.5 81H1080.5M1040.5 121H1080.5M1040.5 121V321M1040.5 321V361M1040.5 321H1080.5M1040.5 361V401M1040.5 361H1080.5M1040.5 401V441M1040.5 401H1080.5M1040.5 441V481M1040.5 441H1080.5M1040.5 481V521M1040.5 481H1080.5M1040.5 521V561M1040.5 521H1080.5M1040.5 561V601M1040.5 561H1080.5M1040.5 601V641M1040.5 601H1080.5M1040.5 641V681M1040.5 641H1080.5M1040.5 681V721M1040.5 681H1080.5M1040.5 721V761M1040.5 721H1080.5M1040.5 761V801M1040.5 761H1080.5M1040.5 801H1080.5M1080.5 1V41M1080.5 1H1120.5M1080.5 41V81M1080.5 41H1120.5M1080.5 81V121M1080.5 81H1120.5M1080.5 121H1120.5M1080.5 121V321M1080.5 321V361M1080.5 321H1120.5M1080.5 361V401M1080.5 361H1120.5M1080.5 401V441M1080.5 401H1120.5M1080.5 441V481M1080.5 441H1120.5M1080.5 481V521M1080.5 481H1120.5M1080.5 521V561M1080.5 521H1120.5M1080.5 561V601M1080.5 561H1120.5M1080.5 601V641M1080.5 601H1120.5M1080.5 641V681M1080.5 641H1120.5M1080.5 681V721M1080.5 681H1120.5M1080.5 721V761M1080.5 721H1120.5M1080.5 761V801M1080.5 761H1120.5M1080.5 801H1120.5M1120.5 1V41M1120.5 1H1160.5M1120.5 41V81M1120.5 41H1160.5M1120.5 81V121M1120.5 81H1160.5M1120.5 121H1160.5M1120.5 121V321M1120.5 321V361M1120.5 321H1160.5M1120.5 361V401M1120.5 361H1160.5M1120.5 401V441M1120.5 401H1160.5M1120.5 441V481M1120.5 441H1160.5M1120.5 481V521M1120.5 481H1160.5M1120.5 521V561M1120.5 521H1160.5M1120.5 561V601M1120.5 561H1160.5M1120.5 601V641M1120.5 601H1160.5M1120.5 641V681M1120.5 641H1160.5M1120.5 681V721M1120.5 681H1160.5M1120.5 721V761M1120.5 721H1160.5M1120.5 761V801M1120.5 761H1160.5M1120.5 801H1160.5M1160.5 1V41M1160.5 1H1200.5M1160.5 41V81M1160.5 41H1200.5M1160.5 81V121M1160.5 81H1200.5M1160.5 121H1200.5M1160.5 121V321M1160.5 321V361M1160.5 321H1200.5M1160.5 361V401M1160.5 361H1200.5M1160.5 401V441M1160.5 401H1200.5M1160.5 441V481M1160.5 441H1200.5M1160.5 481V521M1160.5 481H1200.5M1160.5 521V561M1160.5 521H1200.5M1160.5 561V601M1160.5 561H1200.5M1160.5 601V641M1160.5 601H1200.5M1160.5 641V681M1160.5 641H1200.5M1160.5 681V721M1160.5 681H1200.5M1160.5 721V761M1160.5 721H1200.5M1160.5 761V801M1160.5 761H1200.5M1160.5 801H1200.5M1200.5 1V41M1200.5 1H1240.5M1200.5 41V81M1200.5 41H1240.5M1200.5 81V121M1200.5 81H1240.5M1200.5 121H1240.5M1200.5 121V241M1200.5 241V281M1200.5 241H1240.5M1200.5 281V321M1200.5 281H1240.5M1200.5 321V361M1200.5 321H1240.5M1200.5 361V401M1200.5 361H1240.5M1200.5 401V441M1200.5 401H1240.5M1200.5 441V481M1200.5 441H1240.5M1200.5 481V521M1200.5 481H1240.5M1200.5 521V561M1200.5 521H1240.5M1200.5 561V601M1200.5 561H1240.5M1200.5 601V641M1200.5 601H1240.5M1200.5 641V681M1200.5 641H1240.5M1200.5 681V721M1200.5 681H1240.5M1200.5 721V761M1200.5 721H1240.5M1200.5 761V801M1200.5 761H1240.5M1200.5 801H1240.5M1240.5 1V41M1240.5 1H1280.5M1240.5 41V81M1240.5 41H1280.5M1240.5 81V121M1240.5 81H1280.5M1240.5 121H1280.5M1240.5 121V241M1240.5 241V281M1240.5 241H1280.5M1240.5 281V321M1240.5 281H1280.5M1240.5 321V361M1240.5 321H1280.5M1240.5 361V401M1240.5 361H1280.5M1240.5 401V441M1240.5 401H1280.5M1240.5 441V481M1240.5 441H1280.5M1240.5 481V521M1240.5 481H1280.5M1240.5 521V561M1240.5 521H1280.5M1240.5 561V601M1240.5 561H1280.5M1240.5 601V641M1240.5 601H1280.5M1240.5 641V681M1240.5 641H1280.5M1240.5 681V721M1240.5 681H1280.5M1240.5 721V761M1240.5 721H1280.5M1240.5 761V801M1240.5 761H1280.5M1240.5 801H1280.5M1280.5 1V41M1280.5 1H1320.5M1280.5 41V81M1280.5 41H1320.5M1280.5 81V121M1280.5 81H1320.5M1280.5 121H1320.5M1280.5 121V241M1280.5 241V281M1280.5 241H1320.5M1280.5 281V321M1280.5 281H1320.5M1280.5 321V361M1280.5 321H1320.5M1280.5 361V401M1280.5 361H1320.5M1280.5 401V441M1280.5 401H1320.5M1280.5 441V481M1280.5 441H1320.5M1280.5 481V521M1280.5 481H1320.5M1280.5 521V561M1280.5 521H1320.5M1280.5 561V601M1280.5 561H1320.5M1280.5 601V641M1280.5 601H1320.5M1280.5 641V681M1280.5 641H1320.5M1280.5 681V721M1280.5 681H1320.5M1280.5 721V761M1280.5 721H1320.5M1280.5 761V801M1280.5 761H1320.5M1280.5 801H1320.5M1320.5 1V41M1320.5 1H1360.5M1320.5 41V81M1320.5 41H1360.5M1320.5 81V121M1320.5 81H1360.5M1320.5 121V161M1320.5 121H1360.5M1320.5 161V201M1320.5 161H1360.5M1320.5 201V241M1320.5 201H1360.5M1320.5 241V281M1320.5 241H1360.5M1320.5 281V321M1320.5 281H1360.5M1320.5 321V361M1320.5 321H1360.5M1320.5 361V401M1320.5 361H1360.5M1320.5 401V441M1320.5 401H1360.5M1320.5 441V481M1320.5 441H1360.5M1320.5 481V521M1320.5 481H1360.5M1320.5 521V561M1320.5 521H1360.5M1320.5 561V601M1320.5 561H1360.5M1320.5 601V641M1320.5 601H1360.5M1320.5 641V681M1320.5 641H1360.5M1320.5 681V721M1320.5 681H1360.5M1320.5 721V761M1320.5 721H1360.5M1320.5 761V801M1320.5 761H1360.5M1320.5 801H1360.5M1360.5 1V41M1360.5 1H1400.5M1360.5 41V81M1360.5 41H1400.5M1360.5 81V121M1360.5 81H1400.5M1360.5 121V161M1360.5 121H1400.5M1360.5 161V201M1360.5 161H1400.5M1360.5 201V241M1360.5 201H1400.5M1360.5 241V281M1360.5 241H1400.5M1360.5 281V321M1360.5 281H1400.5M1360.5 321V361M1360.5 321H1400.5M1360.5 361V401M1360.5 361H1400.5M1360.5 401V441M1360.5 401H1400.5M1360.5 441V481M1360.5 441H1400.5M1360.5 481V521M1360.5 481H1400.5M1360.5 521V561M1360.5 521H1400.5M1360.5 561V601M1360.5 561H1400.5M1360.5 601V641M1360.5 601H1400.5M1360.5 641V681M1360.5 641H1400.5M1360.5 681V721M1360.5 681H1400.5M1360.5 721V761M1360.5 721H1400.5M1360.5 761V801M1360.5 761H1400.5M1360.5 801H1400.5M1400.5 1V41M1400.5 1H1440.5M1400.5 41V81M1400.5 41H1440.5M1400.5 81V121M1400.5 81H1440.5M1400.5 121V161M1400.5 121H1440.5M1400.5 161V201M1400.5 161H1440.5M1400.5 201V241M1400.5 201H1440.5M1400.5 241V281M1400.5 241H1440.5M1400.5 281V321M1400.5 281H1440.5M1400.5 321V361M1400.5 321H1440.5M1400.5 361V401M1400.5 361H1440.5M1400.5 401V441M1400.5 401H1440.5M1400.5 441V481M1400.5 441H1440.5M1400.5 481V521M1400.5 481H1440.5M1400.5 521V561M1400.5 521H1440.5M1400.5 561V601M1400.5 561H1440.5M1400.5 601V641M1400.5 601H1440.5M1400.5 641V681M1400.5 641H1440.5M1400.5 681V721M1400.5 681H1440.5M1400.5 721V761M1400.5 721H1440.5M1400.5 761V801M1400.5 761H1440.5M1400.5 801H1440.5M1440.5 1V41M1440.5 1H1480.5M1440.5 41V81M1440.5 41H1480.5M1440.5 81V121M1440.5 81H1480.5M1440.5 121V161M1440.5 121H1480.5M1440.5 161V201M1440.5 161H1480.5M1440.5 201V241M1440.5 201H1480.5M1440.5 241V281M1440.5 241H1480.5M1440.5 281V321M1440.5 281H1480.5M1440.5 321V361M1440.5 321H1480.5M1440.5 361V401M1440.5 361H1480.5M1440.5 401V441M1440.5 401H1480.5M1440.5 441V481M1440.5 441H1480.5M1440.5 481V521M1440.5 481H1480.5M1440.5 521V561M1440.5 521H1480.5M1440.5 561V601M1440.5 561H1480.5M1440.5 601V641M1440.5 601H1480.5M1440.5 641V681M1440.5 641H1480.5M1440.5 681V721M1440.5 681H1480.5M1440.5 721V761M1440.5 721H1480.5M1440.5 761V801M1440.5 761H1480.5M1440.5 801H1480.5M1480.5 1V41M1480.5 1H1520.5M1480.5 41V81M1480.5 41H1520.5M1480.5 81V121M1480.5 81H1520.5M1480.5 121V161M1480.5 121H1520.5M1480.5 161V201M1480.5 161H1520.5M1480.5 201V241M1480.5 201H1520.5M1480.5 241V281M1480.5 241H1520.5M1480.5 281H1520.5M1480.5 281V321M1480.5 321V361M1480.5 321H1520.5M1480.5 361V401M1480.5 361H1520.5M1480.5 401V441M1480.5 401H1520.5M1480.5 441V481M1480.5 441H1520.5M1480.5 481V521M1480.5 481H1520.5M1480.5 521V561M1480.5 521H1520.5M1480.5 561V601M1480.5 561H1520.5M1480.5 601V641M1480.5 601H1520.5M1480.5 641V681M1480.5 641H1520.5M1480.5 681V721M1480.5 681H1520.5M1480.5 721V761M1480.5 721H1520.5M1480.5 761V801M1480.5 761H1520.5M1480.5 801H1520.5M1520.5 1V41M1520.5 1H1560.5M1520.5 41V81M1520.5 41H1560.5M1520.5 81V121M1520.5 81H1560.5M1520.5 121V161M1520.5 121H1560.5M1520.5 161V201M1520.5 161H1560.5M1520.5 201V241M1520.5 201H1560.5M1520.5 241V281M1520.5 241H1560.5M1520.5 281V321M1520.5 281H1560.5M1520.5 321V361M1520.5 321H1560.5M1520.5 361V401M1520.5 361H1560.5M1520.5 401V441M1520.5 401H1560.5M1520.5 441V481M1520.5 441H1560.5M1520.5 481V521M1520.5 481H1560.5M1520.5 521V561M1520.5 521H1560.5M1520.5 561V601M1520.5 561H1560.5M1520.5 601V641M1520.5 601H1560.5M1520.5 641V681M1520.5 641H1560.5M1520.5 681V721M1520.5 681H1560.5M1520.5 721V761M1520.5 721H1560.5M1520.5 761V801M1520.5 761H1560.5M1520.5 801H1560.5M1560.5 1V41M1560.5 1H1600.5M1560.5 41V81M1560.5 41H1600.5M1560.5 81V121M1560.5 81H1600.5M1560.5 121V161M1560.5 121H1600.5M1560.5 161V201M1560.5 161H1600.5M1560.5 201V241M1560.5 201H1600.5M1560.5 241V281M1560.5 241H1600.5M1560.5 281V321M1560.5 281H1600.5M1560.5 321V361M1560.5 321H1600.5M1560.5 361V401M1560.5 361H1600.5M1560.5 401V441M1560.5 401H1600.5M1560.5 441V481M1560.5 441H1600.5M1560.5 481V521M1560.5 481H1600.5M1560.5 521V561M1560.5 521H1600.5M1560.5 561V601M1560.5 561H1600.5M1560.5 601V641M1560.5 601H1600.5M1560.5 641V681M1560.5 641H1600.5M1560.5 681V721M1560.5 681H1600.5M1560.5 721V761M1560.5 721H1600.5M1560.5 761V801M1560.5 761H1600.5M1560.5 801H1600.5M1600.5 1V41M1600.5 1H1640.5M1600.5 41V81M1600.5 41H1640.5M1600.5 81V121M1600.5 81H1640.5M1600.5 121V161M1600.5 121H1640.5M1600.5 161V201M1600.5 161H1640.5M1600.5 201V241M1600.5 201H1640.5M1600.5 241V281M1600.5 241H1640.5M1600.5 281V321M1600.5 281H1640.5M1600.5 321V361M1600.5 321H1640.5M1600.5 361V401M1600.5 361H1640.5M1600.5 401V441M1600.5 401H1640.5M1600.5 441V481M1600.5 441H1640.5M1600.5 481V521M1600.5 481H1640.5M1600.5 521V561M1600.5 521H1640.5M1600.5 561V601M1600.5 561H1640.5M1600.5 601V641M1600.5 601H1640.5M1600.5 641V681M1600.5 641H1640.5M1600.5 681V721M1600.5 681H1640.5M1600.5 721V761M1600.5 721H1640.5M1600.5 761V801M1600.5 761H1640.5M1600.5 801H1640.5M1640.5 1V41M1640.5 1H1680.5M1640.5 41V81M1640.5 41H1680.5M1640.5 81V121M1640.5 81H1680.5M1640.5 121V161M1640.5 121H1680.5M1640.5 161V201M1640.5 161H1680.5M1640.5 201V241M1640.5 201H1680.5M1640.5 241V281M1640.5 241H1680.5M1640.5 281V321M1640.5 281H1680.5M1640.5 321V361M1640.5 321H1680.5M1640.5 361V401M1640.5 361H1680.5M1640.5 401V441M1640.5 401H1680.5M1640.5 441V481M1640.5 441H1680.5M1640.5 481V521M1640.5 481H1680.5M1640.5 521V561M1640.5 521H1680.5M1640.5 561V601M1640.5 561H1680.5M1640.5 601V641M1640.5 601H1680.5M1640.5 641V681M1640.5 641H1680.5M1640.5 681V721M1640.5 681H1680.5M1640.5 721V761M1640.5 721H1680.5M1640.5 761V801M1640.5 761H1680.5M1640.5 801H1680.5M1680.5 1V41M1680.5 1H1720.5M1680.5 41V81M1680.5 41H1720.5M1680.5 81V121M1680.5 81H1720.5M1680.5 121V161M1680.5 121H1720.5M1680.5 161V201M1680.5 161H1720.5M1680.5 201V241M1680.5 201H1720.5M1680.5 241V281M1680.5 241H1720.5M1680.5 281V321M1680.5 281H1720.5M1680.5 321V361M1680.5 321H1720.5M1680.5 361V401M1680.5 361H1720.5M1680.5 401V441M1680.5 401H1720.5M1680.5 441V481M1680.5 441H1720.5M1680.5 481V521M1680.5 481H1720.5M1680.5 521V561M1680.5 521H1720.5M1680.5 561V601M1680.5 561H1720.5M1680.5 601V641M1680.5 601H1720.5M1680.5 641V681M1680.5 641H1720.5M1680.5 681V721M1680.5 681H1720.5M1680.5 721V761M1680.5 721H1720.5M1680.5 761V801M1680.5 761H1720.5M1680.5 801H1720.5M1720.5 1V41M1720.5 1H1760.5V41M1720.5 41V81M1720.5 41H1760.5M1720.5 81V121M1720.5 81H1760.5M1720.5 121V161M1720.5 121H1760.5M1720.5 161V201M1720.5 161H1760.5M1720.5 201V241M1720.5 201H1760.5M1720.5 241V281M1720.5 241H1760.5M1720.5 281V321M1720.5 281H1760.5M1720.5 321V361M1720.5 321H1760.5M1720.5 361V401M1720.5 361H1760.5M1720.5 401V441M1720.5 401H1760.5M1720.5 441V481M1720.5 441H1760.5M1720.5 481V521M1720.5 481H1760.5M1720.5 521V561M1720.5 521H1760.5M1720.5 561V601M1720.5 561H1760.5M1720.5 601V641M1720.5 601H1760.5M1720.5 641V681M1720.5 641H1760.5M1720.5 681V721M1720.5 681H1760.5M1720.5 721V761M1720.5 721H1760.5M1720.5 761V801M1720.5 761H1760.5M1720.5 801H1760.5V761M1760.5 41V81M1760.5 81V121M1760.5 121V161M1760.5 161V201M1760.5 201V241M1760.5 241V281M1760.5 281V321M1760.5 321V361M1760.5 361V401M1760.5 401V441M1760.5 441V481M1760.5 481V521M1760.5 521V561M1760.5 561V601M1760.5 601V641M1760.5 641V681M1760.5 681V721M1760.5 721V761" stroke="url(#paint0_linear_598_8738)"/>
<rect x="360" y="241" width="40" height="40" fill="white" fill-opacity="0.02"/>
<rect x="281" y="321" width="40" height="40" fill="white" fill-opacity="0.02"/>
<rect width="40" height="40" transform="matrix(-1 0 0 1 1400 241)" fill="white" fill-opacity="0.02"/>
<rect width="40" height="40" transform="matrix(-1 0 0 1 1240 321)" fill="white" fill-opacity="0.02"/>
<rect width="40" height="40" transform="matrix(-1 0 0 1 560 321)" fill="white" fill-opacity="0.02"/>
<rect width="40" height="40" transform="matrix(-1 0 0 1 1481 321)" fill="white" fill-opacity="0.02"/>
<rect width="40" height="40" transform="matrix(-1 0 0 1 1441 481)" fill="white" fill-opacity="0.02"/>
<rect width="40" height="40" transform="matrix(-1 0 0 1 360 481)" fill="white" fill-opacity="0.02"/>
<rect width="40" height="40" transform="matrix(-1 0 0 1 1521 121)" fill="white" fill-opacity="0.02"/>
<rect width="40" height="40" transform="matrix(-1 0 0 1 281 121)" fill="white" fill-opacity="0.02"/>
<rect x="1" y="704" width="1760" height="124" fill="url(#paint1_linear_598_8738)"/>
<defs>
<linearGradient id="paint0_linear_598_8738" x1="1761" y1="440" x2="0.999984" y2="440" gradientUnits="userSpaceOnUse">
<stop stop-color="#060609" stop-opacity="0.4"/>
<stop offset="0.5" stop-color="white" stop-opacity="0.4"/>
<stop offset="1" stop-color="#060609" stop-opacity="0.4"/>
</linearGradient>
<linearGradient id="paint1_linear_598_8738" x1="881" y1="704" x2="881" y2="828" gradientUnits="userSpaceOnUse">
<stop stop-color="#060609" stop-opacity="0"/>
<stop offset="1" stop-color="#060609"/>
</linearGradient>
</defs>
</svg>
