<svg width="1072" height="432" viewBox="0 0 1072 432" fill="none" xmlns="http://www.w3.org/2000/svg">
<g clip-path="url(#clip0_735_11283)">
<path opacity="0.24" d="M1371.57 824H1413V782.65M1371.57 824V782.65M1371.57 824H1330.14M1371.57 782.65H1413M1371.57 782.65V741.3M1371.57 782.65H1330.14M1413 782.65V741.3M1371.57 741.3H1413M1371.57 741.3V699.95M1371.57 741.3H1330.14M1413 741.3V699.95M1371.57 699.95H1413M1371.57 699.95V658.6M1371.57 699.95H1330.14M1413 699.95V658.6M1371.57 658.6H1413M1371.57 658.6V617.25M1371.57 658.6H1330.14M1413 658.6V617.25M1371.57 617.25H1413M1371.57 617.25V575.9M1371.57 617.25H1330.14M1413 617.25V575.9M1371.57 575.9H1413M1371.57 575.9V534.55M1371.57 575.9H1330.14M1413 575.9V534.55M1371.57 534.55H1413M1371.57 534.55V493.2M1371.57 534.55H1330.14M1413 534.55V493.2M1371.57 493.2H1413M1371.57 493.2V451.85M1371.57 493.2H1330.14M1413 493.2V451.85M1371.57 451.85H1413M1371.57 451.85V410.5M1371.57 451.85H1330.14M1413 451.85V410.5M1371.57 410.5H1413M1371.57 410.5V369.15M1371.57 410.5H1330.14M1413 410.5V369.15M1371.57 369.15H1413M1371.57 369.15V327.8M1371.57 369.15H1330.14M1413 369.15V327.8M1371.57 327.8H1413M1371.57 327.8V286.45M1371.57 327.8H1330.14M1413 327.8V286.45M1371.57 286.45H1413M1371.57 286.45V245.1M1371.57 286.45H1330.14M1413 286.45V245.1M1371.57 245.1H1413M1371.57 245.1V203.75M1371.57 245.1H1330.14M1413 245.1V203.75M1371.57 203.75H1413M1371.57 203.75V162.4M1371.57 203.75H1330.14M1413 203.75V162.4M1371.57 162.4H1413M1371.57 162.4V121.05M1371.57 162.4H1330.14M1413 162.4V121.05M1371.57 121.05H1413M1371.57 121.05V79.7M1371.57 121.05H1330.14M1413 121.05V79.7M1371.57 79.7H1413M1371.57 79.7V38.35M1371.57 79.7H1330.14M1413 79.7V38.35M1371.57 38.35H1413M1371.57 38.35V-3M1371.57 38.35H1330.14M1413 38.35V-3H1371.57M1371.57 -3H1330.14M1330.14 824V782.65M1330.14 824H1288.7M1330.14 782.65V741.3M1330.14 782.65H1288.7M1330.14 741.3V699.95M1330.14 741.3H1288.7M1330.14 699.95V658.6M1330.14 699.95H1288.7M1330.14 658.6V617.25M1330.14 658.6H1288.7M1330.14 617.25V575.9M1330.14 617.25H1288.7M1330.14 575.9V534.55M1330.14 575.9H1288.7M1330.14 534.55V493.2M1330.14 534.55H1288.7M1330.14 493.2V451.85M1330.14 493.2H1288.7M1330.14 451.85V410.5M1330.14 451.85H1288.7M1330.14 410.5V369.15M1330.14 410.5H1288.7M1330.14 369.15V327.8M1330.14 369.15H1288.7M1330.14 327.8V286.45M1330.14 327.8H1288.7M1330.14 286.45V245.1M1330.14 286.45H1288.7M1330.14 245.1V203.75M1330.14 245.1H1288.7M1330.14 203.75V162.4M1330.14 203.75H1288.7M1330.14 162.4V121.05M1330.14 162.4H1288.7M1330.14 121.05V79.7M1330.14 121.05H1288.7M1330.14 79.7V38.35M1330.14 79.7H1288.7M1330.14 38.35V-3M1330.14 38.35H1288.7M1330.14 -3H1288.7M1288.7 824V782.65M1288.7 824H1247.27M1288.7 782.65V741.3M1288.7 782.65H1247.27M1288.7 741.3V699.95M1288.7 741.3H1247.27M1288.7 699.95V658.6M1288.7 699.95H1247.27M1288.7 658.6V617.25M1288.7 658.6H1247.27M1288.7 617.25V575.9M1288.7 617.25H1247.27M1288.7 575.9V534.55M1288.7 575.9H1247.27M1288.7 534.55V493.2M1288.7 534.55H1247.27M1288.7 493.2V451.85M1288.7 493.2H1247.27M1288.7 451.85V410.5M1288.7 451.85H1247.27M1288.7 410.5V369.15M1288.7 410.5H1247.27M1288.7 369.15V327.8M1288.7 369.15H1247.27M1288.7 327.8V286.45M1288.7 327.8H1247.27M1288.7 286.45V245.1M1288.7 286.45H1247.27M1288.7 245.1V203.75M1288.7 245.1H1247.27M1288.7 203.75V162.4M1288.7 203.75H1247.27M1288.7 162.4V121.05M1288.7 162.4H1247.27M1288.7 121.05V79.7M1288.7 121.05H1247.27M1288.7 79.7V38.35M1288.7 79.7H1247.27M1288.7 38.35V-3M1288.7 38.35H1247.27M1288.7 -3H1247.27M1247.27 824V782.65M1247.27 824H1205.84M1247.27 782.65V741.3M1247.27 782.65H1205.84M1247.27 741.3V699.95M1247.27 741.3H1205.84M1247.27 699.95V658.6M1247.27 699.95H1205.84M1247.27 658.6V617.25M1247.27 658.6H1205.84M1247.27 617.25V575.9M1247.27 617.25H1205.84M1247.27 575.9V534.55M1247.27 575.9H1205.84M1247.27 534.55V493.2M1247.27 534.55H1205.84M1247.27 493.2V451.85M1247.27 493.2H1205.84M1247.27 451.85V410.5M1247.27 451.85H1205.84M1247.27 410.5V369.15M1247.27 410.5H1205.84M1247.27 369.15V327.8M1247.27 369.15H1205.84M1247.27 327.8V286.45M1247.27 327.8H1205.84M1247.27 286.45V245.1M1247.27 286.45H1205.84M1247.27 245.1V203.75M1247.27 245.1H1205.84M1247.27 203.75V162.4M1247.27 203.75H1205.84M1247.27 162.4V121.05M1247.27 162.4H1205.84M1247.27 121.05V79.7M1247.27 121.05H1205.84M1247.27 79.7V38.35M1247.27 79.7H1205.84M1247.27 38.35V-3M1247.27 38.35H1205.84M1247.27 -3H1205.84M1205.84 824V782.65M1205.84 824H1164.41M1205.84 782.65V741.3M1205.84 782.65H1164.41M1205.84 741.3V699.95M1205.84 741.3H1164.41M1205.84 699.95V658.6M1205.84 699.95H1164.41M1205.84 658.6V617.25M1205.84 658.6H1164.41M1205.84 617.25V575.9M1205.84 617.25H1164.41M1205.84 575.9V534.55M1205.84 575.9H1164.41M1205.84 534.55V493.2M1205.84 534.55H1164.41M1205.84 493.2V451.85M1205.84 493.2H1164.41M1205.84 451.85V410.5M1205.84 451.85H1164.41M1205.84 410.5V369.15M1205.84 410.5H1164.41M1205.84 369.15V327.8M1205.84 369.15H1164.41M1205.84 327.8V286.45M1205.84 327.8H1164.41M1205.84 286.45V245.1M1205.84 286.45H1164.41M1205.84 245.1V203.75M1205.84 245.1H1164.41M1205.84 203.75V162.4M1205.84 203.75H1164.41M1205.84 162.4V121.05M1205.84 162.4H1164.41M1205.84 121.05V79.7M1205.84 121.05H1164.41M1205.84 79.7V38.35M1205.84 79.7H1164.41M1205.84 38.35V-3M1205.84 38.35H1164.41M1205.84 -3H1164.41M1164.41 824V782.65M1164.41 824H1122.98M1164.41 782.65V741.3M1164.41 782.65H1122.98M1164.41 741.3V699.95M1164.41 741.3H1122.98M1164.41 699.95V658.6M1164.41 699.95H1122.98M1164.41 658.6V617.25M1164.41 658.6H1122.98M1164.41 617.25V575.9M1164.41 617.25H1122.98M1164.41 575.9V534.55M1164.41 575.9H1122.98M1164.41 534.55V493.2M1164.41 534.55H1122.98M1164.41 493.2V451.85M1164.41 493.2H1122.98M1164.41 451.85V410.5M1164.41 451.85H1122.98M1164.41 410.5V369.15M1164.41 410.5H1122.98M1164.41 369.15V327.8M1164.41 369.15H1122.98M1164.41 327.8V286.45M1164.41 327.8H1122.98M1164.41 286.45V245.1M1164.41 286.45H1122.98M1164.41 245.1V203.75M1164.41 245.1H1122.98M1164.41 203.75V162.4M1164.41 203.75H1122.98M1164.41 162.4V121.05M1164.41 162.4H1122.98M1164.41 121.05V79.7M1164.41 121.05H1122.98M1164.41 79.7V38.35M1164.41 79.7H1122.98M1164.41 38.35V-3M1164.41 38.35H1122.98M1164.41 -3H1122.98M1122.98 824V782.65M1122.98 824H1081.55M1122.98 782.65V741.3M1122.98 782.65H1081.55M1122.98 741.3V699.95M1122.98 741.3H1081.55M1122.98 699.95V658.6M1122.98 699.95H1081.55M1122.98 658.6V617.25M1122.98 658.6H1081.55M1122.98 617.25V575.9M1122.98 617.25H1081.55M1122.98 575.9V534.55M1122.98 575.9H1081.55M1122.98 534.55H1081.55M1122.98 534.55V493.2M1122.98 493.2V451.85M1122.98 493.2H1081.55M1122.98 451.85V410.5M1122.98 451.85H1081.55M1122.98 410.5V369.15M1122.98 410.5H1081.55M1122.98 369.15V327.8M1122.98 369.15H1081.55M1122.98 327.8V286.45M1122.98 327.8H1081.55M1122.98 286.45V245.1M1122.98 286.45H1081.55M1122.98 245.1V203.75M1122.98 245.1H1081.55M1122.98 203.75V162.4M1122.98 203.75H1081.55M1122.98 162.4V121.05M1122.98 162.4H1081.55M1122.98 121.05V79.7M1122.98 121.05H1081.55M1122.98 79.7V38.35M1122.98 79.7H1081.55M1122.98 38.35V-3M1122.98 38.35H1081.55M1122.98 -3H1081.55M1081.55 824V782.65M1081.55 824H1040.11M1081.55 782.65V741.3M1081.55 782.65H1040.11M1081.55 741.3V699.95M1081.55 741.3H1040.11M1081.55 699.95V658.6M1081.55 699.95H1040.11M1081.55 658.6V617.25M1081.55 658.6H1040.11M1081.55 617.25V575.9M1081.55 617.25H1040.11M1081.55 575.9V534.55M1081.55 575.9H1040.11M1081.55 534.55V493.2M1081.55 534.55H1040.11M1081.55 493.2V451.85M1081.55 493.2H1040.11M1081.55 451.85V410.5M1081.55 451.85H1040.11M1081.55 410.5V369.15M1081.55 410.5H1040.11M1081.55 369.15V327.8M1081.55 369.15H1040.11M1081.55 327.8V286.45M1081.55 327.8H1040.11M1081.55 286.45V245.1M1081.55 286.45H1040.11M1081.55 245.1V203.75M1081.55 245.1H1040.11M1081.55 203.75V162.4M1081.55 203.75H1040.11M1081.55 162.4V121.05M1081.55 162.4H1040.11M1081.55 121.05V79.7M1081.55 121.05H1040.11M1081.55 79.7V38.35M1081.55 79.7H1040.11M1081.55 38.35V-3M1081.55 38.35H1040.11M1081.55 -3H1040.11M1040.11 824V782.65M1040.11 824H998.682M1040.11 782.65V741.3M1040.11 782.65H998.682M1040.11 741.3V699.95M1040.11 741.3H998.682M1040.11 699.95V658.6M1040.11 699.95H998.682M1040.11 658.6V617.25M1040.11 658.6H998.682M1040.11 617.25V575.9M1040.11 617.25H998.682M1040.11 575.9V534.55M1040.11 575.9H998.682M1040.11 534.55V493.2M1040.11 534.55H998.682M1040.11 493.2V451.85M1040.11 493.2H998.682M1040.11 451.85V410.5M1040.11 451.85H998.682M1040.11 410.5V369.15M1040.11 410.5H998.682M1040.11 369.15V327.8M1040.11 369.15H998.682M1040.11 327.8V286.45M1040.11 327.8H998.682M1040.11 286.45V245.1M1040.11 286.45H998.682M1040.11 245.1V203.75M1040.11 245.1H998.682M1040.11 203.75V162.4M1040.11 203.75H998.682M1040.11 162.4V121.05M1040.11 162.4H998.682M1040.11 121.05V79.7M1040.11 121.05H998.682M1040.11 79.7V38.35M1040.11 79.7H998.682M1040.11 38.35V-3M1040.11 38.35H998.682M1040.11 -3H998.682M998.682 824V782.65M998.682 824H957.25M998.682 782.65V741.3M998.682 782.65H957.25M998.682 741.3V699.95M998.682 741.3H957.25M998.682 699.95V658.6M998.682 699.95H957.25M998.682 658.6V617.25M998.682 658.6H957.25M998.682 617.25V575.9M998.682 617.25H957.25M998.682 575.9V534.55M998.682 575.9H957.25M998.682 534.55V493.2M998.682 534.55H957.25M998.682 493.2V451.85M998.682 493.2H957.25M998.682 451.85V410.5M998.682 451.85H957.25M998.682 410.5V369.15M998.682 410.5H957.25M998.682 369.15V327.8M998.682 369.15H957.25M998.682 327.8V286.45M998.682 327.8H957.25M998.682 286.45V245.1M998.682 286.45H957.25M998.682 245.1V203.75M998.682 245.1H957.25M998.682 203.75V162.4M998.682 203.75H957.25M998.682 162.4V121.05M998.682 162.4H957.25M998.682 121.05V79.7M998.682 121.05H957.25M998.682 79.7V38.35M998.682 79.7H957.25M998.682 38.35V-3M998.682 38.35H957.25M998.682 -3H957.25M957.25 824V782.65M957.25 824H915.818M957.25 782.65V741.3M957.25 782.65H915.818M957.25 741.3V699.95M957.25 741.3H915.818M957.25 699.95V658.6M957.25 699.95H915.818M957.25 658.6V617.25M957.25 658.6H915.818M957.25 617.25V575.9M957.25 617.25H915.818M957.25 575.9V534.55M957.25 575.9H915.818M957.25 534.55V493.2M957.25 534.55H915.818M957.25 493.2V451.85M957.25 493.2H915.818M957.25 451.85V410.5M957.25 451.85H915.818M957.25 410.5V369.15M957.25 410.5H915.818M957.25 369.15V327.8M957.25 369.15H915.818M957.25 327.8V286.45M957.25 327.8H915.818M957.25 286.45V245.1M957.25 286.45H915.818M957.25 245.1V203.75M957.25 245.1H915.818M957.25 203.75V162.4M957.25 203.75H915.818M957.25 162.4V121.05M957.25 162.4H915.818M957.25 121.05V79.7M957.25 121.05H915.818M957.25 79.7V38.35M957.25 79.7H915.818M957.25 38.35V-3M957.25 38.35H915.818M957.25 -3H915.818M915.818 824V782.65M915.818 824H874.386M915.818 782.65V741.3M915.818 782.65H874.386M915.818 741.3V699.95M915.818 741.3H874.386M915.818 699.95V658.6M915.818 699.95H874.386M915.818 658.6V617.25M915.818 658.6H874.386M915.818 617.25V575.9M915.818 617.25H874.386M915.818 575.9V534.55M915.818 575.9H874.386M915.818 534.55V493.2M915.818 534.55H874.386M915.818 493.2V451.85M915.818 493.2H874.386M915.818 451.85V410.5M915.818 451.85H874.386M915.818 410.5V369.15M915.818 410.5H874.386M915.818 369.15V327.8M915.818 369.15H874.386M915.818 327.8V286.45M915.818 327.8H874.386M915.818 286.45V245.1M915.818 286.45H874.386M915.818 245.1V203.75M915.818 245.1H874.386M915.818 203.75V162.4M915.818 203.75H874.386M915.818 162.4V121.05M915.818 162.4H874.386M915.818 121.05V79.7M915.818 121.05H874.386M915.818 79.7V38.35M915.818 79.7H874.386M915.818 38.35V-3M915.818 38.35H874.386M915.818 -3H874.386M874.386 824V782.65M874.386 824H832.954M874.386 782.65V741.3M874.386 782.65H832.954M874.386 741.3V699.95M874.386 741.3H832.954M874.386 699.95V658.6M874.386 699.95H832.954M874.386 658.6V617.25M874.386 658.6H128.614M874.386 617.25V575.9M874.386 617.25H128.614M874.386 575.9V534.55M874.386 575.9H832.954M874.386 534.55V493.2M874.386 534.55H832.954M874.386 493.2V451.85M874.386 493.2H832.954M874.386 451.85V410.5M874.386 451.85H832.954M874.386 410.5V369.15M874.386 410.5H832.954M874.386 369.15V327.8M874.386 369.15H832.954M874.386 327.8V286.45M874.386 327.8H832.954M874.386 286.45V245.1M874.386 286.45H832.954M874.386 245.1V203.75M874.386 245.1H832.954M874.386 203.75V162.4M874.386 203.75H832.954M874.386 162.4V121.05M874.386 162.4H832.954M874.386 121.05V79.7M874.386 121.05H832.954M874.386 79.7V38.35M874.386 79.7H832.954M874.386 38.35V-3M874.386 38.35H832.954M874.386 -3H832.954M832.954 824V782.65M832.954 824H791.523M832.954 782.65V741.3M832.954 782.65H791.523M832.954 741.3V699.95M832.954 741.3H791.523M832.954 699.95H791.523M832.954 699.95V575.9M832.954 575.9V534.55M832.954 575.9H170.045M832.954 534.55V493.2M832.954 534.55H170.045M832.954 493.2V451.85M832.954 493.2H791.523M832.954 451.85V410.5M832.954 451.85H791.523M832.954 410.5V369.15M832.954 410.5H791.523M832.954 369.15V327.8M832.954 369.15H791.523M832.954 327.8V286.45M832.954 327.8H791.523M832.954 286.45V245.1M832.954 286.45H791.523M832.954 245.1V203.75M832.954 245.1H791.523M832.954 203.75V162.4M832.954 203.75H791.523M832.954 162.4V121.05M832.954 162.4H791.523M832.954 121.05V79.7M832.954 121.05H791.523M832.954 79.7V38.35M832.954 79.7H791.523M832.954 38.35V-3M832.954 38.35H791.523M832.954 -3H791.523M791.523 824V782.65M791.523 824H750.091M791.523 782.65V741.3M791.523 782.65H750.091M791.523 741.3V699.95M791.523 741.3H750.091M791.523 699.95H750.091M791.523 699.95V493.2M791.523 493.2V451.85M791.523 493.2H750.091M791.523 451.85V410.5M791.523 451.85H750.091M791.523 410.5V369.15M791.523 410.5H750.091M791.523 369.15V327.8M791.523 369.15H750.091M791.523 327.8V286.45M791.523 327.8H750.091M791.523 286.45V245.1M791.523 286.45H750.091M791.523 245.1V203.75M791.523 245.1H750.091M791.523 203.75V162.4M791.523 203.75H750.091M791.523 162.4V121.05M791.523 162.4H750.091M791.523 121.05V79.7M791.523 121.05H750.091M791.523 79.7V38.35M791.523 79.7H750.091M791.523 38.35V-3M791.523 38.35H750.091M791.523 -3H750.091M750.091 824V782.65M750.091 824H708.659M750.091 782.65V741.3M750.091 782.65H708.659M750.091 741.3V699.95M750.091 741.3H708.659M750.091 699.95H708.659M750.091 699.95V493.2M750.091 493.2V451.85M750.091 493.2H708.659M750.091 451.85V410.5M750.091 451.85H708.659M750.091 410.5V369.15M750.091 410.5H708.659M750.091 369.15V327.8M750.091 369.15H708.659M750.091 327.8V286.45M750.091 327.8H708.659M750.091 286.45V245.1M750.091 286.45H708.659M750.091 245.1V203.75M750.091 245.1H708.659M750.091 203.75V162.4M750.091 203.75H708.659M750.091 162.4V121.05M750.091 162.4H708.659M750.091 121.05V79.7M750.091 121.05H708.659M750.091 79.7V38.35M750.091 79.7H708.659M750.091 38.35V-3M750.091 38.35H708.659M750.091 -3H708.659M708.659 824V782.65M708.659 824H667.227M708.659 782.65V741.3M708.659 782.65H667.227M708.659 741.3V699.95M708.659 741.3H667.227M708.659 699.95H667.227M708.659 699.95V493.2M708.659 493.2V451.85M708.659 493.2H667.227M708.659 451.85V410.5M708.659 451.85H667.227M708.659 410.5V369.15M708.659 410.5H667.227M708.659 369.15V327.8M708.659 369.15H667.227M708.659 327.8V286.45M708.659 327.8H667.227M708.659 286.45V245.1M708.659 286.45H667.227M708.659 245.1V203.75M708.659 245.1H667.227M708.659 203.75V162.4M708.659 203.75H667.227M708.659 162.4V121.05M708.659 162.4H667.227M708.659 121.05V79.7M708.659 121.05H667.227M708.659 79.7V38.35M708.659 79.7H667.227M708.659 38.35V-3M708.659 38.35H667.227M708.659 -3H667.227M667.227 824V782.65M667.227 824H625.795M667.227 782.65V741.3M667.227 782.65H625.795M667.227 741.3V699.95M667.227 741.3H625.795M667.227 699.95H625.795M667.227 699.95V493.2M667.227 493.2V451.85M667.227 493.2H625.795M667.227 451.85V410.5M667.227 451.85H625.795M667.227 410.5V369.15M667.227 410.5H625.795M667.227 369.15V327.8M667.227 369.15H625.795M667.227 327.8V286.45M667.227 327.8H625.795M667.227 286.45V245.1M667.227 286.45H625.795M667.227 245.1V203.75M667.227 245.1H625.795M667.227 203.75V162.4M667.227 203.75H625.795M667.227 162.4V121.05M667.227 162.4H625.795M667.227 121.05V79.7M667.227 121.05H625.795M667.227 79.7V38.35M667.227 79.7H625.795M667.227 38.35V-3M667.227 38.35H625.795M667.227 -3H625.795M625.795 824V782.65M625.795 824H584.364M625.795 782.65V741.3M625.795 782.65H584.364M625.795 741.3V699.95M625.795 741.3H584.364M625.795 699.95H584.364M625.795 699.95V493.2M625.795 493.2V451.85M625.795 493.2H584.364M625.795 451.85V410.5M625.795 451.85H584.364M625.795 410.5V369.15M625.795 410.5H584.364M625.795 369.15V327.8M625.795 369.15H584.364M625.795 327.8V286.45M625.795 327.8H584.364M625.795 286.45V245.1M625.795 286.45H584.364M625.795 245.1V203.75M625.795 245.1H584.364M625.795 203.75V162.4M625.795 203.75H584.364M625.795 162.4V121.05M625.795 162.4H584.364M625.795 121.05V79.7M625.795 121.05H584.364M625.795 79.7V38.35M625.795 79.7H584.364M625.795 38.35V-3M625.795 38.35H584.364M625.795 -3H584.364M584.364 824V782.65M584.364 824H542.932M584.364 782.65V741.3M584.364 782.65H542.932M584.364 741.3V699.95M584.364 741.3H542.932M584.364 699.95H542.932M584.364 699.95V493.2M584.364 493.2V451.85M584.364 493.2H542.932M584.364 451.85V410.5M584.364 451.85H542.932M584.364 410.5V369.15M584.364 410.5H542.932M584.364 369.15V327.8M584.364 369.15H542.932M584.364 327.8V286.45M584.364 327.8H542.932M584.364 286.45V245.1M584.364 286.45H542.932M584.364 245.1V203.75M584.364 245.1H542.932M584.364 203.75V162.4M584.364 203.75H542.932M584.364 162.4V121.05M584.364 162.4H542.932M584.364 121.05V79.7M584.364 121.05H542.932M584.364 79.7V38.35M584.364 79.7H542.932M584.364 38.35V-3M584.364 38.35H542.932M584.364 -3H542.932M542.932 824V782.65M542.932 824H501.5M542.932 782.65H501.5M542.932 782.65V741.3M542.932 741.3V699.95M542.932 741.3H501.5M542.932 699.95H501.5M542.932 699.95V493.2M542.932 493.2V451.85M542.932 493.2H501.5M542.932 451.85V410.5M542.932 451.85H501.5M542.932 410.5V369.15M542.932 410.5H501.5M542.932 369.15V327.8M542.932 369.15H501.5M542.932 327.8V286.45M542.932 327.8H501.5M542.932 286.45V245.1M542.932 286.45H501.5M542.932 245.1V203.75M542.932 245.1H501.5M542.932 203.75V162.4M542.932 203.75H501.5M542.932 162.4V121.05M542.932 162.4H501.5M542.932 121.05V79.7M542.932 121.05H501.5M542.932 79.7V38.35M542.932 79.7H501.5M542.932 38.35V-3M542.932 38.35H501.5M542.932 -3H501.5M501.5 824V782.65M501.5 824H460.068M501.5 782.65H460.068M501.5 782.65V741.3M501.5 741.3V699.95M501.5 741.3H460.068M501.5 699.95H460.068M501.5 699.95V493.2M501.5 493.2V451.85M501.5 493.2H460.068M501.5 451.85V410.5M501.5 451.85H460.068M501.5 410.5V369.15M501.5 410.5H460.068M501.5 369.15V327.8M501.5 369.15H460.068M501.5 327.8V286.45M501.5 327.8H460.068M501.5 286.45V245.1M501.5 286.45H460.068M501.5 245.1V203.75M501.5 245.1H460.068M501.5 203.75V162.4M501.5 203.75H460.068M501.5 162.4V121.05M501.5 162.4H460.068M501.5 121.05V79.7M501.5 121.05H460.068M501.5 79.7V38.35M501.5 79.7H460.068M501.5 38.35V-3M501.5 38.35H460.068M501.5 -3H460.068M460.068 824V782.65M460.068 824H418.636M460.068 782.65H418.636M460.068 782.65V741.3M460.068 741.3V699.95M460.068 741.3H418.636M460.068 699.95H418.636M460.068 699.95V493.2M460.068 493.2V451.85M460.068 493.2H418.636M460.068 451.85V410.5M460.068 451.85H418.636M460.068 410.5V369.15M460.068 410.5H418.636M460.068 369.15V327.8M460.068 369.15H418.636M460.068 327.8V286.45M460.068 327.8H418.636M460.068 286.45V245.1M460.068 286.45H418.636M460.068 245.1V203.75M460.068 245.1H418.636M460.068 203.75V162.4M460.068 203.75H418.636M460.068 162.4V121.05M460.068 162.4H418.636M460.068 121.05V79.7M460.068 121.05H418.636M460.068 79.7V38.35M460.068 79.7H418.636M460.068 38.35V-3M460.068 38.35H418.636M460.068 -3H418.636M418.636 824V782.65M418.636 824H377.205M418.636 782.65H377.205M418.636 782.65V741.3M418.636 741.3V699.95M418.636 741.3H377.205M418.636 699.95H377.205M418.636 699.95V493.2M418.636 493.2V451.85M418.636 493.2H377.205M418.636 451.85V410.5M418.636 451.85H377.205M418.636 410.5V369.15M418.636 410.5H377.205M418.636 369.15V327.8M418.636 369.15H377.205M418.636 327.8V286.45M418.636 327.8H377.205M418.636 286.45V245.1M418.636 286.45H377.205M418.636 245.1V203.75M418.636 245.1H377.205M418.636 203.75V162.4M418.636 203.75H377.205M418.636 162.4V121.05M418.636 162.4H377.205M418.636 121.05V79.7M418.636 121.05H377.205M418.636 79.7V38.35M418.636 79.7H377.205M418.636 38.35V-3M418.636 38.35H377.205M418.636 -3H377.205M377.205 824V782.65M377.205 824H335.773M377.205 782.65V741.3M377.205 782.65H335.773M377.205 741.3V699.95M377.205 741.3H335.773M377.205 699.95H335.773M377.205 699.95V493.2M377.205 493.2V451.85M377.205 493.2H335.773M377.205 451.85V410.5M377.205 451.85H335.773M377.205 410.5V369.15M377.205 410.5H335.773M377.205 369.15V327.8M377.205 369.15H335.773M377.205 327.8V286.45M377.205 327.8H335.773M377.205 286.45V245.1M377.205 286.45H335.773M377.205 245.1V203.75M377.205 245.1H335.773M377.205 203.75V162.4M377.205 203.75H335.773M377.205 162.4V121.05M377.205 162.4H335.773M377.205 121.05V79.7M377.205 121.05H335.773M377.205 79.7V38.35M377.205 79.7H335.773M377.205 38.35V-3M377.205 38.35H335.773M377.205 -3H335.773M335.773 824V782.65M335.773 824H294.341M335.773 782.65V741.3M335.773 782.65H294.341M335.773 741.3V699.95M335.773 741.3H294.341M335.773 699.95H294.341M335.773 699.95V493.2M335.773 493.2V451.85M335.773 493.2H294.341M335.773 451.85V410.5M335.773 451.85H294.341M335.773 410.5V369.15M335.773 410.5H294.341M335.773 369.15V327.8M335.773 369.15H294.341M335.773 327.8V286.45M335.773 327.8H294.341M335.773 286.45V245.1M335.773 286.45H294.341M335.773 245.1V203.75M335.773 245.1H294.341M335.773 203.75V162.4M335.773 203.75H294.341M335.773 162.4V121.05M335.773 162.4H294.341M335.773 121.05V79.7M335.773 121.05H294.341M335.773 79.7V38.35M335.773 79.7H294.341M335.773 38.35V-3M335.773 38.35H294.341M335.773 -3H294.341M294.341 824V782.65M294.341 824H252.909M294.341 782.65V741.3M294.341 782.65H252.909M294.341 741.3V699.95M294.341 741.3H252.909M294.341 699.95H252.909M294.341 699.95V493.2M294.341 493.2V451.85M294.341 493.2H252.909M294.341 451.85V410.5M294.341 451.85H252.909M294.341 410.5V369.15M294.341 410.5H252.909M294.341 369.15V327.8M294.341 369.15H252.909M294.341 327.8V286.45M294.341 327.8H252.909M294.341 286.45V245.1M294.341 286.45H252.909M294.341 245.1V203.75M294.341 245.1H252.909M294.341 203.75V162.4M294.341 203.75H252.909M294.341 162.4V121.05M294.341 162.4H252.909M294.341 121.05V79.7M294.341 121.05H252.909M294.341 79.7V38.35M294.341 79.7H252.909M294.341 38.35V-3M294.341 38.35H252.909M294.341 -3H252.909M252.909 824V782.65M252.909 824H211.477M252.909 782.65V741.3M252.909 782.65H211.477M252.909 741.3V699.95M252.909 741.3H211.477M252.909 699.95H211.477M252.909 699.95V493.2M252.909 493.2V451.85M252.909 493.2H211.477M252.909 451.85V410.5M252.909 451.85H211.477M252.909 410.5V369.15M252.909 410.5H211.477M252.909 369.15V327.8M252.909 369.15H211.477M252.909 327.8V286.45M252.909 327.8H211.477M252.909 286.45V245.1M252.909 286.45H211.477M252.909 245.1V203.75M252.909 245.1H211.477M252.909 203.75V162.4M252.909 203.75H211.477M252.909 162.4V121.05M252.909 162.4H211.477M252.909 121.05V79.7M252.909 121.05H211.477M252.909 79.7V38.35M252.909 79.7H211.477M252.909 38.35V-3M252.909 38.35H211.477M252.909 -3H211.477M211.477 824V782.65M211.477 824H170.045M211.477 782.65V741.3M211.477 782.65H170.045M211.477 741.3V699.95M211.477 741.3H170.045M211.477 699.95H170.045M211.477 699.95V493.2M211.477 493.2V451.85M211.477 493.2H170.045M211.477 451.85V410.5M211.477 451.85H170.045M211.477 410.5V369.15M211.477 410.5H170.045M211.477 369.15V327.8M211.477 369.15H170.045M211.477 327.8V286.45M211.477 327.8H170.045M211.477 286.45V245.1M211.477 286.45H170.045M211.477 245.1V203.75M211.477 245.1H170.045M211.477 203.75V162.4M211.477 203.75H170.045M211.477 162.4V121.05M211.477 162.4H170.045M211.477 121.05V79.7M211.477 121.05H170.045M211.477 79.7V38.35M211.477 79.7H170.045M211.477 38.35V-3M211.477 38.35H170.045M211.477 -3H170.045M170.045 824V782.65M170.045 824H128.614M170.045 782.65V741.3M170.045 782.65H128.614M170.045 741.3V699.95M170.045 741.3H128.614M170.045 699.95H128.614M170.045 699.95V575.9M170.045 575.9V534.55M170.045 575.9H128.614M170.045 534.55V493.2M170.045 534.55H128.614M170.045 493.2V451.85M170.045 493.2H128.614M170.045 451.85V410.5M170.045 451.85H128.614M170.045 410.5V369.15M170.045 410.5H128.614M170.045 369.15V327.8M170.045 369.15H128.614M170.045 327.8V286.45M170.045 327.8H128.614M170.045 286.45V245.1M170.045 286.45H128.614M170.045 245.1V203.75M170.045 245.1H128.614M170.045 203.75V162.4M170.045 203.75H128.614M170.045 162.4V121.05M170.045 162.4H128.614M170.045 121.05V79.7M170.045 121.05H128.614M170.045 79.7V38.35M170.045 79.7H128.614M170.045 38.35V-3M170.045 38.35H128.614M170.045 -3H128.614M128.614 824V782.65M128.614 824H87.1817M128.614 782.65V741.3M128.614 782.65H87.1817M128.614 741.3V699.95M128.614 741.3H87.1817M128.614 699.95V658.6M128.614 699.95H87.1817M128.614 658.6V617.25M128.614 658.6H87.1817M128.614 617.25V575.9M128.614 617.25H87.1817M128.614 575.9V534.55M128.614 575.9H87.1817M128.614 534.55V493.2M128.614 534.55H87.1817M128.614 493.2V451.85M128.614 493.2H87.1817M128.614 451.85V410.5M128.614 451.85H87.1817M128.614 410.5V369.15M128.614 410.5H87.1817M128.614 369.15V327.8M128.614 369.15H87.1817M128.614 327.8V286.45M128.614 327.8H87.1817M128.614 286.45V245.1M128.614 286.45H87.1817M128.614 245.1V203.75M128.614 245.1H87.1817M128.614 203.75V162.4M128.614 203.75H87.1817M128.614 162.4V121.05M128.614 162.4H87.1817M128.614 121.05V79.7M128.614 121.05H87.1817M128.614 79.7V38.35M128.614 79.7H87.1817M128.614 38.35V-3M128.614 38.35H87.1817M128.614 -3H87.1817M87.1817 824V782.65M87.1817 824H45.75M87.1817 782.65V741.3M87.1817 782.65H45.75M87.1817 741.3V699.95M87.1817 741.3H45.75M87.1817 699.95V658.6M87.1817 699.95H45.75M87.1817 658.6V617.25M87.1817 658.6H45.75M87.1817 617.25V575.9M87.1817 617.25H45.75M87.1817 575.9V534.55M87.1817 575.9H45.75M87.1817 534.55V493.2M87.1817 534.55H45.75M87.1817 493.2V451.85M87.1817 493.2H45.75M87.1817 451.85V410.5M87.1817 451.85H45.75M87.1817 410.5V369.15M87.1817 410.5H45.75M87.1817 369.15V327.8M87.1817 369.15H45.75M87.1817 327.8V286.45M87.1817 327.8H45.75M87.1817 286.45V245.1M87.1817 286.45H45.75M87.1817 245.1V203.75M87.1817 245.1H45.75M87.1817 203.75V162.4M87.1817 203.75H45.75M87.1817 162.4V121.05M87.1817 162.4H45.75M87.1817 121.05V79.7M87.1817 121.05H45.75M87.1817 79.7V38.35M87.1817 79.7H45.75M87.1817 38.35V-3M87.1817 38.35H45.75M87.1817 -3H45.75M45.75 824V782.65M45.75 824H4.31818M45.75 782.65V741.3M45.75 782.65H4.31818M45.75 741.3V699.95M45.75 741.3H4.31818M45.75 699.95V658.6M45.75 699.95H4.31818M45.75 658.6V617.25M45.75 658.6H4.31818M45.75 617.25V575.9M45.75 617.25H4.31818M45.75 575.9V534.55M45.75 575.9H4.31818M45.75 534.55V493.2M45.75 534.55H4.31818M45.75 493.2V451.85M45.75 493.2H4.31818M45.75 451.85V410.5M45.75 451.85H4.31818M45.75 410.5V369.15M45.75 410.5H4.31818M45.75 369.15V327.8M45.75 369.15H4.31818M45.75 327.8V286.45M45.75 327.8H4.31818M45.75 286.45V245.1M45.75 286.45H4.31818M45.75 245.1V203.75M45.75 245.1H4.31818M45.75 203.75V162.4M45.75 203.75H4.31818M45.75 162.4V121.05M45.75 162.4H4.31818M45.75 121.05V79.7M45.75 121.05H4.31818M45.75 79.7V38.35M45.75 79.7H4.31818M45.75 38.35V-3M45.75 38.35H4.31818M45.75 -3H4.31818M4.31818 824V782.65M4.31818 824H-37.1136M4.31818 782.65V741.3M4.31818 782.65H-37.1136M4.31818 741.3V699.95M4.31818 741.3H-37.1136M4.31818 699.95V658.6M4.31818 699.95H-37.1136M4.31818 658.6V617.25M4.31818 658.6H-37.1136M4.31818 617.25V575.9M4.31818 617.25H-37.1136M4.31818 575.9V534.55M4.31818 575.9H-37.1136M4.31818 534.55V493.2M4.31818 534.55H-37.1136M4.31818 493.2V451.85M4.31818 493.2H-37.1136M4.31818 451.85V410.5M4.31818 451.85H-37.1136M4.31818 410.5V369.15M4.31818 410.5H-37.1136M4.31818 369.15V327.8M4.31818 369.15H-37.1136M4.31818 327.8V286.45M4.31818 327.8H-37.1136M4.31818 286.45V245.1M4.31818 286.45H-37.1136M4.31818 245.1V203.75M4.31818 245.1H-37.1136M4.31818 203.75V162.4M4.31818 203.75H-37.1136M4.31818 162.4V121.05M4.31818 162.4H-37.1136M4.31818 121.05V79.7M4.31818 121.05H-37.1136M4.31818 79.7V38.35M4.31818 79.7H-37.1136M4.31818 38.35V-3M4.31818 38.35H-37.1136M4.31818 -3H-37.1136M-37.1136 824V782.65M-37.1136 824H-78.5455M-37.1136 782.65V741.3M-37.1136 782.65H-78.5455M-37.1136 741.3V699.95M-37.1136 741.3H-78.5455M-37.1136 699.95V658.6M-37.1136 699.95H-78.5455M-37.1136 658.6V617.25M-37.1136 658.6H-78.5455M-37.1136 617.25V575.9M-37.1136 617.25H-78.5455M-37.1136 575.9V534.55M-37.1136 575.9H-78.5455M-37.1136 534.55V493.2M-37.1136 534.55H-78.5455M-37.1136 493.2V451.85M-37.1136 493.2H-78.5455M-37.1136 451.85V410.5M-37.1136 451.85H-78.5455M-37.1136 410.5V369.15M-37.1136 410.5H-78.5455M-37.1136 369.15V327.8M-37.1136 369.15H-78.5455M-37.1136 327.8V286.45M-37.1136 327.8H-78.5455M-37.1136 286.45V245.1M-37.1136 286.45H-78.5455M-37.1136 245.1V203.75M-37.1136 245.1H-78.5455M-37.1136 203.75V162.4M-37.1136 203.75H-78.5455M-37.1136 162.4V121.05M-37.1136 162.4H-78.5455M-37.1136 121.05V79.7M-37.1136 121.05H-78.5455M-37.1136 79.7V38.35M-37.1136 79.7H-78.5455M-37.1136 38.35V-3M-37.1136 38.35H-78.5455M-37.1136 -3H-78.5455M-78.5455 824V782.65M-78.5455 824H-119.977M-78.5455 782.65V741.3M-78.5455 782.65H-119.977M-78.5455 741.3V699.95M-78.5455 741.3H-119.977M-78.5455 699.95V658.6M-78.5455 699.95H-119.977M-78.5455 658.6V617.25M-78.5455 658.6H-119.977M-78.5455 617.25V575.9M-78.5455 617.25H-119.977M-78.5455 575.9V534.55M-78.5455 575.9H-119.977M-78.5455 534.55V493.2M-78.5455 534.55H-119.977M-78.5455 493.2V451.85M-78.5455 493.2H-119.977M-78.5455 451.85V410.5M-78.5455 451.85H-119.977M-78.5455 410.5V369.15M-78.5455 410.5H-119.977M-78.5455 369.15V327.8M-78.5455 369.15H-119.977M-78.5455 327.8V286.45M-78.5455 327.8H-119.977M-78.5455 286.45V245.1M-78.5455 286.45H-119.977M-78.5455 245.1V203.75M-78.5455 245.1H-119.977M-78.5455 203.75V162.4M-78.5455 203.75H-119.977M-78.5455 162.4V121.05M-78.5455 162.4H-119.977M-78.5455 121.05V79.7M-78.5455 121.05H-119.977M-78.5455 79.7V38.35M-78.5455 79.7H-119.977M-78.5455 38.35V-3M-78.5455 38.35H-119.977M-78.5455 -3H-119.977M-119.977 824V782.65M-119.977 824H-161.409M-119.977 782.65V741.3M-119.977 782.65H-161.409M-119.977 741.3V699.95M-119.977 741.3H-161.409M-119.977 699.95V658.6M-119.977 699.95H-161.409M-119.977 658.6V617.25M-119.977 658.6H-161.409M-119.977 617.25V575.9M-119.977 617.25H-161.409M-119.977 575.9V534.55M-119.977 575.9H-161.409M-119.977 534.55H-161.409M-119.977 534.55V493.2M-119.977 493.2V451.85M-119.977 493.2H-161.409M-119.977 451.85V410.5M-119.977 451.85H-161.409M-119.977 410.5V369.15M-119.977 410.5H-161.409M-119.977 369.15V327.8M-119.977 369.15H-161.409M-119.977 327.8V286.45M-119.977 327.8H-161.409M-119.977 286.45V245.1M-119.977 286.45H-161.409M-119.977 245.1V203.75M-119.977 245.1H-161.409M-119.977 203.75V162.4M-119.977 203.75H-161.409M-119.977 162.4V121.05M-119.977 162.4H-161.409M-119.977 121.05V79.7M-119.977 121.05H-161.409M-119.977 79.7V38.35M-119.977 79.7H-161.409M-119.977 38.35V-3M-119.977 38.35H-161.409M-119.977 -3H-161.409M-161.409 824V782.65M-161.409 824H-202.841M-161.409 782.65V741.3M-161.409 782.65H-202.841M-161.409 741.3V699.95M-161.409 741.3H-202.841M-161.409 699.95V658.6M-161.409 699.95H-202.841M-161.409 658.6V617.25M-161.409 658.6H-202.841M-161.409 617.25V575.9M-161.409 617.25H-202.841M-161.409 575.9V534.55M-161.409 575.9H-202.841M-161.409 534.55V493.2M-161.409 534.55H-202.841M-161.409 493.2V451.85M-161.409 493.2H-202.841M-161.409 451.85V410.5M-161.409 451.85H-202.841M-161.409 410.5V369.15M-161.409 410.5H-202.841M-161.409 369.15V327.8M-161.409 369.15H-202.841M-161.409 327.8V286.45M-161.409 327.8H-202.841M-161.409 286.45V245.1M-161.409 286.45H-202.841M-161.409 245.1V203.75M-161.409 245.1H-202.841M-161.409 203.75V162.4M-161.409 203.75H-202.841M-161.409 162.4V121.05M-161.409 162.4H-202.841M-161.409 121.05V79.7M-161.409 121.05H-202.841M-161.409 79.7V38.35M-161.409 79.7H-202.841M-161.409 38.35V-3M-161.409 38.35H-202.841M-161.409 -3H-202.841M-202.841 824V782.65M-202.841 824H-244.273M-202.841 782.65V741.3M-202.841 782.65H-244.273M-202.841 741.3V699.95M-202.841 741.3H-244.273M-202.841 699.95V658.6M-202.841 699.95H-244.273M-202.841 658.6V617.25M-202.841 658.6H-244.273M-202.841 617.25V575.9M-202.841 617.25H-244.273M-202.841 575.9V534.55M-202.841 575.9H-244.273M-202.841 534.55V493.2M-202.841 534.55H-244.273M-202.841 493.2V451.85M-202.841 493.2H-244.273M-202.841 451.85V410.5M-202.841 451.85H-244.273M-202.841 410.5V369.15M-202.841 410.5H-244.273M-202.841 369.15V327.8M-202.841 369.15H-244.273M-202.841 327.8V286.45M-202.841 327.8H-244.273M-202.841 286.45V245.1M-202.841 286.45H-244.273M-202.841 245.1V203.75M-202.841 245.1H-244.273M-202.841 203.75V162.4M-202.841 203.75H-244.273M-202.841 162.4V121.05M-202.841 162.4H-244.273M-202.841 121.05V79.7M-202.841 121.05H-244.273M-202.841 79.7V38.35M-202.841 79.7H-244.273M-202.841 38.35V-3M-202.841 38.35H-244.273M-202.841 -3H-244.273M-244.273 824V782.65M-244.273 824H-285.705M-244.273 782.65V741.3M-244.273 782.65H-285.705M-244.273 741.3V699.95M-244.273 741.3H-285.705M-244.273 699.95V658.6M-244.273 699.95H-285.705M-244.273 658.6V617.25M-244.273 658.6H-285.705M-244.273 617.25V575.9M-244.273 617.25H-285.705M-244.273 575.9V534.55M-244.273 575.9H-285.705M-244.273 534.55V493.2M-244.273 534.55H-285.705M-244.273 493.2V451.85M-244.273 493.2H-285.705M-244.273 451.85V410.5M-244.273 451.85H-285.705M-244.273 410.5V369.15M-244.273 410.5H-285.705M-244.273 369.15V327.8M-244.273 369.15H-285.705M-244.273 327.8V286.45M-244.273 327.8H-285.705M-244.273 286.45V245.1M-244.273 286.45H-285.705M-244.273 245.1V203.75M-244.273 245.1H-285.705M-244.273 203.75V162.4M-244.273 203.75H-285.705M-244.273 162.4V121.05M-244.273 162.4H-285.705M-244.273 121.05V79.7M-244.273 121.05H-285.705M-244.273 79.7V38.35M-244.273 79.7H-285.705M-244.273 38.35V-3M-244.273 38.35H-285.705M-244.273 -3H-285.705M-285.705 824V782.65M-285.705 824H-327.136M-285.705 782.65V741.3M-285.705 782.65H-327.136M-285.705 741.3V699.95M-285.705 741.3H-327.136M-285.705 699.95V658.6M-285.705 699.95H-327.136M-285.705 658.6V617.25M-285.705 658.6H-327.136M-285.705 617.25V575.9M-285.705 617.25H-327.136M-285.705 575.9V534.55M-285.705 575.9H-327.136M-285.705 534.55V493.2M-285.705 534.55H-327.136M-285.705 493.2V451.85M-285.705 493.2H-327.136M-285.705 451.85V410.5M-285.705 451.85H-327.136M-285.705 410.5V369.15M-285.705 410.5H-327.136M-285.705 369.15V327.8M-285.705 369.15H-327.136M-285.705 327.8V286.45M-285.705 327.8H-327.136M-285.705 286.45V245.1M-285.705 286.45H-327.136M-285.705 245.1V203.75M-285.705 245.1H-327.136M-285.705 203.75V162.4M-285.705 203.75H-327.136M-285.705 162.4V121.05M-285.705 162.4H-327.136M-285.705 121.05V79.7M-285.705 121.05H-327.136M-285.705 79.7V38.35M-285.705 79.7H-327.136M-285.705 38.35V-3M-285.705 38.35H-327.136M-285.705 -3H-327.136M-327.136 824V782.65M-327.136 824H-368.568M-327.136 782.65V741.3M-327.136 782.65H-368.568M-327.136 741.3V699.95M-327.136 741.3H-368.568M-327.136 699.95V658.6M-327.136 699.95H-368.568M-327.136 658.6V617.25M-327.136 658.6H-368.568M-327.136 617.25V575.9M-327.136 617.25H-368.568M-327.136 575.9V534.55M-327.136 575.9H-368.568M-327.136 534.55V493.2M-327.136 534.55H-368.568M-327.136 493.2V451.85M-327.136 493.2H-368.568M-327.136 451.85V410.5M-327.136 451.85H-368.568M-327.136 410.5V369.15M-327.136 410.5H-368.568M-327.136 369.15V327.8M-327.136 369.15H-368.568M-327.136 327.8V286.45M-327.136 327.8H-368.568M-327.136 286.45V245.1M-327.136 286.45H-368.568M-327.136 245.1V203.75M-327.136 245.1H-368.568M-327.136 203.75V162.4M-327.136 203.75H-368.568M-327.136 162.4V121.05M-327.136 162.4H-368.568M-327.136 121.05V79.7M-327.136 121.05H-368.568M-327.136 79.7V38.35M-327.136 79.7H-368.568M-327.136 38.35V-3M-327.136 38.35H-368.568M-327.136 -3H-368.568M-368.568 824V782.65M-368.568 824H-410V782.65M-368.568 782.65V741.3M-368.568 782.65H-410M-368.568 741.3V699.95M-368.568 741.3H-410M-368.568 699.95V658.6M-368.568 699.95H-410M-368.568 658.6V617.25M-368.568 658.6H-410M-368.568 617.25V575.9M-368.568 617.25H-410M-368.568 575.9V534.55M-368.568 575.9H-410M-368.568 534.55V493.2M-368.568 534.55H-410M-368.568 493.2V451.85M-368.568 493.2H-410M-368.568 451.85V410.5M-368.568 451.85H-410M-368.568 410.5V369.15M-368.568 410.5H-410M-368.568 369.15V327.8M-368.568 369.15H-410M-368.568 327.8V286.45M-368.568 327.8H-410M-368.568 286.45V245.1M-368.568 286.45H-410M-368.568 245.1V203.75M-368.568 245.1H-410M-368.568 203.75V162.4M-368.568 203.75H-410M-368.568 162.4V121.05M-368.568 162.4H-410M-368.568 121.05V79.7M-368.568 121.05H-410M-368.568 79.7V38.35M-368.568 79.7H-410M-368.568 38.35V-3M-368.568 38.35H-410M-368.568 -3H-410V38.35M-410 782.65V741.3M-410 741.3V699.95M-410 699.95V658.6M-410 658.6V617.25M-410 617.25V575.9M-410 575.9V534.55M-410 534.55V493.2M-410 493.2V451.85M-410 451.85V410.5M-410 410.5V369.15M-410 369.15V327.8M-410 327.8V286.45M-410 286.45V245.1M-410 245.1V203.75M-410 203.75V162.4M-410 162.4V121.05M-410 121.05V79.7M-410 79.7V38.35" stroke="url(#paint0_radial_735_11283)" stroke-width="0.592251"/>
</g>
<defs>
<radialGradient id="paint0_radial_735_11283" cx="0" cy="0" r="1" gradientUnits="userSpaceOnUse" gradientTransform="translate(501.5 394.477) rotate(-90) scale(263.171 690.66)">
<stop stop-color="white" stop-opacity="0.65"/>
<stop offset="1" stop-color="white" stop-opacity="0"/>
</radialGradient>
<clipPath id="clip0_735_11283">
<rect width="1072" height="432" fill="white"/>
</clipPath>
</defs>
</svg>
