<svg width="48" height="30" viewBox="0 0 48 30" fill="none" xmlns="http://www.w3.org/2000/svg">
<path d="M6.68438 23.928C9.82038 23.608 12.2524 22.584 13.9804 20.856C15.7084 19.064 16.5724 16.76 16.5724 13.944C16.5724 13.496 16.5084 12.824 16.3804 11.928H15.2284C15.1004 12.632 14.7164 13.176 14.0764 13.56C13.5004 13.88 12.7644 14.04 11.8684 14.04C10.3324 14.04 8.98838 13.464 7.83638 12.312C6.74838 11.096 6.20438 9.528 6.20438 7.608C6.20438 5.56 6.84438 3.896 8.12438 2.616C9.46838 1.336 11.2284 0.695995 13.4044 0.695995C16.2204 0.695995 18.4284 1.816 20.0284 4.056C21.6924 6.232 22.5244 9.112 22.5244 12.696C22.5244 16.984 21.2124 20.76 18.5884 24.024C16.0284 27.224 12.0604 29.048 6.68438 29.496V23.928ZM26.9404 23.928C30.0764 23.608 32.5084 22.584 34.2364 20.856C35.9644 19.064 36.8284 16.76 36.8284 13.944C36.8284 13.496 36.7644 12.824 36.6364 11.928H35.4844C35.3564 12.632 34.9724 13.176 34.3324 13.56C33.7564 13.88 33.0204 14.04 32.1244 14.04C30.5884 14.04 29.2444 13.464 28.0924 12.312C27.0044 11.096 26.4604 9.528 26.4604 7.608C26.4604 5.56 27.1004 3.896 28.3804 2.616C29.7244 1.336 31.4844 0.695995 33.6604 0.695995C36.4764 0.695995 38.6844 1.816 40.2844 4.056C41.9484 6.232 42.7804 9.112 42.7804 12.696C42.7804 16.984 41.4684 20.76 38.8444 24.024C36.2844 27.224 32.3164 29.048 26.9404 29.496V23.928Z" fill="url(#paint0_linear_761_11859)"/>
<defs>
<linearGradient id="paint0_linear_761_11859" x1="24" y1="2" x2="24" y2="74" gradientUnits="userSpaceOnUse">
<stop stop-color="#212327"/>
<stop offset="1" stop-color="#212327" stop-opacity="0"/>
</linearGradient>
</defs>
</svg>
