<svg width="37" height="36" viewBox="0 0 37 36" fill="none" xmlns="http://www.w3.org/2000/svg">
<path d="M36.3751 3.0587V8.99091C36.3751 10.6249 35.0436 11.9629 33.3912 11.9629H15.5118C13.8712 11.9629 12.5279 13.289 12.5279 14.9349V32.8855C12.5279 34.5195 11.1964 35.8575 9.544 35.8575H3.58813C1.9476 35.8575 0.604248 34.5313 0.604248 32.8855V14.9349C0.604248 13.3009 1.93571 11.9629 3.58813 11.9629H9.544C11.1845 11.9629 12.5279 10.6368 12.5279 8.99091V3.0587C12.5279 1.42468 13.8593 0.0866699 15.5118 0.0866699H33.3912C35.0317 0.0866699 36.3751 1.41284 36.3751 3.0587Z" fill="white"/>
</svg>
