<svg width="82" height="18" viewBox="0 0 82 18" fill="none" xmlns="http://www.w3.org/2000/svg">
<path d="M20.4396 17.5046L20.4396 0.0799561H27.2414C30.9706 0.0799561 33.316 1.58103 33.316 5.0288C33.316 7.43286 32.1081 8.58212 30.9002 9.02775V9.22711C33.0932 9.54374 33.0932 10.9862 33.0932 12.1706V17.5046H30.9471V12.1237C30.9471 11.0917 30.3608 10.5171 29.2467 10.5171H22.5974V17.5046H20.4396ZM22.5974 8.58212H26.2563C29.3171 8.58212 31.1582 8.1013 31.1582 5.23989C31.1582 2.40193 29.2232 2.01493 26.2563 2.01493H22.5974V8.58212Z" fill="white"/>
<path d="M40.3068 17.5065C37.5041 17.5065 35.4401 16.0171 35.4401 13.3551C35.4401 11.0917 36.9412 9.64928 40.0606 9.64928H44.3644V8.84011C44.3644 7.11623 43.309 6.16633 41.0926 6.16633C39.1341 6.16633 38.02 6.88168 37.8441 8.30066H35.8036C36.0147 6.03733 37.7386 4.31345 41.1395 4.31345C44.8218 4.31345 46.3932 6.18978 46.3932 8.85184V14.7154C46.3932 15.2666 46.6864 15.5715 47.2493 15.5715H47.8356V17.2485H46.9678C45.7013 17.2485 44.8687 16.7325 44.5403 15.7474H44.4113C43.5552 16.7911 42.2184 17.5065 40.3068 17.5065ZM37.4571 13.402C37.4571 15.0086 38.8409 15.6536 40.6 15.6536C43.0393 15.6536 44.3644 14.4105 44.3644 12.112V11.3263H40.0606C38.196 11.3263 37.4571 12.2175 37.4571 13.402Z" fill="white"/>
<path d="M49.8346 17.2485V4.57144H51.8634V5.56825H52.051C52.8484 4.72389 54.0329 4.31345 55.6512 4.31345C58.7237 4.31345 60.2131 6.06079 60.2131 9.63756V17.2485H58.1843V10.0363C58.1843 7.47977 57.1523 6.16633 55.1352 6.16633C53.0243 6.16633 51.8634 7.55013 51.8634 10.0363V17.2485H49.8346Z" fill="white"/>
<path d="M66.3669 17.2485C64.6899 17.2485 63.7869 16.3455 63.7869 14.6685V6.24842H61.7229V4.57144H63.7869V1.36994H65.804V4.57144H68.5598V6.24842H65.804V14.5395C65.804 15.1024 66.1089 15.3956 66.6718 15.3956H68.5598V17.2485H66.3669Z" fill="white"/>
<path d="M70.5632 17.2485V4.57144H72.5919V17.2485H70.5632ZM70.5749 2.63647V0.0799561H72.5919V2.63647H70.5749Z" fill="white"/>
<path d="M75.3273 17.2485V4.57144H77.3561V5.7207H77.6375C78.3412 4.7708 79.08 4.57144 79.9126 4.57144H82V6.50642H79.9361C78.2591 6.50642 77.3561 7.42113 77.3561 9.09811V17.2485H75.3273Z" fill="white"/>
<path d="M17.5046 1.45437V4.35732C17.5046 5.15693 16.853 5.81169 16.0444 5.81169H7.29504C6.49224 5.81169 5.83487 6.46063 5.83487 7.26603V16.0502C5.83487 16.8498 5.18332 17.5046 4.3747 17.5046H1.46017C0.657372 17.5046 0 16.8556 0 16.0502V7.26603C0 6.46642 0.651555 5.81169 1.46017 5.81169H4.3747C5.1775 5.81169 5.83487 5.16273 5.83487 4.35732V1.45437C5.83487 0.654761 6.48643 0 7.29504 0H16.0444C16.8472 0 17.5046 0.648967 17.5046 1.45437Z" fill="white"/>
</svg>
