<svg width="79" height="96" viewBox="0 0 79 96" fill="none" xmlns="http://www.w3.org/2000/svg">
<g clip-path="url(#clip0_1155_1910)">
<path d="M41.9589 21.7514C42.4782 24.7447 42.9974 27.7403 43.5214 30.7336C44.3971 35.7392 45.1939 40.7591 46.1725 45.7455C47.0865 50.4042 50.1229 53.3664 54.6284 54.2828C62.5985 55.9074 70.65 57.1301 78.7063 58.6734C77.5171 58.9031 76.3327 59.1543 75.1412 59.3601C68.5301 60.5038 61.9214 61.6523 55.3055 62.7673C50.4435 63.5856 46.7707 67.3111 45.9189 72.331C44.6364 79.8872 43.3419 87.441 42.0451 94.9949C42.014 95.1767 41.9135 95.349 41.7556 95.7534C40.8057 90.3003 39.8964 85.089 38.9896 79.8801C38.4847 76.9873 38.1091 74.0634 37.4511 71.2065C36.5347 67.2178 33.3164 63.3942 27.1217 62.485C19.977 61.437 12.8755 60.0755 5.75712 58.8433C5.49153 58.7978 5.23311 58.6997 4.69714 58.5514C12.5213 57.2114 20.0608 55.8811 27.617 54.6393C33.3093 53.7037 36.884 50.0716 37.8172 44.3697C38.968 37.3184 40.2601 30.2886 41.49 23.2492C41.5761 22.7515 41.6431 22.2491 41.7197 21.7466C41.7986 21.7466 41.8776 21.7466 41.9589 21.749V21.7514Z" fill="url(#paint0_linear_1155_1910)"/>
<path d="M41.9589 21.7514C42.4782 24.7447 42.9974 27.7403 43.5214 30.7336C44.3971 35.7392 45.1939 40.7591 46.1725 45.7455C47.0865 50.4042 50.1229 53.3664 54.6284 54.2828C62.5985 55.9074 70.65 57.1301 78.7063 58.6734C77.5171 58.9031 76.3327 59.1543 75.1412 59.3601C68.5301 60.5038 61.9214 61.6523 55.3055 62.7673C50.4435 63.5856 46.7707 67.3111 45.9189 72.331C44.6364 79.8872 43.3419 87.441 42.0451 94.9949C42.014 95.1767 41.9135 95.349 41.7556 95.7534C40.8057 90.3003 39.8964 85.089 38.9896 79.8801C38.4847 76.9873 38.1091 74.0634 37.4511 71.2065C36.5347 67.2178 33.3164 63.3942 27.1217 62.485C19.977 61.437 12.8755 60.0755 5.75712 58.8433C5.49153 58.7978 5.23311 58.6997 4.69714 58.5514C12.5213 57.2114 20.0608 55.8811 27.617 54.6393C33.3093 53.7037 36.884 50.0716 37.8172 44.3697C38.968 37.3184 40.2601 30.2886 41.49 23.2492C41.5761 22.7515 41.6431 22.2491 41.7197 21.7466C41.7986 21.7466 41.8776 21.7466 41.9589 21.749V21.7514Z" fill="url(#paint1_linear_1155_1910)"/>
<path d="M15.8613 53.219C15.2775 49.9337 14.6889 46.6509 14.1123 43.3657C13.66 40.7888 12.1454 39.3388 9.57566 38.9272C6.46752 38.4296 3.36895 37.8721 0.267984 37.3361C0.215345 37.3265 0.172276 37.2619 0 37.1207C1.72276 36.8217 3.34263 36.5369 4.9625 36.257C6.59194 35.9746 8.22856 35.7402 9.84604 35.4076C12.5929 34.8429 13.8132 33.3546 14.2941 30.2991C14.7679 27.2867 15.3278 24.2862 16.0145 21.2666C16.2681 22.6927 16.5241 24.1163 16.773 25.5424C17.1103 27.4853 17.4094 29.4353 17.7779 31.371C18.2182 33.6776 19.9074 35.0941 22.4437 35.4985C25.5782 35.9986 28.7007 36.5704 31.8543 37.2715C31.3255 37.3768 30.7967 37.494 30.2631 37.5849C27.5043 38.0587 24.7383 38.4894 21.9867 39.0038C19.2829 39.5087 18.0483 41.0424 17.541 44.2271C17.0601 47.2348 16.5121 50.2328 15.9953 53.2357C15.9499 53.2309 15.9068 53.2261 15.8613 53.2213V53.219Z" fill="url(#paint2_linear_1155_1910)"/>
<path d="M15.8613 53.219C15.2775 49.9337 14.6889 46.6509 14.1123 43.3657C13.66 40.7888 12.1454 39.3388 9.57566 38.9272C6.46752 38.4296 3.36895 37.8721 0.267984 37.3361C0.215345 37.3265 0.172276 37.2619 0 37.1207C1.72276 36.8217 3.34263 36.5369 4.9625 36.257C6.59194 35.9746 8.22856 35.7402 9.84604 35.4076C12.5929 34.8429 13.8132 33.3546 14.2941 30.2991C14.7679 27.2867 15.3278 24.2862 16.0145 21.2666C16.2681 22.6927 16.5241 24.1163 16.773 25.5424C17.1103 27.4853 17.4094 29.4353 17.7779 31.371C18.2182 33.6776 19.9074 35.0941 22.4437 35.4985C25.5782 35.9986 28.7007 36.5704 31.8543 37.2715C31.3255 37.3768 30.7967 37.494 30.2631 37.5849C27.5043 38.0587 24.7383 38.4894 21.9867 39.0038C19.2829 39.5087 18.0483 41.0424 17.541 44.2271C17.0601 47.2348 16.5121 50.2328 15.9953 53.2357C15.9499 53.2309 15.9068 53.2261 15.8613 53.2213V53.219Z" fill="url(#paint3_linear_1155_1910)"/>
<path d="M31.8414 21.2689C31.6021 19.9074 31.3676 18.546 31.1212 17.1845C30.9465 16.2154 30.8125 15.2368 30.566 14.2869C30.2 12.8752 29.2046 12.1311 27.7857 11.899C25.8117 11.5736 23.8377 11.2338 21.8661 10.8917C21.6939 10.8605 21.5311 10.7696 21.2321 10.6548C23.4812 10.2767 25.5796 9.93217 27.6756 9.57087C29.6951 9.22153 30.5397 8.15677 30.925 5.587C31.1738 3.92166 31.4681 2.26351 31.7504 0.602965C31.7744 0.459402 31.8485 0.323017 31.9634 0C32.3965 2.43339 32.7745 4.67058 33.2004 6.89821C33.466 8.28359 34.3226 9.1665 35.7152 9.43449C37.9524 9.86757 40.1991 10.2504 42.4626 10.7816C41.1371 11.0233 39.8139 11.2721 38.4883 11.5042C37.6126 11.6573 36.7249 11.7506 35.8563 11.9325C34.3226 12.2531 33.3871 13.2365 33.1023 14.7535C32.698 16.9069 32.3749 19.0724 32.0184 21.2354C31.9586 21.2473 31.9012 21.2593 31.8414 21.2713V21.2689Z" fill="url(#paint4_linear_1155_1910)"/>
<path d="M31.8414 21.2689C31.6021 19.9074 31.3676 18.546 31.1212 17.1845C30.9465 16.2154 30.8125 15.2368 30.566 14.2869C30.2 12.8752 29.2046 12.1311 27.7857 11.899C25.8117 11.5736 23.8377 11.2338 21.8661 10.8917C21.6939 10.8605 21.5311 10.7696 21.2321 10.6548C23.4812 10.2767 25.5796 9.93217 27.6756 9.57087C29.6951 9.22153 30.5397 8.15677 30.925 5.587C31.1738 3.92166 31.4681 2.26351 31.7504 0.602965C31.7744 0.459402 31.8485 0.323017 31.9634 0C32.3965 2.43339 32.7745 4.67058 33.2004 6.89821C33.466 8.28359 34.3226 9.1665 35.7152 9.43449C37.9524 9.86757 40.1991 10.2504 42.4626 10.7816C41.1371 11.0233 39.8139 11.2721 38.4883 11.5042C37.6126 11.6573 36.7249 11.7506 35.8563 11.9325C34.3226 12.2531 33.3871 13.2365 33.1023 14.7535C32.698 16.9069 32.3749 19.0724 32.0184 21.2354C31.9586 21.2473 31.9012 21.2593 31.8414 21.2713V21.2689Z" fill="url(#paint5_linear_1155_1910)"/>
</g>
<defs>
<linearGradient id="paint0_linear_1155_1910" x1="41.7017" y1="21.7466" x2="41.7017" y2="95.7533" gradientUnits="userSpaceOnUse">
<stop stop-color="white"/>
<stop offset="1" stop-color="#EEEEEE"/>
</linearGradient>
<linearGradient id="paint1_linear_1155_1910" x1="41.7017" y1="21.7466" x2="41.7017" y2="95.7533" gradientUnits="userSpaceOnUse">
<stop stop-color="white"/>
<stop offset="1" stop-color="#EEEEEE"/>
</linearGradient>
<linearGradient id="paint2_linear_1155_1910" x1="15.9271" y1="21.2666" x2="15.9271" y2="53.2357" gradientUnits="userSpaceOnUse">
<stop stop-color="white"/>
<stop offset="1" stop-color="#EEEEEE"/>
</linearGradient>
<linearGradient id="paint3_linear_1155_1910" x1="15.9271" y1="21.2666" x2="15.9271" y2="53.2357" gradientUnits="userSpaceOnUse">
<stop stop-color="white"/>
<stop offset="1" stop-color="#EEEEEE"/>
</linearGradient>
<linearGradient id="paint4_linear_1155_1910" x1="31.8473" y1="0" x2="31.8473" y2="21.2713" gradientUnits="userSpaceOnUse">
<stop stop-color="white"/>
<stop offset="1" stop-color="#EEEEEE"/>
</linearGradient>
<linearGradient id="paint5_linear_1155_1910" x1="31.8473" y1="0" x2="31.8473" y2="21.2713" gradientUnits="userSpaceOnUse">
<stop stop-color="white"/>
<stop offset="1" stop-color="#EEEEEE"/>
</linearGradient>
<clipPath id="clip0_1155_1910">
<rect width="78.7085" height="95.7566" fill="white"/>
</clipPath>
</defs>
</svg>
